<?xml version="1.0" encoding="UTF-8" standalone="no"?>
<!-- Created with Inkscape (http://www.inkscape.org/) -->

<svg
   width="1000mm"
   height="132mm"
   viewBox="0 0 1000 132"
   version="1.1"
   id="svg1"
   xml:space="preserve"
   inkscape:version="1.3.2 (091e20e, 2023-11-25, custom)"
   sodipodi:docname="logo3.svg"
   xmlns:inkscape="http://www.inkscape.org/namespaces/inkscape"
   xmlns:sodipodi="http://sodipodi.sourceforge.net/DTD/sodipodi-0.dtd"
   xmlns="http://www.w3.org/2000/svg"
   xmlns:svg="http://www.w3.org/2000/svg"><sodipodi:namedview
     id="namedview1"
     bordercolor="#000000"
     borderopacity="0.25"
     inkscape:showpageshadow="2"
     inkscape:pageopacity="0.0"
     inkscape:pagecheckerboard="0"
     inkscape:deskcolor="#d1d1d1"
     inkscape:document-units="mm"
     showguides="true"
     inkscape:zoom="0.36391344"
     inkscape:cx="1580.0461"
     inkscape:cy="691.09841"
     inkscape:window-width="2880"
     inkscape:window-height="1514"
     inkscape:window-x="-11"
     inkscape:window-y="-11"
     inkscape:window-maximized="1"
     inkscape:current-layer="layer1"
     pagecolor="#988aca" /><defs
     id="defs1"><clipPath
       clipPathUnits="userSpaceOnUse"
       id="clipPath1"><rect
         style="fill:none;fill-opacity:1;stroke-width:0.267287"
         id="rect2"
         width="616.92346"
         height="78.754463"
         x="32.156364"
         y="212.82079" /></clipPath></defs><g
     inkscape:label="Layer 1"
     inkscape:groupmode="layer"
     id="layer1"
     style="fill:#988aca"><g
       id="g1"
       transform="matrix(1.6230394,0,0,1.6230394,-52.651199,-341.86417)"
       style="fill:#988aca;fill-opacity:1"
       clip-path="url(#clipPath1)"><path
         id="shape0"
         d="M 69.021221,5.681656e-4 C 66.33583,-0.01499446 63.820703,0.96706738 61.145709,1.2417645 58.908615,1.4715089 57.286542,1.5435192 55.268175,2.49631 c -2.57131,1.2138135 -8.615726,1.7895833 -11.177217,2.85911 -2.447394,1.021897 -5.772336,2.7886458 -8.18993,3.8753425 -2.223194,0.9993475 -5.12698,1.9292465 -7.290074,3.0551435 -2.616391,1.361894 -5.35448,2.955982 -7.785171,4.604676 -1.221797,0.828797 -2.834454,2.473425 -3.972951,3.423822 -1.682494,1.404694 -5.431677,3.513635 -6.9111739,4.815232 -2.4569525,1.950294 -4.615432,3.639985 -6.3061369,5.500579 -0.9637373,1.060597 -1.5015184,2.921384 -2.0765206,4.212081 -0.4766375,1.069897 -1.37278159,1.775128 -1.5078469,2.958425 -0.13408429,1.174797 0.0083827,3.476823 0.28873334,4.58962 0.25288122,1.003797 0.76958756,2.301571 1.43569546,3.120268 1.2134664,1.491597 3.8758919,3.056654 5.4347371,4.223951 1.4869655,1.113597 3.0503744,2.565201 4.7054714,3.395598 3.057491,1.533994 8.536059,2.673022 11.83015,3.630719 2.131294,0.6196 3.990333,1.467072 6.169627,1.919869 2.239694,0.4654 2.653989,-0.301376 4.900683,0.127721 2.127594,0.4063 7.956376,1.569142 10.06887,2.039139 1.826694,0.4064 3.827242,1.772869 5.640339,2.242966 0.215497,0.0559 0.68937,0.132261 0.979567,0.311761 0.2117,0.1309 -2.25301,1.46167 -3.229207,1.870567 -0.976197,0.4089 -2.443413,1.282997 -3.60031,1.837797 -1.886894,0.904997 -4.383186,2.894507 -6.21188,3.890304 -3.456391,1.882194 -4.315663,2.990678 -7.312754,5.547569 -1.927394,1.644397 -3.84753,2.99407 -5.562324,4.874967 -0.592997,0.650497 -5.212315,4.434388 -5.632512,5.187288 -0.4863,0.871397 -1.072457,2.313465 -1.320557,3.300062 -0.352297,1.401297 0.06479,2.192164 0.04149,3.618158 -0.0187,1.148797 -0.698613,3.662956 -0.281513,4.721453 0.459097,1.164897 1.494609,2.671082 2.400206,3.540082 1.135297,1.088 2.089733,0.8462 3.56913,1.3882 2.025394,0.741 6.061829,2.56315 8.251223,2.69215 2.918691,0.171 8.400105,-1.12116 11.321699,-1.36116 2.964591,-0.244 5.391103,-0.008 8.297997,-0.61834 2.980191,-0.626 6.886329,-1.67523 9.78062,-2.64023 2.883591,-0.962 5.233672,-2.777535 8.047663,-3.930732 3.056591,-1.252497 8.528915,-2.691224 11.511806,-4.109518 2.390891,-1.136797 5.575161,-2.689328 7.860455,-4.020125 1.412994,-0.822797 3.234512,-2.040418 4.559506,-2.999815 2.083594,-1.508597 4.920676,-3.524487 6.720585,-5.340681 0.798,-0.804997 1.83998,-1.998818 2.33998,-2.999815 0.514,-1.030097 0.21312,-2.248833 0.42912,-3.39983 -0.11689,-1.268747 0.44984,-2.900213 0.13984,-3.757313 -0.529,-1.463694 -2.51507,-2.490325 -3.806072,-3.641422 -0.953972,-0.850497 -1.735743,-2.47675 -2.823637,-3.121747 -1.387197,-0.8224 -4.188831,-1.417972 -5.727925,-1.951972 -1.397397,-0.484797 -2.519973,-0.33159 -3.94167,-0.74659 -1.476294,-0.430897 -2.66864,-1.282114 -4.175434,-1.516414 -0.7409,-0.115197 -2.628763,-0.547478 -3.37446,-0.644778 -0.4563,-0.0595 -1.248251,-0.07579 -1.500351,-0.359588 -0.1678,-0.1889 -0.210467,-0.75841 -0.119567,-1.02031 0.270497,-0.779097 1.843603,-1.516135 2.58,-2.039732 1.494497,-1.062497 3.507207,-2.089378 5.160001,-2.940475 3.801691,-1.957494 4.783801,-2.72526 8.489292,-4.859754 1.805194,-1.039797 8.081443,-4.590751 9.960413,-5.460248 0.154,-0.0712 0.37827,-0.178794 0.54027,-0.179794 0.112,-7e-4 0.26665,0.07375 0.37465,0.120453 0.211,0.0916 0.54789,0.205345 0.67489,0.374645 0.169,0.2258 0.17396,0.701055 0.22496,1.005252 0.072,0.4282 0.11263,1.008627 0.16563,1.440124 0.412,3.333591 2.51717,7.748788 3.16017,11.039179 0.438,2.240994 -0.30466,5.216546 0.22934,7.44064 0.469,1.953194 1.02813,4.573705 1.44013,6.539899 0.662,3.161288 2.59729,8.475565 3.19029,11.650356 0.537,2.873791 -0.0671,4.90981 0.13988,6.424704 0.166,1.214497 1.21692,10.031505 1.61992,11.204802 0.325,0.947399 0.54876,2.325269 1.10976,3.120269 0.371,0.525 1.09915,1.26512 1.68015,1.44012 0.762,0.229 2.20325,0.0534 2.88025,-0.35958 0.746,-0.456 1.24474,-1.74323 1.57474,-2.64023 0.274,-0.745 0.36322,-1.800262 0.52522,-2.520662 0.123,-0.548297 0.29158,-1.418565 0.35958,-1.994562 0.067,-0.5721 0.3347,-1.04285 0.4207,-1.605747 0.09,-0.5897 0.40661,-1.34768 0.59961,-1.91928 0.27,-0.798197 0.62909,-1.86633 0.96009,-2.640227 1.21197,-2.838491 2.02072,-5.762851 3.20972,-8.609745 0.805,-1.929194 2.23739,-5.446606 2.93439,-7.4221 0.954,-2.706191 0.64483,-2.624604 1.64083,-5.315895 1.336,-3.611691 4.16135,-10.906128 5.53635,-14.503316 0.358,-0.936697 1.68591,-3.42282 1.97891,-4.379417 0.35,-1.145294 0.43836,-2.852715 0.67436,-4.029612 0.19,-0.948397 1.07415,-1.843423 1.30515,-2.78042 0.208,-0.843297 0.6014,-1.961768 0.8104,-2.804965 0.153,-0.618797 0.32693,-1.427792 0.44993,-2.054789 0.072,-0.3662 0.0831,-0.91756 0.27013,-1.21516 0.121,-0.1916 0.45673,-0.512098 0.62973,-0.495098 0.179,0.0176 0.45526,0.411708 0.54026,0.630608 0.147,0.3801 0.0263,1.008324 0.0443,1.440124 0.044,1.080397 0.17568,2.519227 0.18068,3.599424 0.005,1.295797 -0.12968,3.024275 -0.18068,4.320372 -0.128,3.239688 0.15194,7.669995 0.14594,10.910183 -0.003,1.592897 -0.44691,3.607548 -0.37091,5.199542 0.105,2.215394 0.20382,5.17902 0.45082,7.380414 0.186,1.656494 0.78727,4.2208 1.23027,5.819897 0.524,1.892694 1.14402,4.080166 2.09902,5.789663 1.157,2.070194 3.1073,4.701723 4.7703,6.390217 1.445,1.467597 3.68736,3.245935 5.49036,4.230032 1.044,0.57 2.61122,1.186084 3.77922,1.349784 1.627,0.2281 4.24298,-0.53693 5.80098,-1.02043 1.518,-0.471097 3.4711,-1.067215 4.7741,-2.039612 1.493,-1.113897 3.31033,-2.924589 4.54533,-4.319486 1.556,-1.758294 2.67882,-5.076308 3.71982,-7.161199 0.998,-1.998994 2.29886,-4.314398 2.75986,-6.519092 0.55397,-2.646294 0.60204,-6.478352 0.69504,-9.185343 0.111,-3.258591 -0.0233,-7.677065 -0.0903,-10.945453 -0.056,-2.698794 -0.24166,-6.035304 -0.41466,-8.724095 -0.095,-1.464097 0.35056,-3.38846 0.19257,-4.849854 -0.101,-0.942797 -0.36786,-2.226015 -0.65186,-3.105212 -0.142,-0.4378 -0.52243,-0.980284 -0.8104,-1.349784 -0.257,-0.3286 -0.8552,-0.632096 -0.9902,-0.990196 -0.14,-0.369 -0.38291,-1.257118 -0.20991,-1.619918 0.19,-0.4004 -0.33056,-1.421205 0.0634,-1.680205 0.43797,-0.2884 2.57279,-1.053456 3.08179,-1.151256 0.672,-0.1291 1.59391,1.198793 2.28491,1.300993 0.631,0.0933 1.66584,0.152371 2.06984,0.540268 0.64,0.6143 0.8082,2.246839 0.9902,3.239836 0.291,1.586397 0.49772,3.781928 0.62972,5.400022 0.16,1.973294 0.2435,4.594718 0.36047,6.570012 0.14,2.370891 1.4109,4.920554 1.4259,7.296748 0.016,2.645691 -0.98817,6.813694 -0.79617,9.443585 0.252,3.450091 0.49406,7.201366 0.72006,10.650957 0.139,2.120394 0.57206,5.770297 0.72006,7.889088 0.137,1.957097 0.34406,4.545778 0.72006,6.479672 0.522,2.686994 1.10151,6.333801 1.97951,8.909992 0.864,2.534194 1.89161,5.790597 3.21061,8.130597 0.635,1.12697 1.51077,3.67694 2.51977,4.19991 1.063,0.551 3.71255,-0.10858 5.03955,-0.35958 2.154,-0.408 4.93705,-1.21206 7.05005,-1.89006 3.416,-1.09697 7.94734,-2.77467 11.34031,-3.93067 2.824,-0.96297 6.65681,-3.062718 9.32981,-4.379712 2.916,-1.436697 6.75626,-3.875575 9.45026,-5.700269 3.308,-2.240894 7.39371,-5.062141 10.46968,-7.620435 1.577,-1.311494 3.73166,-3.045612 5.10066,-4.559506 1.469,-1.625297 1.49935,-3.055425 2.45035,-5.005719 0.848,-1.739794 2.44328,-5.306855 2.73428,-7.234449 0.253,-1.677294 0.17169,-4.798984 -0.0353,-6.479078 -0.298,-2.419094 -0.14985,-4.875393 -1.06985,-7.140987 -0.688,-1.693494 -1.8587,-3.928314 -2.9697,-5.369908 -1.533,-1.988794 -4.10152,-4.34615 -6.00052,-6.029744 -2.195,-1.945494 -5.3128,-4.303136 -7.67977,-6.03063 -2.047,-1.494194 -4.90631,-3.338323 -7.11028,-4.58962 -2.432,-1.380697 -5.17268,-1.955062 -7.74668,-3.049359 -2.056,-0.873997 -5.08229,-2.663998 -7.25329,-3.010498 -1.86097,-0.297 -4.92226,-0.566838 -6.83926,-0.659835 -1.561,-0.0757 -2.60621,-0.0708 -3.84121,-0.0992 -1.154,-0.0265 -2.49804,0.01057 -3.95901,0.03897 -2.08,0.0405 -5.27531,0.190375 -7.35031,0.329475 -0.56797,0.0381 -2.72197,0.467794 -3.26994,0.600494 -0.839,0.2034 -2.28627,0.660859 -3.12027,0.899856 -1.023,0.2932 -2.44897,0.564922 -3.50997,0.629722 -1.448,0.0885 -3.40076,-0.228748 -4.85976,-0.269248 -1.106,-0.0307 -2.60276,-0.1456 -3.68976,0 -0.907,0.1215 -1.38151,0.60544 -2.03351,1.139937 -0.597,0.4892 -1.94752,1.392956 -2.19652,2.189353 -0.393,1.259197 -0.50672,3.081615 -0.62972,4.410712 -0.232,2.499491 -0.21148,5.86123 -0.36048,8.369724 -0.127,2.135094 -0.34027,4.980888 -0.54027,7.110279 -0.249,2.650494 0.44153,4.878947 0.29353,7.533238 -0.075,1.345797 -0.90942,4.484353 -0.96842,5.83175 -0.068,1.541994 -0.39237,3.605221 -0.76434,5.084718 -0.445,1.772294 -0.81426,4.062259 -1.71026,5.670156 -0.91,1.633594 -1.43412,3.488799 -2.61012,4.950093 -0.574,0.7129 -2.02845,2.079769 -2.70045,2.699569 -0.803,0.740997 -2.20061,1.421712 -3.17961,1.799712 -0.653,0.251997 -2.47972,0.350073 -3.20972,0.360473 -1.187,0.0169 -4.0847,-0.09561 -5.0207,-0.608915 -1.40397,-0.769497 -2.70091,-2.198353 -3.63991,-3.71045 -0.92297,-1.485794 -1.7758,-4.070668 -2.4708,-5.671162 -0.746,-1.716094 -0.50063,-4.289904 -0.83863,-6.119198 -0.447,-2.421394 -0.5046,-5.797176 -0.6306,-8.28027 -0.166,-3.268191 -0.44539,-7.620695 -0.53939,-10.890383 -0.129,-4.451288 -0.38263,-10.727632 -0.49563,-15.179817 -0.081,-3.201491 0.48033,-7.196408 -0.0446,-10.334999 -0.104,-0.619497 -0.29656,-1.476176 -0.58456,-2.024676 -0.262,-0.499197 -0.8447,-0.741675 -1.2427,-1.154872 -0.212,-0.2197 -0.47269,-0.934014 -0.73769,-1.005314 -0.179,-0.048 -0.48889,0.05612 -0.67489,0.134625 -0.281,0.118197 -0.66269,0.35584 -0.85469,0.585437 -0.347,0.4152 -0.57023,1.184361 -0.76523,1.710258 -0.395,1.067297 -0.82253,2.535797 -1.08053,3.644594 -0.217,0.932197 -0.32439,2.217585 -0.53939,3.150382 -0.466,2.024394 -1.17094,7.460249 -1.71494,9.468043 -1.041,3.842188 -2.35311,6.239425 -3.46011,10.061313 -0.518,1.786794 -0.36666,2.978011 -1.00066,4.726905 -0.48497,1.337997 -1.61882,4.488589 -2.14482,5.811683 -1.274,3.203691 -1.99364,5.157558 -3.30964,8.344049 -0.837,2.027094 -3.46798,6.819083 -4.35998,8.822477 -0.75,1.684594 -0.77958,2.977851 -1.56755,4.645245 -0.495,1.048097 -2.0846,3.435816 -2.6926,4.415313 -0.215,0.3468 -0.50863,0.933453 -0.83963,1.07965 -0.189,0.0836 -0.61529,0.05557 -0.78029,-0.06023 -0.46,-0.322 -0.69985,-1.362809 -0.89985,-1.979506 -0.388,-1.197797 -0.61252,-2.894081 -0.84052,-4.140578 -0.262,-1.434897 -0.5444,-3.359633 -0.7794,-4.799527 -0.484,-2.970291 -1.40439,-4.676891 -1.98039,-7.629182 -0.467,-2.390294 -1.13774,-7.609187 -1.79971,-9.950781 -0.547,-1.936394 -1.2676,-4.660431 -1.8006,-6.600125 -0.574,-2.089894 -1.11694,-4.119347 -1.85994,-6.135141 -0.323,-0.874897 -0.76737,-2.640029 -1.00437,-3.525026 -0.172,-0.6426 -0.34485,-1.814748 -0.19485,-2.459548 0.17,-0.728297 0.67322,-1.765739 1.19922,-2.280639 0.657,-0.643397 2.1327,-1.435341 3.0007,-1.859938 2.236,-1.094052 4.59297,-3.048144 7.10628,-4.295715 1.73774,-0.862587 2.15349,-1.605682 3.67455,-2.408476 1.79701,-0.948438 2.64255,-1.392962 4.09354,-2.10985 0.24067,-0.118908 0.94083,-0.152592 1.22722,-0.330656 0.88195,-0.548615 2.5764,-1.573272 4.59284,-2.591314 1.50909,-0.7619 2.9055,-1.021511 3.545,-1.464239 1.166,-0.8075 2.91584,-2.084899 4.11684,-2.833896 0.968,-0.6037 2.30257,-0.872493 3.26357,-1.48559 0.454,-0.2895 1.15574,-1.526201 1.38974,-1.957601 -0.26149,-0.256832 0.72185,-1.041924 0.72085,-1.710021 -0.001,-0.5914 -0.35844,-1.091512 -0.43044,-1.372812 -0.081,-0.3135 -0.3545,-0.749183 -0.6005,-0.960083 -0.199,-0.1702 -0.57663,-0.298388 -0.83963,-0.359588 -0.657,-0.1529 -1.4895,0.209289 -2.1705,0.238389 -1.30097,0.0556 -3.13362,0.06325 -4.42962,0.241652 -0.792,0.109 -1.73978,0.316242 -2.51978,0.480042 -0.768,0.1611 -1.79788,0.460651 -2.54988,0.689948 -1.339,0.4084 -3.07969,0.984257 -4.41869,1.394954 -1.36097,0.4177 -3.08802,1.008956 -4.44702,1.432153 -1.522,0.4736 -3.71451,1.198393 -5.26451,1.522493 -2.706,0.566097 -6.61912,1.536124 -9.39612,1.619324 -2.33597,0.07 -6.0853,1.035694 -8.03386,0.149384 -1.60832,-0.731544 -3.72857,-1.551188 -5.49067,-1.528688 -0.828797,0.0106 -1.984997,-0.0022 -2.759794,0.240021 -0.2705,0.0846 -0.58763,0.336041 -0.83963,0.480041 -0.251997,0.144 -0.714515,0.262942 -0.840515,0.480042 -0.1875,0.323197 -0.1888,1.119224 0,1.440124 0.162,0.275297 0.761436,0.412294 1.080536,0.600494 0.2925,0.1725 0.690483,0.395409 0.960083,0.599609 0.424897,0.321797 0.947573,0.816903 1.31967,1.200103 0.4616,0.4753 1.091827,1.123745 1.440124,1.680145 0.474106,0.756797 0.888106,1.913897 1.200106,2.759794 0.298,0.810897 0.68942,1.903771 1.01942,2.699568 0.233,0.5628 0.52829,1.304325 0.78029,1.860825 0.253,0.559397 0.67206,1.329682 0.72006,1.919279 0.043,0.5278 -0.0706,1.386998 -0.35958,1.800598 -0.399,0.570397 -1.36762,1.333647 -2.04062,1.680144 -1.387606,0.714 -1.696174,1.464461 -3.115968,2.120361 -1.899094,0.877297 -6.452832,3.357425 -8.307129,4.327422 -2.726091,1.426097 -5.591313,3.76988 -8.358743,5.114684 -2.949693,1.433372 -5.444739,1.963909 -8.11813,3.647403 -1.511397,0.951797 -4.676784,2.521999 -6.299878,3.149496 -1.419297,0.5487 -3.522025,0.422004 -5.047519,0.315304 -1.023097,-0.0715 -4.395756,-0.822611 -8.467149,-1.702287 -1.581095,-0.341615 -5.010119,0.226792 -9.151359,-0.598138 -3.437575,-0.684763 -7.487,-2.741296 -10.274409,-3.32455 -2.764095,-0.578376 -4.268672,-0.38854 -6.972766,-1.219237 -2.096694,-0.644097 -5.757881,-2.156284 -7.787175,-2.980681 -1.909794,-0.7758 -4.412763,-0.688777 -6.131657,-1.802374 -0.972497,-0.630097 -2.653424,-2.727991 -3.0475833,-3.687988 -0.3108591,-0.757097 -0.052425,-1.811601 0.3294753,-2.580001 0.966497,-1.944494 2.669168,-4.850802 3.988367,-5.899197 0.742497,-0.590078 5.314025,-3.677851 8.081897,-5.467885 2.556512,-1.653345 4.900929,-3.372633 6.843307,-4.933417 3.025874,-2.431423 6.463434,-2.731973 9.493425,-4.31577 1.882994,-0.984197 5.742805,-2.436223 7.675402,-3.31742 1.436394,-0.6549 3.962894,-1.185196 5.452688,-1.700693 1.519997,-0.5259 5.221861,-1.745926 6.766935,-2.203311 1.605273,-0.4752056 1.419759,-0.239826 2.907756,-0.5341054 1.335194,-0.2640794 3.440009,-0.4936436 4.785003,-0.713213 1.016297,-0.1659094 2.50853,-0.3945147 3.525027,-0.4198147 0.793397,-0.01975 1.972887,0.021409 2.655284,0.3595881 0.2918,0.1445797 0.667602,0.5184027 0.810402,0.8104018 0.1357,0.2774802 0.166024,0.7627502 0.134624,1.0796502 -0.0328,0.3315 -0.231688,0.764636 -0.359588,1.080536 -0.1402,0.346297 -0.392368,0.78122 -0.540268,1.12482 -0.194,0.450997 -0.379238,1.084778 -0.585438,1.529578 -0.2585,0.557797 -0.683213,1.265798 -0.98931,1.800598 -0.3277,0.572597 -0.156064,1.362924 -0.464864,1.945121 -0.2232,0.421 0.0018,0.944257 -0.179261,1.385054 -0.1685,0.4103 -0.733121,1.095665 -0.866821,1.518862 -0.0759,0.2404 -0.461583,0.962575 -0.514083,1.208775 -0.0568,0.266497 -0.364705,0.721462 -0.437509,0.982462 -0.0935,0.335597 -0.528974,0.143466 -0.642674,0.474763 -0.0997,0.2906 0.500045,0.439983 0.459545,0.74238 -0.0231,0.1724 -0.913803,0.969376 -0.789909,1.042276 0.8188,0.481697 5.019423,-3.434575 6.77992,-5.279569 1.587594,-1.663694 3.294055,-4.333797 4.470052,-6.329991 0.445,-0.755197 0.983187,-1.81623 1.275387,-2.640227 0.410197,-1.156597 0.788228,-2.7872617 0.945025,-4.0050681 0.0704,-0.5461882 0.18457,-1.3329835 0.04517,-1.844882 C 80.727357,4.7009169 79.881484,3.3998698 79.145487,2.7010219 78.20439,1.8073046 76.487056,0.91296294 75.230759,0.54083605 73.468965,0.01891922 70.898515,0.01144686 69.021221,5.681656e-4 Z M 135.8373,16.717874 c 0.18649,0.0063 0.36094,0.035 0.45879,0.112482 0.0747,0.05915 0.15146,0.279163 0.11956,0.360474 -0.1842,0.468907 -0.56217,1.637594 -1.13987,1.949392 -0.8256,0.44556 -1.40387,1.465483 -2.25357,1.859643 -1.2111,0.561758 -1.88826,1.680362 -3.10496,2.231142 -1.5165,0.686468 -4.39051,2.018099 -5.88781,2.748767 -2.1781,1.062838 -4.43903,1.51305 -6.54353,2.701048 -0.7998,0.451398 -2.91317,1.155233 -3.68977,1.650031 -0.3813,0.2429 -1.89301,0.327743 -2.30986,0.480041 -0.47872,0.1748 -1.25505,-0.623475 -1.71026,-0.750175 -0.64945,-0.1807 -1.51079,-0.853203 -2.00687,-1.395103 -1.22866,-1.342196 -2.44261,-3.388721 -3.43209,-4.932439 -0.43278,-0.675188 -1.59092,-2.290471 -1.34096,-2.717959 0.37537,-0.64196 3.39259,-0.53101 4.79678,-0.56297 1.61978,-0.03686 4.28656,0.06743 5.90625,0.02648 1.5933,-0.04028 3.33169,-0.765714 4.92027,-0.880722 1.462,-0.10585 3.22884,0.121514 4.66594,-0.150864 1.0137,-0.19214 2.29275,-0.0015 3.29035,-0.276808 1.9198,-0.52981 3.41873,-1.816003 5.33883,-2.344879 0.7008,-0.193058 2.67837,-0.02297 3.39137,-0.08456 0.1462,-0.01263 0.34492,-0.02932 0.53141,-0.02303 z m 73.29841,14.93265 c 2.6282,0.0028 6.17114,0.08299 8.76031,0.480041 1.8639,0.285832 4.30339,1.026112 6.12009,1.559692 2.51057,0.737367 5.96457,1.597593 8.28027,2.76068 1.66927,0.838437 4.12208,2.114129 5.69938,3.149496 2.1206,1.391997 4.77895,3.329816 6.84015,4.800413 1.89067,1.348897 4.08653,3.458938 5.81983,5.009435 1.4976,1.339594 3.52264,3.141263 4.80041,4.67996 0.9896,1.191694 2.29827,2.907977 2.87937,4.320371 0.5611,1.363597 1.07398,3.475684 0.96008,4.919981 -0.1828,2.318791 -1.47622,5.588811 -2.75979,7.560208 -2.1521,3.305288 -6.28075,6.834268 -9.35992,9.450259 -3.5214,2.991591 -8.47149,8.557456 -12.27029,11.19895 -2.77757,1.931394 -6.95071,2.487764 -9.92941,4.070261 -2.8243,1.500394 -6.69627,3.149101 -9.66017,4.380598 -1.6853,0.700201 -4.07246,1.615661 -5.81983,2.099961 -0.663,0.1837 -1.74359,0.59159 -2.28064,0.35959 -0.74342,-0.3213 -1.72791,-2.911424 -1.97951,-3.810221 -1.12754,-4.027988 -2.86561,-10.027693 -3.395,-14.429581 -0.68251,-5.675182 0.006,-12.299095 -0.3851,-17.999777 -0.34224,-4.992885 -0.42333,-11.676022 -0.59961,-16.680107 -0.0736,-2.087994 -0.28751,-4.908519 -0.6005,-6.959713 -0.22373,-1.466307 -0.60825,-3.349709 -0.96008,-4.800413 -0.16467,-0.67899 -0.33481,-1.596024 -0.48004,-2.279754 -0.10709,-0.504197 -0.44041,-1.435402 0.72006,-2.280639 0.71232,-0.518827 1.89499,-0.995493 2.7598,-1.199217 1.96819,-0.463659 4.78826,-0.362687 6.84014,-0.360474 z M 65.851354,65.788369 c 3.883599,-0.08329 8.123937,-0.76757 11.573484,-0.337204 3.198997,0.399119 4.875355,1.655611 7.989952,2.500641 1.721498,0.467089 7.466153,1.901563 8.520752,3.058562 0.229299,0.25159 1.14094,0.6656 1.27934,1.13722 0.1912,0.651489 -0.445179,1.399536 -0.559278,1.862595 -0.3254,1.320239 -2.176964,4.000317 -3.359404,4.930664 -2.618727,2.060423 -5.170612,3.998546 -8.884814,5.595978 -3.271743,1.407135 -7.689674,2.515014 -10.422765,3.698817 -5.793549,2.509399 -13.650686,5.573261 -19.76418,7.11636 -4.189796,1.057399 -9.208253,1.354619 -13.518448,1.758619 -2.504778,0.2347 -6.50184,0.680559 -8.730198,-0.09034 -1.242629,-0.429999 -2.773738,-1.72155 -3.127354,-2.849249 -0.375653,-1.198098 -0.02452,-3.043704 0.750175,-4.238003 0.750046,-1.156399 2.111416,-2.716741 3.490485,-3.96964 1.377379,-1.251299 2.839236,-2.397918 4.286716,-3.493142 2.376638,-1.798264 4.076707,-4.350316 7.007497,-6.256376 2.28567,-1.486502 5.808084,-2.366513 7.797614,-3.583585 3.496708,-2.139071 8.263834,-5.470678 12.07543,-6.419445 1.080599,-0.268981 2.300463,-0.394708 3.594996,-0.422472 z"
         transform="matrix(0.58942491,0,0,0.58942491,33.88831,218.06802)"
         sodipodi:nodetypes="sssssssscssssssssssssssssssssssccccccssssscccsssssssssssssccccssccsccccsccscccccsccscscsccccscscccsssccsccccccccccsssccccssccccscccscscccsccccssssssscssssscccsscccccssccccscccscscscscscscssccsccccccccscccssscscsscsccssscscccssssssssssccccsccssssssssssssssssssssssssssssssssssssssssssscssssscsssssssssssssssssssssssssssssssssssssssssssssssssssscssssssssssssss"
         style="fill:#988aca;fill-opacity:1" /><path
         id="shape4"
         transform="matrix(0.58942491,0,0,0.58942491,192.93814,229.10075)"
         fill="#00426b"
         fill-rule="evenodd"
         stroke-opacity="0"
         stroke="#988aca"
         stroke-width="0"
         stroke-linecap="square"
         stroke-linejoin="bevel"
         d="M 3.79694,0.00282223 C 4.60811,0.191501 5.05024,3.59003 5.44694,5.16282 6.22465,8.24621 7.0112,12.4465 7.39694,15.6028 7.73202,18.3447 7.2861386,22.818582 7.3862186,25.583782 7.5749986,30.799582 8.19935,36.9932 8.17692,42.2128 8.1562,47.0372 7.506049,53.4683 7.431429,58.2928 c -0.06514,4.2116 0.330281,9.8285 0.265491,14.04 -0.04985,3.2404 -0.31945,7.5637 -0.24,10.8 0.04955,2.0183 0.18875,4.7255 0.48,6.72 0.02392,0.1638 0.03601,0.5093 0.12002,0.54 0.24055,0.088 0.96308,-0.6043 1.26,-0.96 0.64381,-0.7712 1.06576,-2.1563 1.55996,-3.06 0.8204,-1.4998 1.8197,-3.6019 2.88,-4.92 0.0247,-0.0307 0.0653,-0.0858 0.0975,-0.09 0.0587,-0.0077 0.1835,0.0595 0.2138,0.1125 0.0564,0.099 -0.0015,0.3173 -0.0225,0.45 -0.0684,0.4326 -0.2542,0.9964 -0.3825,1.4175 -0.293,0.9612 -0.7197,2.2347 -1.08,3.1725 -0.2361,0.6144 -0.5757,1.4274 -0.8663,2.0175 -0.3093,0.6281 -0.8987,1.3906 -1.14,2.04 -0.2782,0.7489 -0.4254,1.8412 -0.54,2.64 -0.215,1.4992 -0.06737,3.5829 -0.41998,5.04 -0.2082,0.8604 -0.9826909,1.313288 -1.4704209,2.04429 -0.6098,0.913 -1.3999891,2.73691 -2.3095791,3.35591 -0.36661,0.249 -0.96648,0.601 -1.38,0.6 C 3.8442,104.251 2.9594401,103.05309 2.4719901,102.63709 1.7224801,101.99709 1.05046,101.283 0.736922,100.338 0.164969,98.6138 0.184545,96.1068 0.136922,94.2328 0.109048,93.136 0.62848315,91.891181 0.63748315,90.793081 0.64662915,89.677181 0.212561,87.9686 0.196922,86.8528 c -0.027,-1.9264 0.37014509,-4.494 0.31563119,-6.42 -0.0891595,-3.15 -0.28834719,-7.3499 -0.37563119,-10.5 -0.0743125,-2.6819 0.164104,-6.35 0.21,-9.03 C 0.447799,55.0124 0.496936,47.2643 0.676938,41.3728 0.803309,37.2367 1.41029,31.932781 1.44792,27.793081 1.47492,24.822881 0.678699,20.6353 0.856938,17.6728 0.994823,15.381 1.36574,12.3344 1.63692,10.0528 1.8427,8.32147 2.07803,6 2.41692,4.29282 c 0.20619,-1.03867 0.609,-2.39999 0.9,-3.42 0.06716,-0.235383 0.25551,-0.9222182 0.48002,-0.86999777 z"
         sodipodi:nodetypes="cssssssssssssssssssssssssssssssssssssscc"
         style="fill:#988aca;fill-opacity:1" /><path
         id="shape5"
         d="M 60.021531,0.66491149 C 58.855048,0.67422071 55.144915,0.81004354 54.111916,0.8512207 49.83762,1.0216011 43.80982,2.2155546 39.617424,2.9912538 c -3.151297,0.5830594 -6.574961,1.817457 -9.632158,2.817916 -2.114898,0.6920493 -5.377409,1.4610584 -7.452706,2.2676876 -2.236698,0.8693292 -3.772194,2.0892296 -5.977192,3.0356186 -1.626599,0.698139 -5.741036,2.126967 -7.3094851,2.942167 -1.8204977,0.946199 -4.587027,2.771946 -7.0610517,3.771836 -0.7005295,0.283123 -2.26986564,0.408697 -2.17998629,0.621096 0.04794841,0.1133 1.02303649,-0.05178 1.46226599,-0.14968 0.5602495,-0.1249 1.6354131,-0.42028 2.1752426,-0.60758 1.3783786,-0.4784 4.3188047,-1.901194 5.6993833,-2.370093 1.9822382,-0.6734 4.0985862,-1.405093 6.1200842,-1.980392 1.279298,-0.3641 2.964873,-0.531657 4.320371,-0.899856 0.8201,-0.2229 2.510105,-0.447809 3.359404,-0.599609 1.178099,-0.2107 2.212163,-0.422836 3.300062,-0.659835 1.284099,-0.2798 3.203754,-0.279422 4.470053,-0.660721 0.2756,-0.0831 0.531745,-0.194621 0.795345,-0.233821 0.1201,-0.0179 0.306986,-0.0039 0.421586,0.0124 0.0341,0.0049 0.173379,0.148081 0.193079,0.162081 0.3163,0.224599 0.275804,1.384506 0.315304,1.979506 0.0857,1.293898 0.06334,3.023773 0.09034,4.320371 0.0281,1.349399 0.01783,3.153068 -0.04517,4.500166 -0.081,1.731799 -0.336568,4.036512 -0.540268,5.75961 -0.268999,2.274498 -0.81845,5.28501 -1.07965,7.560208 -0.426499,3.714196 -0.858236,8.687865 -1.080535,12.419962 -0.1991,3.342496 -0.343311,7.821065 -0.104511,11.114461 0.211699,2.921297 2.2449,6.764632 3.366099,9.47563 0.7331,1.772698 0.899775,4.241847 2.228773,5.554446 1.659999,1.639498 4.667702,3.518608 6.9296,4.095408 3.536297,0.901699 8.896045,0.376405 12.600641,-0.179794 3.968797,-0.596 9.914936,-3.422143 13.530732,-5.131841 4.613296,-2.181498 10.228111,-4.913013 14.309007,-8.06841 3.959596,-3.061697 6.493017,-6.862821 9.528214,-10.739817 2.719297,-3.473596 7.875853,-9.643589 9.251853,-13.860085 1.273,-3.899996 1.32306,-8.482393 1.27906,-12.578889 -0.029,-2.704897 0.23421,-7.590437 -0.73879,-10.101734 -0.792,-2.043598 -2.841016,-4.902334 -4.410715,-6.389332 C 95.406108,7.9682059 92.983346,7.6620988 89.91395,6.42173 87.153852,5.3063612 83.069239,3.650603 80.143642,3.0010937 76.933945,2.2885144 71.287212,0.68279362 68.021915,0.38048593 64.940768,0.09523693 63.520981,0.63698384 60.021531,0.66491149 Z M 50.58189,9.8759155 c 1.329999,0.0031 2.660968,0.02864 3.835017,0.059341 1.323498,0.034609 6.267622,0.1939525 7.590321,0.2550775 4.185995,0.19345 6.667004,0.656278 10.8151,1.16999 2.070398,0.256409 4.858662,0.720224 6.83926,1.349784 2.128698,0.676649 4.875848,1.982183 6.840146,3.060042 1.328298,0.728899 3.143733,1.760169 4.230032,2.789908 1.103598,1.046178 2.509442,2.751993 3.060041,4.139691 0.6494,1.637099 0.900162,4.261932 0.720062,6.03063 -0.253199,2.486698 -1.637469,5.785292 -2.699568,8.09959 -1.134699,2.472597 -3.038761,5.660744 -4.67996,7.830342 -1.981598,2.619697 -4.651549,6.8254 -7.119646,9.001398 -2.872097,2.532198 -5.939396,5.275483 -9.099093,7.449181 -2.165397,1.489699 -6.58989,2.539916 -9.369588,4.084914 -2.499697,1.389499 -5.157713,2.372201 -7.442411,3.0441 -1.197199,0.3521 -3.200554,0.534168 -4.470053,0.540268 -1.430498,0.0069 -3.181634,-0.146968 -4.529393,-0.540268 -1.179869,-0.3443 -2.883061,-1.108007 -3.69065,-1.979506 -0.986889,-1.064899 -2.530518,-3.328401 -2.950968,-4.7901 -0.567849,-1.974098 -1.545288,-6.101232 -1.760292,-8.16183 -0.39279,-3.764296 0.946293,-7.385021 0.841702,-11.168817 -0.0835,-3.020897 -0.384411,-7.718127 -0.305937,-10.740824 0.06522,-2.512097 0.701865,-5.196684 0.755865,-7.708882 0.06207,-2.887597 -0.06552,-7.57374 -0.04517,-10.462597 0.0034,-0.47927 -0.0068,-1.119091 0.02303,-1.59689 0.01142,-0.18281 -0.0093,-0.453311 0.06731,-0.60758 0.07778,-0.156664 0.302007,-0.316749 0.449928,-0.427786 0.07449,-0.05592 0.184144,-0.122656 0.270134,-0.157652 0.1276,-0.05193 0.315818,-0.07139 0.540268,-0.08945 2.192348,-0.176453 5.261153,-0.288818 7.454811,-0.3976729 1.170949,-0.058105 2.499704,-0.077499 3.829702,-0.074397 z"
         transform="matrix(0.58942491,0,0,0.58942491,197.13188,232.43263)"
         sodipodi:nodetypes="sssssssasssssssssssscssssssssssssscsssssssssssssssssssssssssssssssssssssss"
         style="fill:#988aca;fill-opacity:1" /><path
         id="shape8"
         d="M 5.0296265,3.5831343e-4 C 3.8966676,-0.00698765 2.2756416,0.09261713 1.2495226,0.51051291 0.85728601,0.67025475 0.28792424,1.033546 0.07953265,1.3802556 c -0.13300737,0.2212898 -0.07553539,0.5867488 0,0.7802886 0.10728269,0.2748897 0.38496432,0.6546263 0.62972208,0.8095161 0.32985567,0.2087398 0.94087017,0.2478473 1.35066967,0.3002473 0.7472393,0.09555 1.9798546,-0.2649898 2.519774,0.09034 0.2700998,0.1777499 0.480158,0.7808171 0.5402679,1.1398767 0.07766,0.4639595 -0.027,7.0376217 0,9.3599197 0.04833,4.157396 0,9.70209 0,13.860085 0,7.505993 0.698112,16.674096 0.720062,24.180088 0.00809,2.766897 -0.1171593,6.81083 0.026571,10.021527 0.0961,2.146898 -0.2751369,4.363154 -0.177137,6.208652 0.1201199,2.261998 1.1893777,8.667701 1.3736976,11.297799 0.1884198,2.688597 -0.5069949,1.601573 -0.3232751,3.912071 0.1625099,2.043698 0.6300897,4.370979 0.7944595,6.751577 0.2431898,3.522296 1.1563775,7.160767 1.5154072,10.167667 0.4481095,3.75299 0.098227,8.32745 1.9201655,11.61044 1.153299,2.078 2.950959,4.69794 3.869558,7.01994 0.4829,1.221 1.430672,2.63673 2.130072,2.03974 2.121898,-1.81 2.664658,-2.36395 3.479857,-3.26995 1.220599,-1.355 2.167983,-2.72215 3.150382,-4.26015 1.082299,-1.694 2.793252,-4.30008 3.659651,-6.12008 0.831399,-1.746 2.054314,-4.00695 2.610114,-5.84995 0.717499,-2.3786 1.88632,-5.660095 2.43032,-8.099593 0.340699,-1.527798 0.592182,-5.621947 0.960082,-6.840145 0.821299,-2.719498 0.485843,-4.655371 0.869743,-7.469868 0.411599,-3.016997 0.191706,-7.114116 1.589805,-9.539714 0.330599,-0.573499 1.275565,-1.174824 1.920164,-1.440124 2.114998,-0.870699 5.46633,-0.71655 7.800228,-1.07965 2.923697,-0.455 6.799311,-1.202145 9.719508,-1.680145 2.284898,-0.373999 5.012778,-1.52535 7.673575,-1.93345 1.944198,-0.2981 4.932327,-0.703798 6.606325,-0.946797 2.912198,-0.4227 5.724962,-0.07634 8.639859,-0.480042 3.061196,-0.423999 7.192437,-0.500904 10.200435,-1.200103 3.358395,-0.780699 6.848607,-1.285982 8.940105,-0.960083 2.277398,0.3549 6.81625,-2.316976 8.04025,-3.330175 0.521,-0.4315 2.4118,-4.595356 1.5898,-5.249456 -1.603,-1.274798 -3.04443,-2.164822 -5.00943,-2.820021 -1.890399,-0.629999 -4.137373,-1.341245 -6.120971,-1.680145 -1.796698,-0.307099 -5.270468,-0.294441 -7.080166,-0.480041 -4.521596,-0.463799 -4.462963,-0.590809 -6.83926,-0.599609 -1.970798,-0.0074 -6.578979,-0.693706 -8.490177,-0.209907 -2.780697,0.703899 -5.229134,0.420007 -8.18993,0.209907 -3.312897,-0.235099 -9.189206,0.436915 -12.510301,0.419815 -4.535796,-0.0234 -9.397731,-0.869364 -13.919427,-1.109763 -1.923099,-0.1023 -4.672119,-0.01766 -6.390217,-0.720062 -0.7023,-0.2872 -1.558047,-1.037919 -2.069846,-1.619918 -0.6522,-0.741699 -1.341559,-1.958549 -1.710258,-2.880248 -0.4879,-1.219699 -1.178496,-3.004273 -0.990196,-4.320372 0.1851,-1.293198 -0.666856,-3.013087 -0.899856,-4.319486 -0.1837,-1.029799 0.0705,-2.247909 0.389701,-3.210608 0.2548,-0.768699 1.801902,-1.892381 2.580001,-2.33998 1.128999,-0.649599 2.459024,-1.43692 3.630423,-2.009619 1.204299,-0.5889 2.93912,-1.005925 4.199918,-1.440124 1.693499,-0.5834 4.080552,-1.022285 5.84995,-1.349784 2.865697,-0.5305 5.744761,-1.894727 8.639858,-2.250526 1.813298,-0.2229 3.773826,-0.739398 5.777324,-0.921998 1.658198,-0.1511 3.36494,0.02179 4.873039,-0.06731 4.227396,-0.2498 8.896513,-0.639437 13.10991,-1.080536 4.030395,-0.4219 10.131551,-0.217921 14.159447,-0.240021 3.108697,-0.017 8.960749,0.568766 12.031144,0.150567 1.72,-0.2344 2.82728,-0.466127 4.49928,-0.945026 0.934,-0.2676 2.87697,-1.026147 3.50997,-1.642946 0.394,-0.3845 2.64448,-1.534017 2.69248,-2.115016 0.044,-0.527299 -1.59596,-0.824029 -1.85196,-1.297529 -0.451,-0.8335286 -1.5223,-1.2128254 -2.1903,-1.8298248 C 107.6239,7.6239851 106.40495,6.25819 105.25995,5.7599705 103.57395,5.026439 101.4342,4.6953673 99.619905,4.3499577 97.691807,3.982818 95.046505,3.9351886 93.080007,3.8406887 90.32331,3.7082189 89.872601,3.6006681 87.109604,3.6006681 c -1.529399,0 -4.684148,0.2706429 -6.388446,0.3011329 -1.515099,0.0271 -1.882109,0.4735199 -3.241608,0.4782699 -1.669198,0.00584 -5.790957,-0.6707794 -7.860455,-0.6199795 -2.717697,0.06672 -4.798028,0.1462716 -6.989826,0.1700515 -1.519599,0.01649 -5.175563,-0.00563 -6.808261,0.035427 -2.312798,0.05815 -3.699224,-0.2368614 -5.851722,-0.2152214 -1.664998,0.01674 -4.728433,-0.2972473 -6.389332,-0.2099074 -1.623998,0.0854 -3.776023,-0.012463 -5.400021,0.060227 -1.759599,0.07877 -4.064124,0.063843 -5.820723,-0.060227 C 31.672311,3.4919216 27.146932,3.22142 26.480033,3.0604002 25.962733,2.9354903 22.379177,2.5095447 21.199579,2.4005648 20.456279,2.3318949 19.47483,2.12327 18.740031,1.9807501 17.908432,1.8194503 11.50207,1.1532574 11.05937,1.0206675 10.400471,0.8232767 9.7446236,0.76744993 9.0798642,0.5999671 7.8947454,0.3013824 6.2457452,0.00824345 5.0296265,3.5831343e-4 Z M 11.192223,4.1063943 c 1.710703,-0.020482 3.85487,0.3028861 5.237056,0.483584 2.324598,0.3039027 4.811395,0.2784382 7.140393,0.5402679 3.149597,0.3540696 8.596429,0.7340719 11.760126,0.8104018 3.639596,0.08781 12.554069,0.070593 16.200066,0.030113 3.643996,-0.04046 6.134538,0.9158893 9.779734,0.9299693 2.537897,0.0098 6.10196,-0.5156079 8.639858,-0.5402679 2.916097,-0.02834 4.374076,0.03744 7.290074,0 2.699997,-0.03467 7.020296,-0.5824944 9.720393,-0.6004944 1.619898,-0.0108 3.059962,0.2400206 4.67996,0.2400206 1.583998,0 3.648144,0.218794 5.219342,0.3604738 1.596998,0.1439999 3.714455,0.7145005 5.280455,1.0796501 1.0197,0.2377598 2.39379,1.1699075 3.36029,1.5605771 0.5642,0.2280598 1.35181,0.567073 1.79971,0.9600826 0.227,0.1988598 0.74495,0.7926638 0.68995,0.9742538 -0.088,0.29401 -0.32618,1.158468 -0.75018,1.425067 -0.8816,0.55462 -3.36169,1.03729 -4.45499,1.26033 -1.2449,0.25397 -2.980392,0.283925 -4.24509,0.419815 -2.976797,0.31986 -6.967632,0.192247 -9.959529,0.300247 -2.624597,0.0948 -6.134414,0.166521 -8.760311,0.240021 -3.854996,0.108 -8.98498,0.344541 -12.839776,0.480041 -2.518098,0.0886 -5.89434,0.329783 -8.399837,0.539382 -2.353598,0.1969 -5.465331,0.63001 -7.800229,1.020309 -2.597597,0.4343 -6.09446,0.909293 -8.639857,1.559692 -2.860398,0.730999 -6.659123,1.93907 -9.35992,3.120268 -2.249298,0.983799 -5.431022,2.3443 -7.20062,3.959898 -1.247098,1.138599 -2.053608,3.498749 -2.369207,5.070547 -0.3668,1.826798 0.184177,3.488437 0.719176,5.430135 0.4858,1.762799 1.044685,4.080812 1.770484,5.75961 0.5291,1.223899 1.623675,2.332337 2.519774,3.239836 0.8747,0.885799 2.494279,1.675433 3.719878,2.039733 2.648897,0.787399 5.166625,0.680689 7.980022,0.780289 3.844596,0.136199 9.408181,0.455814 13.260477,0.419814 2.807797,-0.0262 6.495896,-0.34872 9.299693,-0.24002 3.713596,0.143999 13.327199,-0.082 17.039695,0 3.235997,0.0715 5.595341,0.489421 8.820537,0.660721 2.061498,0.1095 2.76623,-0.146479 4.799528,0.24002 1.962098,0.373 4.898477,0.119634 6.794976,0.734233 1.255496,0.4069 3.059826,2.250713 3.945726,3.105212 0.2911,0.2808 0.31272,1.418671 0.41982,1.740371 0.1105,0.3319 -1.6576,1.130444 -1.9804,1.259444 -2.20999,0.883499 -2.769827,1.114098 -5.220224,1.379898 -2.551398,0.276699 -5.017446,0.453562 -7.780744,0.720062 -2.728897,0.263199 -8.334658,0.375849 -10.848756,0.689948 -2.272698,0.284 -8.538121,1.69629 -11.141918,2.04239 -2.609397,0.3468 -1.557133,-0.371984 -3.827931,-0.03188 -4.355295,0.6523 -9.159402,1.483528 -13.500497,2.219527 -3.034397,0.5145 -3.698396,0.310942 -6.719693,0.900742 -1.080999,0.2111 -6.672035,1.142418 -7.620434,1.619918 -0.877799,0.441999 -2.458289,1.198533 -2.939589,2.039733 -0.503299,0.879599 -0.852509,2.30859 -1.020309,3.360289 -0.1768,1.107899 -0.278215,2.605878 -0.419815,3.719877 -0.316199,2.488397 -0.384975,4.778063 -0.750175,7.25996 -0.3379,2.296898 -0.67411,5.409991 -0.98931,7.709889 -0.2437,1.778198 -0.717563,5.123804 -1.140763,6.855202 -0.380599,1.557599 -1.291025,4.598084 -1.829825,6.120074 -0.797699,2.253 -1.776165,4.43302 -2.804964,6.57002 -0.7896,1.64 -1.867604,3.62372 -2.969702,5.08471 -0.6667,0.884 -2.031019,3.22488 -2.925418,3.71988 -0.4614,0.256 -1.414628,0.41134 -1.619918,0.0903 -1.070289,-1.674 -2.762437,-6.69424 -3.239836,-9.21024 C 11.91727,102.60249 11.182208,94.769076 10.669669,88.920481 10.112839,82.566588 9.8686586,74.050976 9.499679,67.679982 9.1649893,61.901088 8.5783048,54.203155 8.329689,48.420761 8.1385892,43.976165 8.5707758,36.754768 8.4678559,31.590973 8.3977259,28.072077 7.7900638,26.521194 7.6999669,23.490498 7.606041,20.331101 7.3396463,16.119545 7.3394931,12.960588 7.3393778,10.58459 7.3897016,5.7821534 8.8398436,4.6200916 9.2960194,4.2545363 10.165801,4.1186836 11.192223,4.1063943 Z"
         transform="matrix(0.58942491,0,0,0.58942491,286.65509,215.99928)"
         style="fill:#f988aca;fill-opacity:1" /><path
         id="shape10"
         transform="matrix(0.58942491,0,0,0.58942491,365.95589,216.2081)"
         fill="#988aca"
         fill-rule="evenodd"
         stroke-opacity="0"
         stroke="#988aca"
         stroke-width="0"
         stroke-linecap="square"
         stroke-linejoin="bevel"
         d="M 3.59347e-4,5.16608 C 0.220278,4.65339 0.606094,4.31558 0.825359,4.10858 0.834871,4.0996 1.37723,3.78886 1.38036,3.78608 c 0.21025,-0.186 2.47087,-0.62314 3.54,-0.84 1.37682,-0.27926 3.95541,-0.17792 5.34004,-0.42 1.6937,-0.29612 3.6673,-0.34485 5.37,-0.57 1.6993,-0.22469 10.1971,-0.74914 11.91,-0.84 3.2706,-0.173479 3.9837,-0.540592 7.26,-0.599995 2.5198,-0.045689 2.0706,-0.357553 4.59,-0.4200001 3.0608,-0.0758685 10.289,0.3429061 13.35,0.3000001 2.4832,-0.034809 3.457,-0.4509466 5.94,-0.39000011 1.9358,0.04751701 4.5161,0.52715611 6.45,0.63000111 1.675,0.089079 4.0884,0.222542 5.76,0.36 1.352,0.111174 2.9876,-0.144839 4.32,0.090004 1.5049,0.26523 2.6984,0.12324 4.185,0.495 1.5374,0.38446 4.294,1.62497 5.715,2.265 1.1484,0.51724 2.8815,1.16408 3.75,2.07 0.4114,0.42918 0.0605,1.80399 0.21,2.37 0.2105,0.79743 0.9091,0.79173 0.75,1.62 -0.336,1.74951 -2.1415,5.41531 -3,7.02001 -1.5249,2.8501 -3.9308,5.5753 -5.97,8.07 -1.3749,1.6819 -2.6054,3.1513 -4.2558,4.9809 -1.5924,1.7654 -4.0805,3.5351 -5.6442,4.9491 -1.5457,1.3977 -5.1893,4.7044 -6.7756,5.8095 -1.4168,0.987 -3.2276,2.0608 -4.7444,3.1305 -2.2173,1.5637 -3.8382,1.988 -5.85,3.75 -0.3163,0.277 -0.725,1.4332 -0.9675,1.785 -0.1476,0.214 -0.4482,0.6028 -0.42,0.8025 0.0646,0.4578 0.9665,1.035 1.4625,1.35 1.5917,1.0111 4.0357,2.1336 5.7975,2.8875 1.408,0.6025 3.7545,2.1471 5.1375,2.805 2.5645,1.2199 5.6063,2.4228 8.1,3.78 1.7317,0.9425 10.0556,5.1326 11.88,6.3 2.2067,1.412 4.8992,3.7226 7.2,4.95 2.259,1.2051 3.1401,3.0552 4.32,4.5 1.138,1.3935 2.4494,3.4296 3.42,4.95 0.8586,1.3457 2.4876,3.0086 2.6996,4.59 0.356,2.6487 2.15,6.3965 3.12,8.79 0.731,1.8025 2.052,3.305 2.64,5.1599 0.662,2.085 0.962,4.9 1.5,7.02 0.422,1.663 1.521,3.886 1.74,5.58 0.097,0.747 0.155,1.772 0.09,2.52 -0.044,0.519 -0.044,1.454 -0.36,1.71 -0.407,0.33 -1.629,0.184 -2.25,0 -4.411,-1.309 -9.4058,-6.082 -13.4096,-8.73 -5.2903,-3.499 -12.2701,-8.275 -17.55,-11.7899 -2.0556,-1.3683 -4.2141,-3.521 -6.6163,-5.1063 -2.0342,-1.3425 -4.3196,-2.1254 -6.0737,-3.2637 -2.6445,-1.7161 -8.3058,-5.9906 -11.4009,-7.9657 -2.4713,-1.577 -2.3932,-0.8725 -4.5291,-2.2043 -2.423,-1.5108 -5.361,-3.2579 -7.59,-5.01 -1.1128,-0.8747 -3.1346,-2.0511 -4.17,-3.03 -0.8242,-0.7792 -1.7597,-1.5428 -2.73,-2.07 -0.7021,-0.3815 -1.8843,-1.0766 -2.6625,-1.035 -0.8429,0.045 -1.9772,0.178 -2.58,0.7425 -1.0919,1.0224 -1.7287,3.2802 -2.2575,4.7925 -0.6624,1.894 -1.1176,4.5722 -1.56,6.54 -0.8596,3.8228 -1.8512,8.9546 -2.7,12.78 -0.6886,3.103 -1.7059,7.2182 -2.4,10.3199 -0.187,0.836 -0.3861,1.962 -0.6,2.79 -0.606,2.347 -0.9157,6.014 -2.34,7.74 -0.6808,0.825 -2.3439,1.668 -3.42,1.8 -1.1609,0.143 -3.31,-0.23 -4.05,-0.99 -1.35678,-1.393 -1.36928,-5.203 -1.62002,-7.47 -0.43697,-3.951 -0.16581,-10.4048 -0.09,-13.3199 0.0758,-2.9151 -0.18989,-5.6663 -0.24749,-6.9075 -0.08193,-1.7655 -0.01391,-4.2089 -0.18,-6.0075 -0.11284,-1.222 -0.13344,-2.8025 -0.3825,-4.005 -0.43508,-2.1007 -0.48135,-4.9081 -0.81,-7.02 -0.52956,-3.403 -1.23957,-7.9792 -1.17,-11.43 0.03435,-1.7036 -0.38905,-8.7366 -0.45,-10.44 -0.2144,-5.9928 -0.22501,-9.0239 -0.36001,-14.94 -0.04927,-2.1589 0.38312,-4.2877 0.5325,-6.4425 0.1485,-2.1421 0.55779,-4.7588 0.9525,-7.035 0.11541,-0.6656 0.49943,-1.3721 0.54562,-2.0813 0.01785,-0.274 0.45639,-1.8724 0.73688,-1.8337 0.43033,0.0593 0.2814,0.3083 0.5625,0.6525 0.28969,0.3547 -0.45158,1.0573 -0.36,1.53 0.11693,0.6036 0.06071,1.4491 0.09,2.07 0.07514,1.5933 0.21723,3.716 0.27,5.31 0.05806,1.754 0.08518,4.0949 0.09,5.85 0.00747,2.7269 -0.17019,6.3641 -0.09,9.09 0.07703,2.6189 0.01983,6.1111 0,8.73 -0.0135,1.7821 0.32747,4.0691 0.36,5.85 0.02862,1.5669 0.1022,3.7438 0.18,5.31 0.05632,1.1339 0.314,2.6559 0.45,3.78 0.15159,1.253 0.25545,2.9076 0.54,4.14 0.28272,1.2245 0.47802,2.8189 0.72002,4.05 0.2042,1.0394 0.4243,2.4543 0.45,3.51 0.0249,1.0234 0.0653,2.374 0.09,3.3975 0.0409,1.6962 0.2736,4.0135 0.405,5.7075 0.1567,2.0213 0.1984,4.8108 0.2925,6.8325 0.122,2.6206 0.3755,5.9778 0.2625,8.6025 -0.1071,2.4869 -0.5493,5.6279 -0.4425,8.0999 0.039,0.905 0.8539,2.384 1.2225,3.18 0.1342,0.29 0.446,0.714 0.72,0.84 0.2971,0.137 1.0035,-0.011 1.245,-0.18 0.2827,-0.198 0.5125,-0.716 0.6375,-1.117 0.5518,-1.774 1.5217,-1.935 1.9575,-3.743 0.5443,-2.258 0.7432,-5.882 1.2,-8.1599 0.4818,-2.402 1.6392,-6.7028 2.04,-9.12 0.3514,-2.1195 0.6536,-4.8335 0.96,-6.96 0.3056,-2.1215 1.4051,-4.757 1.875,-6.84 0.3893,-1.726 0.6433,-3.2439 1.365,-4.8 0.3822,-0.8242 1.1384,-2.4237 1.875,-3.015 1.1618,-0.9327 2.0664,-2.3852 3.405,-2.865 0.809,-0.29 2.161,-0.5689 3,-0.36 1.3976,0.348 2.9263,1.6081 4.2,2.4 2.3817,1.4808 6.0749,2.4499 7.8,4.86 1.883,2.6308 6.0964,4.3329 9,5.76 2.6933,1.3237 5.452,3.5671 7.86,5.04 2.8009,1.7132 6.6203,4.1281 9,6.39 2.6696,2.5375 6.6545,3.2154 9.18,5.07 2.4772,1.8191 5.2734,4.3899 8.4,6.09 2.6726,1.4529 4.0228,4.2569 6.54,5.9699 1.5357,1.045 5.1181,2.625 6.5696,3.78 0.977,0.777 2.195,1.685 3.21,2.4 0.668,0.47 1.635,1.055 2.4,1.32 0.204,0.071 0.542,0.186 0.72,0.12 0.229,-0.085 0.51,-0.471 0.6,-0.72 0.173,-0.477 0.082,-1.273 0,-1.8 -0.126,-0.811 -0.566,-1.856 -0.84,-2.64 -0.533,-1.527 -0.711,-3.384 -1.215,-4.92 -0.546,-1.666 -2.911,-6.2823 -3.525,-7.9199 -0.669,-1.7874 -0.813,-3.6917 -1.68,-5.4 -1.2746,-2.5129 -3.3432,-5.9375 -4.8896,-8.28 -1.0118,-1.5326 -3.2732,-3.5828 -4.56,-4.89 -1.4989,-1.5227 -4.7634,-4.2197 -6.51,-5.46 -2.4299,-1.7256 -8.4748,-3.7708 -11.07,-5.25 -3.511,-2.0011 -1.791,-1.3132 -5.19,-3.48 -2.1189,-1.3507 -6.1108,-2.8039 -8.34,-3.87 -2.07,-0.99 -5.3755,-2.2712 -7.2,-3.72 -0.801,-0.636 -3.9045,-1.6123 -5.1255,-2.8883 -1.083,-1.1318 -0.3523,-2.6018 -0.1845,-2.7517 1.5391,-1.3761 2.0986,-2.6659 3.87,-3.81 3.9979,-2.5821 9.2916,-6.0898 12.96,-9.12 2.8422,-2.3478 6.3913,-5.6153 8.94,-8.28 2.1145,-2.2109 4.7856,-5.3297 6.63,-7.77 1.1719,-1.5506 2.8133,-3.6483 3.6,-5.4 0.4736,-1.0547 0.932,-2.6339 0.99,-3.78 0.0433,-0.855 -0.4892,-2.38195 -0.945,-3.01501 -0.8874,-1.23265 -2.9443,-1.97709 -4.545,-2.475 -3.249,-1.01066 -7.9878,-1.26076 -11.43,-1.44 -2.5283,-0.13166 -6.672,-0.74439 -9.21,-0.69 -3.753,0.08042 -7.4066,-0.62446 -11.16,-0.6 -3.1587,0.02058 -7.4613,0.94127 -10.62,0.96 -2.6462,0.01569 -5.6977,0.32019 -8.34,0.45 -2.0819,0.10227 -5.8439,0.16693 -7.92,0.36 -2.0008,0.18606 -7.9614,-0.45052 -9.96,-0.24 C 8.785,4.42786 -0.0649274,5.31829 3.59347e-4,5.16608 Z"
         sodipodi:nodetypes="csssssssssssssssssssscscsssssssssssssssssssssscscssssssssssssssscssssssssssssssssssssssssssssssssssssssssssssssssssssssssssssssssssscssssssssssssssscc"
         style="fill:#988aca;fill-opacity:1" /><path
         id="shape11"
         transform="matrix(0.58942491,0,0,0.58942491,440.34691,219.44192)"
         fill="#988aca"
         fill-rule="evenodd"
         stroke-opacity="0"
         stroke="#988aca"
         stroke-width="0"
         stroke-linecap="square"
         stroke-linejoin="bevel"
         d="M 1.20089,0.729691 C 1.36216,0.391153 2.15198,0.0981352 2.59589,0.00969056 3.05557,-0.081896 4.09958,0.503561 4.57589,0.594691 c 1.08864,0.208282 2.14603,0.976739 3.195,1.349999 1.13954,0.40549 2.82841,1.09132 3.91501,1.62 1.3238,0.6441 2.431,1.20167 3.735,1.89 1.1687,0.61695 3.4921,1.94708 4.05,2.58 0.7084,0.80366 3.7761,3.06941 4.41,3.94501 0.9399,1.2983 2.4395,2.8567 3.33,4.185 0.369,0.5503 0.7682,1.348 1.08,1.935 0.9929,1.8693 2.1889,4.4296 3.18,6.3 0.5205,0.9823 1.4018,2.213 1.8,3.24 0.5033,1.2985 0.8612,3.1754 1.08,4.56 0.312,1.9743 0.5985,4.6685 0.54,6.66 -0.034,1.1558 -0.4419,2.6826 -0.54,3.84 -0.0517,0.6091 -0.0865,1.4299 -0.06,2.04 0.047,1.0834 0.357,2.5163 0.42,3.6 0.0594,1.0225 0.0165,2.3943 0,3.42 -0.027,1.6744 -0.0145,3.9171 -0.1801,5.58 -0.1344,1.35 -0.4738,3.1396 -0.75,4.47 -0.2429,1.1703 -0.7141,2.7001 -0.96,3.87 -0.152,0.7235 -0.2824,1.7032 -0.42,2.43 -0.6062,3.2046 -1.531,7.4554 -2.1899,10.65 -0.4308,2.0882 -1.0408,4.8657 -1.44,6.96 -0.2942,1.5434 -0.5251,3.6378 -0.9,5.16 -0.2391,0.9705 -0.7283,2.2216 -1.02,3.18 -0.3218,1.0572 -0.7159,2.4775 -1.02,3.54 -0.5614,1.961 -1.2247,4.6033 -1.86,6.5403 -0.5295,1.614 -1.0819,3.912 -1.98,5.31 -0.4034,0.627 -1.355,1.869 -1.8,1.8 -1.1329,-0.177 -2.3546,-3.939 -2.97,-5.76 -0.9289,-2.749 -0.9661,-6.8021 -1.71,-9.6303 -0.6387,-2.4282 -2.0255,-5.5209 -2.79,-7.92 -0.8948,-2.808 -1.8288,-6.6339 -2.7,-9.45 -0.90822,-2.9357 -2.47766,-6.7502 -3.24001,-9.72 -0.6331,-2.4663 -0.99646,-5.875 -1.53,-8.37 -0.61594,-2.8804 -1.67355,-6.6698 -2.34,-9.54 -0.45634,-1.9654 -1.13467,-4.5796 -1.44,-6.57 -0.738307,-4.813 -1.279448,-11.3311 -1.4400202,-16.2 -0.0782139,-2.3717 -0.004051,-5.5541 0.1800002,-7.92 0.094925,-1.2202 0.42301,-2.8307 0.54,-4.05 0.175536,-1.8295 0.24273,-4.2846 0.36,-6.12001 0.06673,-1.04434 -0.10994,-2.53941 0.24,-3.48 0.12038,-0.32357 0.4349,-0.8482 0.72,-0.96 0.31875,-0.125 0.942,0.114 1.32,0.24 0.378,0.126 1.03605,0.30939 1.2,0.6 0.36778,0.65189 -0.15709,2.10101 -0.24,3 -0.2227,2.41471 -0.59132,5.62761 -0.84,8.04001 -0.21892,2.1237 -0.64483,4.951 -0.72,7.08 -0.08243,2.3345 0.04513,5.4703 0.24,7.8 0.22079,2.6396 0.75566,6.1463 1.2,8.76 0.36308,2.1357 0.99497,4.9587 1.44,7.08 0.55961,2.6674 1.33135,6.2188 1.92,8.88 0.66961,3.0272 1.51768,7.0759 2.28,10.08 0.65293,2.573 1.63243,5.9784 2.40003,8.52 0.6779,2.2447 1.696,5.2029 2.4,7.44 0.9946,3.1609 2.402,7.3569 3.24,10.56 0.4285,1.6381 0.9328,3.8491 1.2,5.52 0.1655,1.0343 -0.1764,2.7513 0.36,3.4803 0.1401,0.19 0.6329,0.416 0.84,0.36 0.5057,-0.138 1.0461,-1.204 1.32,-1.8 0.6499,-1.4151 0.8367,-3.6131 1.2,-5.1603 0.8204,-3.4938 1.9905,-8.1352 2.76,-11.64 0.7403,-3.3717 1.6261,-7.8902 2.28,-11.28 0.6793,-3.522 1.6355,-8.2137 2.16,-11.76 0.4238,-2.8653 0.918,-6.7109 1.08,-9.6 0.1288,-2.2968 -0.0183,-5.3762 0,-7.68 0.018,-2.2682 0.2519,-5.3018 0.12,-7.56 -0.1267,-2.1694 -0.3403,-5.1398 -0.96,-7.2 -0.7738,-2.5726 -0.7711,-4.2119 -2.16,-6.54 -1.1322,-1.8977 -3.4155,-6.1284 -4.86,-7.8 -1.0446,-1.2088 -3.3263,-2.8831 -4.56,-3.9 C 17.239,9.88303 15.4024,8.11348 13.8009,7.11969 12.7209,6.44956 10.3204,5.64415 9.18087,5.07969 8.22855,4.60796 6.38966,4.29906 5.40087,3.90969 4.3743,3.50544 3.5323,3.64597 2.55087,3.15969 2.20481,2.98822 1.65224,2.74142 1.47087,2.43969 1.42874,2.3696 1.45234,2.22937 1.44087,2.13969 1.3844,1.69826 1.06671,1.01136 1.20089,0.729691 Z"
         sodipodi:nodetypes="csssssssssssssssssssssssssssssssssssssssssssssssssssssssssssssssssssssssssssscc"
         style="fill:#f988aca;fill-opacity:1" /><path
         id="shape12"
         transform="matrix(0.58942491,0,0,0.58942491,469.00336,220.42996)"
         fill="#0988aca"
         fill-rule="evenodd"
         stroke-opacity="0"
         stroke="#0988aca"
         stroke-width="0"
         stroke-linecap="square"
         stroke-linejoin="bevel"
         d="m 5.98325,9.26841 c 1.25542,-0.16759 1.7264,0.04027 3.03,0.135 1.60025,0.11628 2.69585,0.4728 4.94995,0.77999 1.5017,0.2046 3.6026,1.0911 5.04,1.605 2.2164,0.7924 5.3174,2.1538 7.56,2.88 1.543,0.4997 3.5427,0.6232 5.085,1.125 1.2954,0.4214 3.0423,0.936 4.365,1.26 1.2565,0.3078 2.9497,0.6832 4.23,0.855 1.191,0.1598 2.8024,0.2125 4.005,0.27 1.1105,0.0532 2.5958,0.0365 3.705,0.105 0.7576,0.0468 1.7789,0.093 2.52,0.24 0.6613,0.1311 1.6244,0.2965 2.16,0.66 0.4556,0.3092 0.8953,1.0152 1.2,1.5 0.5278,0.8398 1.1481,2.0567 1.44,3 0.6923,2.2372 0.9031,5.452 1.2,7.8 0.2972,2.35 0.5029,5.5071 0.78,7.86 0.187,1.5874 0.4676,3.7018 0.72,5.28 0.1416,0.8853 0.3511,2.0638 0.54,2.94 0.7444,3.4519 1.8718,8.033 2.835,11.43 0.568,2.0034 1.4955,4.6258 2.115,6.615 0.6502,2.0876 1.4349,4.8974 2.115,6.975 0.4807,1.4686 1.1821,3.4074 1.71,4.86 0.2757,0.7588 0.697,1.7525 0.945,2.52 0.52,1.6094 0.9783,3.8307 1.485,5.445 0.5661,1.8035 1.3703,4.2053 2.115,5.94 0.4469,1.0409 1.3304,2.3147 1.71,3.375 0.2498,0.6976 0.3158,1.7207 0.54,2.43 0.2853,0.9025 0.7845,2.0812 1.215,2.9246 0.4448,0.872 1.159,1.979 1.71,2.79 0.3789,0.558 0.818,1.457 1.35,1.8 0.1962,0.127 0.5762,0.207 0.81,0.18 0.3232,-0.037 0.8376,-0.254 1.035,-0.495 0.7268,-0.887 0.71,-2.87 1.035,-4.095 0.5427,-2.0445 1.3378,-4.7521 1.89,-6.7946 0.3606,-1.3339 0.8105,-3.1208 1.17,-4.455 0.2769,-1.0278 0.7231,-2.3808 0.945,-3.42 0.2989,-1.3998 0.5648,-3.3009 0.72,-4.725 0.1332,-1.2228 0.1194,-2.8751 0.27,-4.095 0.2216,-1.7946 0.8655,-4.1449 1.08,-5.94 0.2483,-2.0773 0.2696,-4.8834 0.405,-6.975 0.1225,-1.8908 0.3099,-4.4104 0.45,-6.3 0.1302,-1.7553 0.4177,-4.0931 0.45,-5.85 0.0249,-1.3485 -0.1881,-3.1504 -0.18,-4.5 0.0079,-1.2964 0.2018,-3.0232 0.225,-4.32 0.0451,-2.5095 0.066,-5.8719 -0.135,-8.37 -0.06,-0.7464 -0.058,-1.7185 -0.27,-2.43 -0.2355,-0.7904 0.0137,-1.6372 -0.0562,-2.43 -0.0599,-0.6794 -0.2146,-1.605 -0.2588,-2.295 -0.0285,-0.4445 -0.2139,-1.1251 -0.045,-1.485 0.2661,-0.5669 1.2238,-1.1562 1.845,-1.44 0.7426,-0.3392 2.0962,-0.6059 2.88,-0.9 1.7344,-0.6509 4.4847,-1.2299 5.925,-1.68 0.4827,-0.1508 4.3268,-1.4977 4.8298,-1.56 0.936,-0.1157 2.167,-0.5295 3.06,-0.855 1.07,-0.3899 2.824,-0.7382 3.885,-1.155 1.032,-0.4051 2.38,-0.8811 3.45,-1.17 1.21,-0.3267 2.522,-0.9583 3.735,-1.275 0.825,-0.2155 1.916,-0.6773 2.715,-0.975 1.019,-0.3795 2.334,-0.8826 3.33,-1.32 1.236,-0.5423 2.876,-1.2839 4.11,-1.83 1.043,-0.4614 2.445,-1.0522 3.48,-1.53 1.107,-0.51093 2.578,-1.20883 3.66,-1.76999 0.84,-0.43559 1.967,-1.01768 2.76,-1.53 0.48,-0.30976 1.129,-0.72132 1.215,-1.14 0.06,-0.28906 -0.063,-0.89507 -0.345,-1.14 -0.79,-0.68575 -2.354,-1.16305 -3.42,-1.38 -2.411,-0.4907 -5.838,-0.42626 -8.34,-0.42 -2.349,0.00587 -5.391,-0.07369 -7.74,0 -1.584,0.04971 -3.788,0.23976 -5.37,0.255 -1.162,0.01119 -2.712,0.05981 -3.87,0.135 -1.937,0.12578 -3.969,0.3791 -5.91,0.57 -1.211,0.11913 -4.2837,0.46926 -5.4898,0.63 -2.2656,0.30193 -3.9167,0.20533 -5.64,0.45 -1.2231,0.17365 -9.5436,0.67432 -10.32,0.9 -0.7716,0.22427 -4.7314,0.44455 -5.52,0.54 -1.6966,0.20535 -4.0319,-0.17769 -5.76,-0.18 -1.8899,-0.00253 -4.4099,0.12966 -6.3,0.18 -1.4579,0.03882 -3.8545,-0.08327 -5.295,-0.225 -0.8928,-0.08785 -2.8073,-0.34272 -3.69,-0.51 -0.8088,-0.1533 -2.9314,-0.279 -3.84,-0.435 -0.5884,-0.10103 -3.4046,-0.32477 -5.115,-0.285 -1.2057,0.02803 -2.8141,0.02146 -4.02,0.015 -1.4041,-0.00752 -3.2759,-0.0885 -4.68,-0.12 -0.9359,-0.021 -2.1842,-0.03541 -3.12,-0.06 -1.0802,-0.02839 -2.5198,-0.11281 -3.6,-0.12 -0.8998,-0.006 -2.1,0.05888 -3,0.06 -2.1824,0.0027 -5.0926,-0.08155 -7.275,-0.1275 C 20.2947,4.45857 19.1968,4.41054 18.3732,4.40841 17.678,4.40661 16.7511,4.44933 16.0557,4.45341 15.1783,4.45855 14,4.34932 13.1307,4.43091 12.6128,4.47952 10.8534,4.37678 9.03575,4.65591 7.40438,4.90643 6.06976,5.21447 5.59325,5.41341 c -0.27859,0.11631 -3.34173,1.99306 -3.54,2.22 -0.23456,0.26847 -0.36899,0.77583 -0.57,1.08 -0.10181,0.15404 -0.25217,0.45608 -0.39,0.48 -0.258003,0.04477 -0.847931,-0.33648 -0.990004,-0.6 -0.1989561,-0.36903 -0.0719747,-1.16722 0.06,-1.62 0.082098,-0.28167 0.321718,-0.63758 0.51,-0.87 0.257708,-0.31812 0.702304,-0.66502 1.020004,-0.93 0.36458,-0.30409 0.87213,-0.68597 1.26,-0.96 0.45638,-0.32244 1.05673,-0.79176 1.56,-1.02 0.57192,-0.25937 1.41904,-0.44267 2.04,-0.57 1.13562,-0.23287 2.68366,-0.46252 3.83995,-0.51 1.2553,-0.05155 2.9393,0.1785 4.2,0.21 2.3116,0.05775 5.3971,0.01091 7.71,0 1.9081,-0.009 4.452,-0.05494 6.36,-0.06 2.178,-0.00577 5.0826,0.06024 7.26,0.03 2.5387,-0.03526 5.9219,-0.19254 8.46,-0.27 1.3905,-0.04244 3.2455,-0.156 4.635,-0.135 1.3644,0.02061 3.2036,0.05279 4.545,0.27 0.7687,0.12445 4.9561,0.71385 5.835,0.735 1.2265,0.02951 2.5078,0.26284 3.735,0.33 1.3495,0.07385 6.51,-0.0654 7.32,-0.075 1.9169,-0.02273 4.2636,-0.36278 6.18,-0.405 1.4585,-0.03214 3.4685,-0.11186 4.92,-0.24 1.3561,-0.11973 3.1435,-0.28709 4.5,-0.39 2.1765,-0.16513 5.2285,-0.26613 7.41,-0.39 1.8677,-0.10606 4.229,-0.12284 6.09,-0.33 0.8918,-0.0993 2.0778,-0.26768 2.9698,-0.36 0.943,-0.097568 2.323,-0.109503 3.27,-0.150003 1.482,-0.06341 3.348,-0.059763 4.83,-0.12 2.326,-0.0945 5.416,-0.47733 7.74,-0.63 2.697,-0.1771578 6.304,-0.1448754 9,-0.0899995 2.082,0.0423758 4.906,-0.1709395 6.93,0.2699995 1.499,0.326467 3.572,0.919893 4.86,1.710003 0.685,0.41977 1.734,1.19908 1.98,1.89 0.261,0.7326 0.017,2.15551 -0.36,2.88 -0.678,1.30414 -2.56,2.69694 -3.87,3.50999 -1.357,0.8427 -3.533,1.3733 -5.04,1.98 -2.167,0.8727 -5.033,2.0958 -7.2,2.97 -2.934,1.1837 -6.833,2.8022 -9.81,3.87 -2.803,1.0058 -6.607,2.1679 -9.45,3.06 -2.127,0.6674 -4.95,1.6204 -7.1098,2.16 -1.8933,0.473 -3.3877,0.7691 -5.22,1.395 -0.7926,0.2708 -2.0801,0.653 -2.52,1.26 -0.3836,0.5293 -0.3212,1.7237 -0.36,2.43 -0.0449,0.8159 0.2877,4.5759 0.405,5.49 0.2027,1.5801 0.2634,3.7334 0.225,5.355 -0.0332,1.4026 0.0765,3.2759 0.09,4.68 0.0184,1.9168 0.0411,4.4739 0,6.39 -0.0945,4.403 -0.2087,10.2913 -0.63,14.67 -0.3132,3.2566 -1.179,7.5539 -1.62,10.8 -0.421,3.0992 -0.7334,7.2704 -1.26,10.35 -0.4422,2.5863 -1.0955,6.0575 -1.89,8.55 -0.7416,2.3267 -2.0153,5.1176 -2.88,7.4096 -0.4416,1.171 -0.9453,2.743 -1.2,3.96 -0.0809,0.387 -0.3255,1.273 -0.54,1.44 -0.2554,0.2 -1.1586,-0.036 -1.56,-0.24 -1.3811,-0.699 -2.8646,-2.554 -3.84,-3.84 -1.3848,-1.825 -2.7983,-4.632 -3.78,-6.7196 -1.1292,-2.4016 -2.2293,-5.7947 -3.18,-8.28 -0.4335,-1.1334 -1.0418,-2.6343 -1.44,-3.78 -3.1273,-8.9978 -3.8559,-13.7618 -6.48,-22.92 -0.5938,-2.0726 -4.3407,-12.2469 -4.86,-14.34 -0.4499,-1.8135 -0.709,-4.1822 -1.065,-6.015 -0.2288,-1.1785 -0.6036,-2.8154 -0.615,-4.005 -0.009,-0.9527 -0.6614,-5.1058 -0.66,-6.06 0.0042,-2.7894 0.2458,-3.7287 -0.48,-6.42 -0.383,-1.4201 -0.9252,-3.6498 -1.92,-4.56 -0.6334,-0.5794 -2.084,-0.8937 -3,-0.96 -0.8491,-0.0615 -2.7923,-0.028 -3.66,0 -1.7744,0.0572 -3.6896,-0.1609 -5.46,-0.42 -2.3554,-0.3447 -5.3791,-0.8401 -7.68,-1.44 -3.2593,-0.8497 -7.3007,-2.2242 -10.5,-3.3 -1.1627,-0.391 -2.7232,-0.8865 -3.87,-1.32 -1.3806,-0.5218 -3.1333,-1.4956 -4.545,-1.89 -1.0313,-0.2881 -2.4878,-0.3827 -3.555,-0.54 C 7.89326,11.3481 6.76251,11.1082 5.9082,11.0684 5.35716,11.0427 4.51931,10.8683 4.0932,10.6484 3.78509,10.4894 3.29869,10.3321 3.3432,10.0334 3.3964,9.67651 5.33075,9.36082 5.98325,9.26841 Z"
         sodipodi:nodetypes="csssssssssssssssssssssssssssssssssssssssssssssssssssssssssssssssssssssssssssssssssssssssssssssssssssssssssssssssssssssssssssssssssssssssssssssssssssssssssssssssssssssssscc"
         style="fill:#f988aca;fill-opacity:1" /><path
         id="shape13"
         transform="matrix(0.58942491,0,0,0.58942491,565.25234,218.94297)"
         fill="#988aca"
         fill-rule="evenodd"
         stroke-opacity="0"
         stroke="#988aca"
         stroke-width="0"
         stroke-linecap="square"
         stroke-linejoin="bevel"
         d="M 0.00269724,11.0487 C -0.0664503,10.9631 1.21101,9.51733 1.8702,9.0687 c 1.17382,-0.79887 3.1431,-1.27792 4.5,-1.8 2.52517,-0.97159 5.8621,-2.40422 8.46,-3.1275 2.4149,-0.67233 5.751,-1.18972 8.235,-1.575 1.6314,-0.25303 3.8428,-0.36805 5.4675,-0.6525 1.881,-0.32931 4.3242,-1.163852 6.21,-1.439998 1.5873,-0.232431 3.747,-0.278969 5.355,-0.3375 3.4325,-0.1249353 8.0167,-0.1077658 11.4525,-0.1125 1.9103,-0.0026322 4.4573,0.0499927 6.3675,0.045 1.6471,-0.004305 3.8432,-0.0789996 5.49,-0.06750004 3.5982,0.02512674 8.4003,0.11942604 11.9925,0.31499904 2.3977,0.130538 5.5819,0.567673 7.98,0.66 1.6173,0.062269 3.7818,-0.079381 5.4,-0.03 1.2163,0.037118 2.8337,0.225899 4.05,0.269999 1.5193,0.05509 3.549,0.01993 5.07,0.03 2.4568,0.01627 5.8268,-0.419992 8.1898,0.06 0.745,0.15134 1.641,0.82087 2.385,0.99 0.975,0.22136 2.362,0.15831 3.375,0.18 2.577,0.05517 6.021,-0.17666 8.595,-0.09 2.082,0.07008 4.855,0.3427 6.93,0.54 1.325,0.12596 3.102,0.26321 4.41,0.495 1.065,0.1887 2.509,0.46608 3.51,0.855 0.536,0.20814 1.214,0.6105 1.695,0.93 0.458,0.30352 1.248,0.69453 1.44,1.14 0.183,0.42361 0.023,1.2645 -0.15,1.74 -0.315,0.86788 -1.25,1.85014 -1.83,2.61 -1.026,1.346 -2.486,3.0747 -3.6,4.35 -0.821,0.9399 -1.921,2.1969 -2.82,3.06 -2.482,2.3837 -6.134,5.2057 -8.76,7.44 -1.342,1.1418 -3.109,2.6907 -4.47,3.81 -1.162,0.9563 -2.84,2.0897 -3.93,3.12 -1.029,0.973 -2.156,2.5259 -3.15,3.54 -0.935,0.9541 -2.263,2.1504 -3.27,3.03 -1.193,1.0429 -2.853,2.3557 -4.08,3.36 -5.2091,4.2637 -11.9196,10.2882 -17.4073,14.16 -1.0173,0.7177 -2.5108,1.4778 -3.555,2.16 -1.1312,0.7392 -2.5775,1.8192 -3.69,2.5875 -1.0075,0.6957 -2.3504,1.6249 -3.375,2.295 -1.1141,0.7287 -2.6127,1.6834 -3.7575,2.3625 -1.3562,0.8046 -3.2305,1.7658 -4.59,2.565 -0.93,0.5467 -2.145,1.3182 -3.06,1.89 -1.1784,0.7363 -2.7986,1.6536 -3.915,2.475 -0.4771,0.351 -1.044,0.9118 -1.5075,1.2825 -1.7287,1.3823 -4.2119,3.0076 -5.9025,4.4325 -0.8408,0.7087 -1.895,1.7382 -2.67,2.52 -0.4749,0.4792 -1.1436,1.1037 -1.53,1.65 -0.2327,0.3291 -0.713,0.9209 -0.63,1.2 0.0905,0.3042 0.8758,0.5922 1.29,0.72 1.2246,0.3778 3.0452,0.2708 4.35,0.39 1.1612,0.1061 2.7145,0.2102 3.87,0.36 1.4106,0.1829 3.2855,0.4988 4.68,0.78 0.879,0.1773 2.0256,0.5616 2.91,0.69 1.4395,0.209 3.4024,0.1825 4.86,0.27 1.1163,0.067 2.6047,0.159 3.72,0.24 2.8412,0.2065 6.6456,0.3859 9.465,0.765 1.2237,0.1646 2.8255,0.6117 4.05,0.765 1.5003,0.1878 3.527,0.2953 5.04,0.315 1.484,0.0193 3.4647,-0.1351 4.95,-0.18 1.1203,-0.0339 2.6144,-0.0851 3.735,-0.09 0.8778,-0.0038 2.0788,-0.1247 2.9248,0.045 0.561,0.1125 1.242,0.5766 1.8,0.72 0.745,0.1912 1.793,0.2518 2.565,0.315 0.982,0.0804 2.299,0.1231 3.285,0.135 0.796,0.0096 1.859,-0.0298 2.655,-0.045 0.635,-0.0121 1.481,-0.0589 2.115,-0.045 0.622,0.0136 1.463,0.0215 2.07,0.135 0.484,0.0904 1.098,0.3634 1.575,0.495 0.562,0.1549 1.316,0.3681 1.89,0.45 1.346,0.1919 3.206,0.0064 4.545,0.225 1.321,0.2155 3.031,0.828 4.32,1.215 1.615,0.4848 3.772,1.1329 5.355,1.71 1.233,0.4496 3.163,0.8209 4.05,1.665 0.685,0.6519 1.202,2.0942 1.44,3.06 0.146,0.5917 0.035,1.4518 0.09,2.0698 0.045,0.502 0.159,1.166 0.225,1.665 0.055,0.419 0.189,0.978 0.18,1.395 -0.011,0.555 0.006,1.506 -0.315,1.845 -0.728,0.77 -2.884,0.852 -4.14,0.945 -1.215,0.09 -2.865,-0.261 -4.095,-0.315 -1.334,-0.058 -3.118,-0.038 -4.455,-0.045 -1.755,-0.009 -4.095,-0.021 -5.85,0 -2.268,0.027 -5.292,0.124 -7.56,0.18 -2.106,0.052 -4.913,0.153 -7.02,0.18 -1.687,0.022 -3.937,0.013 -5.625,0 -1.714,-0.013 -4.0009,-0.111 -5.7148,-0.09 -3.8984,0.048 -9.0918,0.406 -12.99,0.525 -2.6272,0.08 -6.132,0.127 -8.76,0.18 -2.682,0.055 -6.2579,0.176 -8.94,0.18 -3.2399,0.006 -7.5602,-0.19 -10.8,-0.18 -3.1682,0.01 -7.3916,0.19 -10.56,0.24 -2.0518,0.033 -4.7882,0.076 -6.84,0.06 -2.9614,-0.023 -6.9087,-0.183 -9.87,-0.24 -1.9168,-0.037 -4.4897,0.102 -6.39,-0.09 -1.5799,-0.16 -3.6946,-0.552 -5.22,-0.99 -1.1373,-0.327 -2.5646,-1.063 -3.69,-1.44 -0.8501,-0.284 -2.18864,-0.322 -2.88003,-0.81 -0.61172,-0.431 -1.3005,-1.439 -1.53,-2.16 -0.17947,-0.564 -0.12445,-1.475 0,-2.07 0.0945,-0.4516 0.58775,-0.9939 0.63,-1.4398 0.05458,-0.576 -0.35914,-1.3793 -0.45,-1.98 -0.05251,-0.3471 -0.17192,-0.8466 -0.09,-1.17 0.2318,-0.9151 1.21297,-1.9874 1.8,-2.79 1.29983,-1.7772 3.20893,-4.0291 4.68003,-5.67 1.8592,-2.074 4.5969,-4.6061 6.48,-6.66 1.5905,-1.7348 3.5431,-4.2017 5.13,-5.94 2.1491,-2.3542 5.0841,-5.4401 7.38,-7.65 2.4506,-2.3588 5.6814,-5.6402 8.46,-7.56 1.814,-1.2533 4.5981,-2.3958 6.57,-3.42 2.9686,-1.5418 6.8753,-3.7073 9.9,-5.13 2.6255,-1.2349 6.3833,-2.3817 8.91,-3.78 1.8055,-0.9992 4.0135,-2.7129 5.67,-3.96 1.6093,-1.2116 3.7721,-2.8382 5.22,-4.23 1.0583,-1.0172 2.5357,-2.433 3.24,-3.69 0.392,-0.6995 0.7914,-1.8217 0.81,-2.61 0.0171,-0.7241 -0.2942,-1.7764 -0.63,-2.43 -0.6325,-1.2311 -1.8848,-2.9241 -3.03,-3.63 -1.5967,-0.9842 -4.4723,-1.1836 -6.42,-1.5 -2.4922,-0.4049 -5.8922,-0.8737 -8.4,-0.78 -1.3928,0.052 -3.2332,0.7751 -4.62,0.78 -1.781,0.0063 -4.1541,-0.699 -5.94,-0.96 -2.3349,-0.3413 -5.469,-0.6565 -7.8,-1.02 -3.0899,-0.4818 -7.2091,-1.1803 -10.26,-1.86 -3.0148,-0.6717 -6.9853,-1.8009 -9.96,-2.64 -2.4771,-0.6988 -5.7051,-1.9765 -8.22,-2.46 -0.4944,-0.095 -1.1847,-0.058 -1.68,-0.15 -0.5772,-0.1072 -1.5897,-0.1646 -1.89,-0.54 -0.241,-0.3013 -0.3131,-1.3387 -0.09,-1.575 0.4265,-0.4515 2.1269,-0.1206 3.015,0 1.5404,0.2093 3.521,1.0038 5.04,1.395 1.7469,0.4499 4.1007,0.9539 5.85,1.395 2.5463,0.6421 5.9075,1.6355 8.46,2.25 1.8659,0.4492 4.3646,1.0262 6.255,1.35 2.104,0.3604 4.9411,0.6706 7.065,0.9 2.2768,0.246 5.3191,0.5671 7.605,0.675 2.331,0.11 5.4511,-0.0231 7.785,0.045 1.5401,0.045 3.6084,0.062 5.13,0.27 3.2501,0.4443 7.9211,0.8824 10.71,2.385 1.003,0.5404 2.2291,1.7696 2.835,2.745 0.5659,0.9111 0.9893,2.4316 1.125,3.51 0.1942,1.5432 0.2277,3.8584 -0.315,5.265 -0.3623,0.9389 -1.4924,1.9684 -2.205,2.745 -0.8439,0.9196 -2.1048,2.0221 -3.015,2.88 -1.3416,1.2645 -3.0116,3.1236 -4.5,4.185 -2.4868,1.7733 -6.3061,3.4528 -9.06,4.83 -1.9368,0.9685 -4.5635,2.1744 -6.54,3.06 -2.0014,0.8968 -4.75,1.9214 -6.72,2.88 -1.7509,0.852 -4.083,2.0443 -5.7,3.12 -1.5087,1.0036 -3.3214,2.6418 -4.74,3.78 -1.4976,1.2016 -3.5706,2.7222 -4.98,4.02 -3.1403,2.8915 -6.8868,7.2251 -9.84,10.32 -1.9072,1.9987 -4.4667,4.6481 -6.36,6.66 -0.9252,0.9832 -2.1236,2.3277 -3.06,3.3 -0.8474,0.88 -2.0721,1.9664 -2.88,2.88 -0.619,0.7 -1.4085,1.6797 -1.92,2.46 -0.5149,0.7854 -1.2099,1.8793 -1.5,2.76 -0.2406,0.7303 -0.306,1.8023 -0.36,2.58 -0.046,0.6628 -0.0749,1.5625 0,2.2198 0.054,0.474 0.1172,1.178 0.36,1.56 0.1621,0.255 0.5588,0.521 0.84,0.66 1.0763,0.532 2.7541,0.825 3.96,1.02 1.5431,0.25 3.6602,0.194 5.22,0.36 1.753,0.187 4.0692,0.628 5.82,0.84 1.6514,0.2 3.8601,0.45 5.52,0.54 1.5983,0.087 3.7383,0.028 5.34,0.06 1.2422,0.025 2.8978,0.102 4.14,0.12 0.9538,0.014 2.2323,0.077 3.18,0 1.1054,-0.09 2.556,-0.548 3.66,-0.6 1.3069,-0.061 3.0645,0.255 4.38,0.3 2.4272,0.083 5.6713,-0.056 8.1,0 1.5669,0.036 3.6537,0.232 5.22,0.24 2.0516,0.011 4.7874,-0.204 6.84,-0.24 1.5835,-0.028 3.696,0 5.28,0 1.422,0 3.318,0.006 4.74,0 2.1511,-0.009 5.019,-0.051 7.17,-0.06 2.322,-0.01 5.4183,0.024 7.74,0 2.6458,-0.027 6.1738,-0.142 8.8198,-0.18 3.213,-0.046 7.497,-0.076 10.71,-0.09 2.646,-0.011 6.174,-0.025 8.82,0 1.404,0.014 3.276,0.093 4.68,0.09 1.161,-0.002 2.718,-0.178 3.87,-0.09 0.762,0.059 1.902,0.683 2.52,0.45 0.418,-0.157 0.918,-0.888 1.08,-1.35 0.321,-0.913 0.222,-2.444 0,-3.42 -0.148,-0.654 -0.533,-1.6054 -0.99,-2.0698 -1,-1.0183 -3.105,-1.6848 -4.5,-2.25 -2.067,-0.8378 -4.929,-1.817 -7.11,-2.25 -3.698,-0.7343 -8.831,-0.6588 -12.6,-1.08 -3.141,-0.351 -7.296,-1.1312 -10.44,-1.44 -0.914,-0.0898 -2.142,-0.1758 -3.0598,-0.18 -3.806,-0.0174 -8.9508,1.0478 -12.69,0.63 -1.1824,-0.1321 -2.6914,-0.8432 -3.87,-1.08 -1.277,-0.2565 -3.0189,-0.459 -4.32,-0.54 -1.3448,-0.0837 -3.1507,0.0321 -4.5,0 -1.7019,-0.0405 -3.9774,-0.1032 -5.67,-0.27 -1.0854,-0.107 -2.5292,-0.3309 -3.6,-0.54 -0.7898,-0.1542 -1.8204,-0.4742 -2.61,-0.63 -2.4903,-0.4916 -5.8678,-0.8526 -8.37,-1.29 -1.6618,-0.2905 -3.8672,-0.7401 -5.52,-1.08 -1.8396,-0.3783 -5.274,-0.1857 -6.12,-1.32 -0.2114,-0.2835 -0.0639,-1.16 0.12,-1.56 0.2195,-0.4772 0.9038,-0.9466 1.32,-1.32 1.7509,-1.5709 4.2664,-3.4665 6.12,-4.92 2.4249,-1.9014 5.6166,-4.5082 8.16,-6.24 2.186,-1.4885 5.2691,-3.2315 7.56,-4.56 2.4951,-1.447 5.9541,-3.157 8.4,-4.68 2.8958,-1.8031 6.5694,-4.5114 9.36,-6.48 2.3185,-1.6355 5.4497,-3.7701 7.68,-5.52 2.4386,-1.9133 5.5276,-4.6748 7.86,-6.72 2.3478,-2.0586 5.4548,-4.832 7.7398,-6.96 1.556,-1.4487 3.544,-3.4719 5.1,-4.92 1.558,-1.45 3.661,-3.3598 5.28,-4.74 1.656,-1.4108 3.932,-3.2127 5.64,-4.56 0.927,-0.7312 2.226,-1.6317 3.12,-2.4 0.887,-0.7621 2.013,-1.8532 2.82,-2.7 1.55,-1.6258 3.362,-4.0378 4.92,-5.655 0.821,-0.8517 2.389,-1.70578 2.88,-2.7 0.169,-0.34169 0.288,-1.03998 0.135,-1.35 -0.268,-0.54497 -1.37,-1.00489 -2.025,-1.26 -1.472,-0.57304 -3.681,-0.7182 -5.265,-0.99 -2.167,-0.37198 -5.058,-0.9443 -7.245,-1.125 -2.469,-0.20408 -5.796,-0.08525 -8.28,-0.09 -1.917,-0.00367 -4.478,0.13538 -6.39,0.045 -1.462,-0.06909 -3.399,-0.38999 -4.86,-0.495 C 100.707,3.35099 98.5622,3.29205 96.9552,3.2412 95.6866,3.20106 93.994,3.18386 92.7252,3.1512 82.1445,2.87888 68.0417,2.30895 57.4602,2.0862 c -3.0234,-0.06364 -7.0561,-0.12762 -10.08,-0.12 -2.1241,0.00536 -4.9671,-0.05226 -7.08,0.12 -1.9723,0.1608 -4.5694,0.75463 -6.54,0.96 -2.3119,0.24094 -5.4651,0.07265 -7.74,0.48 -1.7094,0.30611 -3.9198,1.13401 -5.58,1.68 -1.7788,0.58501 -4.1129,1.47864 -5.88,2.1 -0.9344,0.32857 -2.168,0.81318 -3.12,1.08 -1.3896,0.38946 -3.29226,0.73769 -4.70998,1.02 -1.33206,0.26526 -3.12371,0.54116 -4.455,0.81 -0.60989,0.1232 -2.1878854,0.9373 -2.27252276,0.8325 z"
         sodipodi:nodetypes="csssssssssssssssssssssssssssssssssssssssssssssssssssssssssssssssssssssssssssssssssssssssssssssssssssssssssssssssssssssssssssssssssssssssssssssssssssssssssssssssssssssssssssssssssssssssssssssssssssssssssssssssssssssssssssssssssssssssssscc"
         style="fill:#f988aca;fill-opacity:1" /></g></g></svg>
