<?xml version="1.0" standalone="no"?>
<!DOCTYPE svg PUBLIC "-//W3C//DTD SVG 20010904//EN" "http://www.w3.org/TR/2001/REC-SVG-20010904/DTD/svg10.dtd">
<!-- Created using Krita: https://krita.org -->
<svg xmlns="http://www.w3.org/2000/svg" 
    xmlns:xlink="http://www.w3.org/1999/xlink"
    xmlns:krita="http://krita.org/namespaces/svg/krita"
    xmlns:sodipodi="http://sodipodi.sourceforge.net/DTD/sodipodi-0.dtd"
    width="720pt"
    height="720pt"
    viewBox="0 0 720 720">
<defs/>
<path id="shape0" transform="matrix(0.589424909559736 0 0 0.589424909559736 33.8883103242991 218.068016032131)" fill="#00426b" fill-rule="evenodd" stroke-opacity="0" stroke="#000000" stroke-width="0" stroke-linecap="square" stroke-linejoin="bevel" d="M67.4759 25.7706C68.2947 26.2523 72.4954 22.3356 74.2559 20.4906C75.8435 18.8269 77.5499 16.1568 78.7259 14.1606C79.1709 13.4054 79.7087 12.3446 80.0009 11.5206C80.4111 10.364 80.7891 8.73343 80.9459 7.51562C81.0163 6.96943 81.1303 6.18252 80.9909 5.67062C80.727 4.70081 79.8819 3.39947 79.1459 2.70062C78.2048 1.8069 76.4872 0.912746 75.2309 0.540618C73.4691 0.0186996 70.8982 0.0114971 69.0209 0.000618377C66.3355 -0.0149443 63.8209 0.26592 61.1459 0.540618C58.9088 0.770363 54.9242 1.73527 52.7759 2.34062C50.1267 3.08715 46.6524 4.28609 44.0909 5.35562C41.6435 6.37752 38.3185 7.59892 35.9009 8.68562C33.6777 9.68497 30.774 11.1597 28.6109 12.2856C25.9945 13.6475 23.2566 15.2419 20.8259 16.8906C19.6041 17.7194 17.1344 19.0527 15.9959 20.0031C14.3134 21.4078 11.4989 23.2047 10.0194 24.5063C7.56244 26.4566 5.32665 28.77 3.63594 30.6306C2.6722 31.6912 1.51094 33.2399 0.935936 34.5306C0.459297 35.6005 0.186002 36.6173 0.0509363 37.8006C-0.0831484 38.9754 0.0593345 41.2778 0.339686 42.3906C0.592568 43.3944 1.10983 44.6919 1.77594 45.5106C2.98941 47.0022 4.71709 48.7233 6.27594 49.8906C7.76291 51.0042 10.2608 52.3002 11.9159 53.1306C14.9734 54.6646 19.3618 56.1929 22.6559 57.1506C24.7872 57.7702 27.7366 58.2278 29.9159 58.6806C32.1556 59.146 35.1392 59.7815 37.3859 60.2106C39.5135 60.6169 42.3834 61.0006 44.4959 61.4706C46.3226 61.877 48.7128 62.6205 50.5259 63.0906C50.7414 63.1465 51.2145 63.2224 51.5047 63.4019C51.7164 63.5328 49.2521 64.8642 48.2759 65.2731C47.2997 65.682 45.8328 66.5558 44.6759 67.1106C42.789 68.0156 40.1821 69.5648 38.3534 70.5606C34.897 72.4428 30.513 75.5337 27.5159 78.0906C25.5885 79.735 24.4907 80.6497 22.7759 82.5306C22.1829 83.1811 20.3761 85.8577 19.9559 86.6106C19.4696 87.482 18.884 88.924 18.6359 89.9106C18.2836 91.3119 17.8192 92.9846 17.7959 94.4106C17.7772 95.5594 17.9788 97.1921 18.3959 98.2506C18.855 99.4155 19.8903 100.922 20.7959 101.791C21.9312 102.879 23.8765 104.069 25.3559 104.611C27.3813 105.352 30.4265 105.742 32.6159 105.871C35.5346 106.042 39.4743 105.631 42.3959 105.391C45.3605 105.147 49.329 104.501 52.2359 103.891C55.2161 103.265 59.1216 102.216 62.0159 101.251C64.8995 100.289 68.6819 98.8038 71.4959 97.6506C74.5525 96.3981 78.593 94.6289 81.5759 93.2106C83.9668 92.0738 87.1506 90.5214 89.4359 89.1906C90.8489 88.3678 92.6709 87.15 93.9959 86.1906C96.0795 84.682 98.9161 82.6668 100.716 80.8506C101.514 80.0456 102.556 78.8516 103.056 77.8506C103.57 76.8205 104.04 75.4916 104.256 74.3406C104.442 73.3472 104.431 71.5227 104.121 70.6656C103.592 69.2019 102.322 67.3767 101.031 66.2256C100.077 65.3751 98.0838 64.5756 96.9959 63.9306C95.6087 63.1082 93.495 62.4846 91.9559 61.9506C90.5585 61.4658 88.6376 60.9856 87.2159 60.5706C85.7396 60.1397 84.6577 59.9499 83.1509 59.7156C82.41 59.6004 80.5216 59.1679 79.7759 59.0706C79.3196 59.0111 78.528 58.9944 78.2759 58.7106C78.1081 58.5217 78.065 57.9525 78.1559 57.6906C78.4264 56.9115 79.9995 56.1742 80.7359 55.6506C82.2304 54.5881 84.2431 53.5617 85.8959 52.7106C89.6976 50.7531 90.6804 49.9851 94.3859 47.8506C96.1911 46.8108 102.467 43.2601 104.346 42.3906C104.5 42.3194 104.724 42.2116 104.886 42.2106C104.998 42.2099 105.153 42.2839 105.261 42.3306C105.472 42.4222 105.809 42.5363 105.936 42.7056C106.105 42.9314 106.11 43.4064 106.161 43.7106C106.233 44.1388 106.273 44.7191 106.326 45.1506C106.738 48.4842 107.753 52.9002 108.396 56.1906C108.834 58.4316 109.182 61.4065 109.716 63.6306C110.185 65.5838 110.744 68.2044 111.156 70.1706C111.818 73.3319 112.663 77.5558 113.256 80.7306C113.793 83.6044 114.279 86.7307 114.486 88.2456C114.652 89.4601 115.703 98.2773 116.106 99.4506C116.431 100.398 116.655 101.776 117.216 102.571C117.587 103.096 118.315 103.836 118.896 104.011C119.658 104.24 121.099 104.064 121.776 103.651C122.522 103.195 123.021 101.908 123.351 101.011C123.625 100.266 123.714 99.211 123.876 98.4906C123.999 97.9423 124.168 97.0716 124.236 96.4956C124.303 95.9235 124.57 95.4535 124.656 94.8906C124.746 94.3009 125.063 93.5422 125.256 92.9706C125.526 92.1724 125.885 91.1045 126.216 90.3306C127.428 87.4921 128.237 84.5675 129.426 81.7206C130.231 79.7914 131.819 76.1961 132.516 74.2206C133.47 71.5144 135.03 68.0919 136.026 65.4006C137.362 61.7889 138.941 57.6878 140.316 54.0906C140.674 53.1539 141.223 51.0572 141.516 50.1006C141.866 48.9553 142.45 47.4675 142.686 46.2906C142.876 45.3422 143.265 44.2276 143.496 43.2906C143.704 42.4473 144.097 41.3288 144.306 40.4856C144.459 39.8668 144.633 39.0576 144.756 38.4306C144.828 38.0644 144.839 37.5132 145.026 37.2156C145.147 37.024 145.483 36.7036 145.656 36.7206C145.835 36.7382 146.111 37.1317 146.196 37.3506C146.343 37.7307 146.223 38.3588 146.241 38.7906C146.285 39.871 146.416 41.3104 146.421 42.3906C146.426 43.6864 146.292 45.4145 146.241 46.7106C146.113 49.9503 145.842 54.2704 145.836 57.5106C145.833 59.1035 145.94 61.2286 146.016 62.8206C146.121 65.036 146.219 67.9992 146.466 70.2006C146.652 71.8571 146.923 74.0915 147.366 75.6906C147.89 77.5833 148.841 80.1011 149.796 81.8106C150.953 83.8808 152.903 86.5121 154.566 88.2006C156.011 89.6682 158.253 91.4465 160.056 92.4306C161.1 93.0006 162.668 93.6169 163.836 93.7806C165.463 94.0087 167.858 93.9041 169.416 93.4206C170.934 92.9495 173.108 91.693 174.411 90.7206C175.904 89.6067 177.721 87.7955 178.956 86.4006C180.512 84.6423 181.965 82.0955 183.006 80.0106C184.004 78.0116 184.975 74.9253 185.436 72.7206C185.99 70.0743 186.423 66.5176 186.516 63.8106C186.627 60.552 186.493 56.189 186.426 52.9206C186.37 50.2218 186.239 46.6094 186.066 43.9206C185.971 42.4565 185.976 40.477 185.818 39.0156C185.717 38.0728 185.45 36.7898 185.166 35.9106C185.024 35.4728 184.644 34.9301 184.356 34.5606C184.099 34.232 183.501 33.9287 183.366 33.5706C183.226 33.2016 182.983 32.3134 183.156 31.9506C183.346 31.5502 183.872 30.8596 184.266 30.6006C184.704 30.3122 185.737 30.4284 186.246 30.3306C186.918 30.2015 187.895 30.3184 188.586 30.4206C189.217 30.5139 190.252 30.5727 190.656 30.9606C191.296 31.5749 191.464 33.2076 191.646 34.2006C191.937 35.787 192.144 37.9825 192.276 39.6006C192.436 41.5739 192.519 44.1953 192.636 46.1706C192.776 48.5415 192.801 51.7144 192.816 54.0906C192.832 56.7363 193.074 60.2807 193.266 62.9106C193.518 66.3607 193.76 70.891 193.986 74.3406C194.125 76.461 194.558 79.3318 194.706 81.4506C194.843 83.4077 195.05 85.9967 195.426 87.9306C195.948 90.6176 196.528 94.2644 197.406 96.8406C198.27 99.3748 199.297 102.631 200.616 104.971C201.251 106.098 202.127 108.648 203.136 109.171C204.199 109.722 206.849 109.062 208.176 108.811C210.33 108.403 213.113 107.599 215.226 106.921C218.642 105.824 223.173 104.147 226.566 102.991C229.39 102.028 233.223 99.9276 235.896 98.6106C238.812 97.1739 242.652 94.7353 245.346 92.9106C248.654 90.6697 252.74 87.8489 255.816 85.2906C257.393 83.9791 259.547 82.2445 260.916 80.7306C262.385 79.1053 264.285 76.7409 265.236 74.7906C266.084 73.0508 266.745 70.4182 267.036 68.4906C267.289 66.8133 267.363 64.4707 267.156 62.7906C266.858 60.3715 265.916 57.1362 264.996 54.8706C264.308 53.1771 263.137 50.9422 262.026 49.5006C260.493 47.5118 257.925 45.1542 256.026 43.4706C253.831 41.5251 250.713 39.1681 248.346 37.4406C246.299 35.9464 243.44 34.1019 241.236 32.8506C238.804 31.4699 235.44 29.8049 232.866 28.7106C230.81 27.8366 228.407 27.1371 226.236 26.7906C224.375 26.4936 221.313 26.2236 219.396 26.1306C217.835 26.0549 216.79 26.0601 215.555 26.0317C214.401 26.0052 213.057 26.0422 211.596 26.0706C209.516 26.1111 206.321 26.2615 204.246 26.4006C203.678 26.4387 201.524 26.8679 200.976 27.0006C200.137 27.204 198.69 27.6616 197.856 27.9006C196.833 28.1938 195.407 28.4658 194.346 28.5306C192.898 28.6191 190.945 28.3011 189.486 28.2606C188.38 28.2299 186.883 28.115 185.796 28.2606C184.889 28.3821 183.478 28.5361 182.826 29.0706C182.229 29.5598 181.815 30.7942 181.566 31.5906C181.173 32.8498 181.059 34.6715 180.936 36.0006C180.704 38.5001 180.725 41.8621 180.576 44.3706C180.449 46.5057 180.236 49.3512 180.036 51.4806C179.787 54.1311 179.734 57.7363 179.586 60.3906C179.511 61.7364 179.42 63.4982 179.361 64.8456C179.293 66.3876 178.968 68.4511 178.596 69.9306C178.151 71.7029 177.782 73.9927 176.886 75.6006C175.976 77.2342 175.452 79.0893 174.276 80.5506C173.702 81.2635 172.248 82.6308 171.576 83.2506C170.773 83.9916 169.375 84.6726 168.396 85.0506C167.743 85.3026 165.916 85.4002 165.186 85.4106C163.999 85.4275 161.322 84.5439 160.386 84.0306C158.982 83.2611 157.905 81.9427 156.966 80.4306C156.043 78.9448 155.411 77.0211 154.716 75.4206C153.97 73.7045 153.554 71.1299 153.216 69.3006C152.769 66.8792 152.712 63.5037 152.586 61.0206C152.42 57.7524 152.14 53.4003 152.046 50.1306C151.917 45.6793 152.159 39.7328 152.046 35.2806C151.965 32.0791 152.031 27.7542 151.506 24.6156C151.402 23.9961 151.209 23.1391 150.921 22.5906C150.659 22.0914 150.104 21.5188 149.706 21.1056C149.494 20.8859 149.206 20.5019 148.941 20.4306C148.762 20.3826 148.452 20.4871 148.266 20.5656C147.985 20.6838 147.603 20.921 147.411 21.1506C147.064 21.5658 146.841 22.3347 146.646 22.8606C146.251 23.9279 145.824 25.3968 145.566 26.5056C145.349 27.4378 145.241 28.7228 145.026 29.6556C144.56 31.68 143.635 34.3078 143.091 36.3156C142.05 40.1578 140.958 45.3637 139.851 49.1856C139.333 50.9724 138.55 53.3317 137.916 55.0806C137.431 56.4186 136.687 58.1675 136.161 59.4906C134.887 62.6943 133.232 66.9841 131.916 70.1706C131.079 72.1977 129.928 74.8872 129.036 76.8906C128.286 78.5752 127.244 80.8032 126.456 82.4706C125.961 83.5187 125.384 84.9711 124.776 85.9506C124.561 86.2974 124.267 86.8844 123.936 87.0306C123.747 87.1142 123.321 87.0864 123.156 86.9706C122.696 86.6486 122.456 85.6073 122.256 84.9906C121.868 83.7928 121.644 82.0971 121.416 80.8506C121.154 79.4157 120.871 77.4905 120.636 76.0506C120.152 73.0803 119.232 69.1929 118.656 66.2406C118.189 63.8503 117.518 60.8122 116.856 58.4706C116.309 56.5342 115.589 53.8103 115.056 51.8706C114.482 49.7807 113.939 47.7514 113.196 45.7356C112.873 44.8607 112.428 43.0956 112.191 42.2106C112.019 41.568 111.846 40.3954 111.996 39.7506C112.166 39.0223 112.67 37.9855 113.196 37.4706C113.853 36.8272 115.328 36.0352 116.196 35.6106C119.978 33.7601 124.775 31.4545 128.496 29.4906C130.591 28.3847 133.383 26.7222 135.396 25.4706C136.938 24.5114 138.942 23.4449 140.436 22.4106C141.602 21.6031 143.585 20.7146 144.786 19.9656C145.754 19.3619 146.855 18.7037 147.816 18.0906C148.27 17.8011 149.247 16.647 149.481 16.2156C149.605 15.9863 149.928 15.0912 149.927 14.4231C149.926 13.8317 149.568 13.3319 149.496 13.0506C149.415 12.7371 149.142 12.3015 148.896 12.0906C148.697 11.9204 148.319 11.7918 148.056 11.7306C147.399 11.5777 146.457 11.5815 145.776 11.6106C144.475 11.6662 142.752 12.0322 141.456 12.2106C140.664 12.3196 139.716 12.5268 138.936 12.6906C138.168 12.8517 137.138 13.1513 136.386 13.3806C135.047 13.789 133.307 14.3649 131.968 14.7756C130.607 15.1933 128.88 15.7849 127.521 16.2081C125.999 16.6817 123.806 17.4065 122.256 17.7306C119.55 18.2967 115.793 18.4874 113.016 18.5706C110.68 18.6406 107.554 18.4381 105.216 18.3306C103.451 18.2494 101.098 17.9481 99.3359 17.9706C98.5071 17.9812 97.3507 17.9684 96.5759 18.2106C96.3054 18.2952 95.9879 18.5466 95.7359 18.6906C95.4839 18.8346 95.0219 18.9535 94.8959 19.1706C94.7084 19.4938 94.7071 20.2897 94.8959 20.6106C95.0579 20.8859 95.6568 21.0224 95.9759 21.2106C96.2684 21.3831 96.6663 21.6064 96.9359 21.8106C97.3608 22.1324 97.8838 22.6274 98.2559 23.0106C98.7175 23.4859 99.3476 24.1342 99.6959 24.6906C100.17 25.4474 100.584 26.6047 100.896 27.4506C101.194 28.2615 101.586 29.3548 101.916 30.1506C102.149 30.7134 102.444 31.4541 102.696 32.0106C102.949 32.57 103.368 33.341 103.416 33.9306C103.459 34.4584 103.345 35.317 103.056 35.7306C102.657 36.301 101.689 37.0641 101.016 37.4106C99.6284 38.1246 97.9957 38.9147 96.5759 39.5706C94.6768 40.4479 92.0702 41.7206 90.2159 42.6906C87.4898 44.1167 83.8374 46.1017 81.1559 47.6106C78.4009 49.1608 75.7893 50.9371 73.1159 52.6206C71.6045 53.5724 68.439 55.1431 66.8159 55.7706C65.3966 56.3193 63.2939 56.1923 61.7684 56.0856C60.7453 56.0141 57.3723 55.2628 53.3009 54.3831C50.4074 53.7579 40.0213 51.7465 33.8759 50.4606C31.1118 49.8822 28.75 49.3713 26.0459 48.5406C23.9492 47.8965 21.1452 47.085 19.1159 46.2606C17.2061 45.4848 14.6248 44.4042 12.9059 43.2906C11.9334 42.6605 10.3301 41.7306 9.93594 40.7706C9.62508 40.0135 9.884 38.959 10.2659 38.1906C11.2324 36.2461 15.4267 32.639 16.7459 31.5906C18.1742 30.4555 25.5605 25.2178 30.0359 22.5906C32.9839 20.8601 37.3559 18.9244 40.3859 17.3406C42.2689 16.3564 45.0383 15.3718 46.9709 14.4906C48.4073 13.8357 50.3111 13.0711 51.8009 12.5556C53.3209 12.0297 55.3593 11.2921 56.9159 10.8756C58.3835 10.483 60.4829 10.0299 61.9709 9.73562C63.3061 9.47154 64.9159 9.32519 66.2609 9.10562C67.2772 8.93971 68.7694 8.71092 69.7859 8.68562C70.5793 8.66587 71.7585 8.70744 72.4409 9.04562C72.7327 9.1902 73.1081 9.56362 73.2509 9.85562C73.3866 10.1331 73.4173 10.6187 73.3859 10.9356C73.3531 11.2671 73.1538 11.6997 73.0259 12.0156C72.8857 12.3619 72.6338 12.797 72.4859 13.1406C72.2919 13.5916 72.1071 14.2258 71.9009 14.6706C71.6424 15.2284 71.217 15.9358 70.9109 16.4706C70.5832 17.0432 70.0947 17.7784 69.7859 18.3606C69.5627 18.7816 69.292 19.3598 69.1109 19.8006C68.9424 20.2109 68.7496 20.7724 68.6159 21.1956C68.54 21.436 68.4434 21.7594 68.3909 22.0056C68.3341 22.2721 68.3287 22.6446 68.2559 22.9056C68.1624 23.2412 67.9196 23.6543 67.8059 23.9856C67.7062 24.2762 67.5764 24.6732 67.5359 24.9756C67.5128 25.148 67.352 25.6977 67.4759 25.7706Z" sodipodi:nodetypes="cssssssssssssssscssssssssssssszssssssssssssssssssssssssssssssssssssssssssssssssssssssssssssssssssssssssssssssssssssssssssssssssssssssssssssssssssssssssssscssssssssssssssssssssssssssssssssssssssssssssssssssssssssssssssscsssssssssssssssssssssssssssssssssssssssssssssssssssssssssssssscc"/><path id="shape1" transform="matrix(0.589424909559736 0 0 0.589424909559736 49.6242279751414 256.84183373771)" fill="#ffffff" fill-rule="evenodd" stroke-opacity="0" stroke="#000000" stroke-width="0" stroke-linecap="square" stroke-linejoin="bevel" d="M8.67886 16.6882C12.909 13.4875 18.9433 9.62582 23.4839 6.84816C26.9806 4.70907 31.7473 1.37693 35.5589 0.428162C39.8813 -0.64776 46.4395 0.574339 51.0389 1.14816C54.2379 1.54728 58.4843 2.10313 61.5989 2.94816C63.3204 3.41525 66.1843 4.07116 67.2389 5.22816C67.4682 5.47975 67.7566 5.89328 67.895 6.3649C68.0862 7.01639 68.073 7.7651 67.9589 8.22816C67.6335 9.5484 65.7813 11.1378 64.5989 12.0682C59.6734 15.9436 51.5947 19.3805 45.7589 21.9082C39.9653 24.4175 31.9524 27.3251 25.8389 28.8682C21.6491 29.9256 16.3191 30.9242 12.0089 31.3282C9.50412 31.5629 5.50722 32.0091 3.27886 31.2382C2.03623 30.8082 0.504979 29.5159 0.151363 28.3882C-0.22429 27.1901 0.126672 25.345 0.901363 24.1507C1.65141 22.9943 3.01323 21.4339 4.3923 20.181C5.76968 18.9297 7.23136 17.7834 8.67886 16.6882Z" sodipodi:nodetypes="cssssscsssssssccc"/><path id="shape2" transform="matrix(0.589424909559736 0 0 0.589424909559736 94.5766584386397 227.921216600072)" fill="#ffffff" fill-rule="evenodd" stroke-opacity="0" stroke="#000000" stroke-width="0" stroke-linecap="square" stroke-linejoin="bevel" d="M0.033969 4.29898C0.409343 3.65702 3.30977 4.19594 4.71396 4.16398C6.33374 4.12712 8.49431 4.11493 10.114 4.07398C11.7073 4.0337 13.8354 4.00899 15.424 3.89398C16.886 3.78813 18.8469 3.62636 20.284 3.35398C21.2977 3.16184 22.6164 2.72927 23.614 2.45398C25.5338 1.92417 28.0839 1.18286 30.004 0.653982C30.7048 0.460924 31.631 0.085572 32.344 0.0239821C32.6364 -0.0012832 33.1383 -0.0409778 33.334 0.113984C33.4087 0.173138 33.4859 0.392673 33.454 0.473984C33.2698 0.942893 32.8917 2.11218 32.314 2.42398C31.4884 2.86954 30.4037 3.49982 29.554 3.89398C28.3429 4.45574 27.2907 5.4132 26.074 5.96398C24.5575 6.65045 22.6813 7.75331 21.184 8.48398C19.0059 9.54682 16.6285 10.776 14.524 11.964C13.7242 12.4154 11.6106 13.1192 10.834 13.614C10.4527 13.8569 8.94082 13.9417 8.52397 14.094C8.04525 14.2688 7.26918 13.4707 6.81397 13.344C6.16452 13.1633 5.42005 12.2959 4.92397 11.754C3.69531 10.4118 2.40345 8.2877 1.41397 6.74398C0.981188 6.06879 -0.215992 4.72647 0.033969 4.29898Z" sodipodi:nodetypes="csssssssssssssssssscc"/><path id="shape3" transform="matrix(0.589424909559736 0 0 0.589424909559736 151.000335438013 236.717267555234)" fill="#ffffff" fill-rule="evenodd" stroke-opacity="0" stroke="#000000" stroke-width="0" stroke-linecap="square" stroke-linejoin="bevel" d="M0.847305 1.57088C1.55962 1.05205 2.74249 0.574603 3.6073 0.370876C5.57552 -0.0927836 8.39542 0.00866299 10.4473 0.0108756C13.0755 0.0137097 16.6181 0.0938259 19.2073 0.490876C21.0712 0.776708 23.5106 1.5173 25.3273 2.05088C27.8379 2.78825 31.2916 3.64779 33.6073 4.81088C35.2766 5.64932 37.73 6.92551 39.3073 7.96088C41.4279 9.35288 44.0861 11.2903 46.1473 12.7609C48.038 14.1098 50.234 16.2204 51.9673 17.7709C53.4649 19.1105 55.4895 20.9122 56.7673 22.4509C57.7569 23.6426 59.0662 25.3585 59.6473 26.7709C60.2084 28.1345 60.7212 30.2466 60.6073 31.6909C60.4245 34.0097 59.1309 37.2795 57.8473 39.2509C55.6952 42.5562 51.5665 46.0849 48.4873 48.7009C44.9659 51.6925 40.0161 55.3894 36.2173 58.0309C33.4397 59.9623 29.266 62.3884 26.2873 63.9709C23.463 65.4713 19.5912 67.1194 16.6273 68.3509C14.942 69.0511 12.5547 69.9666 10.8073 70.4509C10.1443 70.6346 9.06435 71.0429 8.5273 70.8109C7.78388 70.4896 6.7989 67.8997 6.5473 67.0009C5.41976 62.9729 4.61669 56.9728 4.0873 52.5709C3.40479 46.8957 3.15806 40.2716 2.7673 34.5709C2.42506 29.578 2.34358 22.895 2.1673 17.8909C2.09375 15.8029 1.88029 12.9821 1.5673 10.9309C1.34357 9.46459 0.959139 7.58159 0.607305 6.13088C0.442633 5.45189 0.272534 4.53461 0.127305 3.85088C0.0202113 3.34668 -0.313163 2.41612 0.847305 1.57088Z" sodipodi:nodetypes="csssssssssssssssssssssssscc"/><path id="shape4" transform="matrix(0.589424909559736 0 0 0.589424909559736 192.938136829053 229.100751284184)" fill="#00426b" fill-rule="evenodd" stroke-opacity="0" stroke="#000000" stroke-width="0" stroke-linecap="square" stroke-linejoin="bevel" d="M3.79694 0.00282223C4.60811 0.191501 5.05024 3.59003 5.44694 5.16282C6.22465 8.24621 7.0112 12.4465 7.39694 15.6028C7.73202 18.3447 7.83684 22.0476 7.93692 24.8128C8.1257 30.0286 8.19935 36.9932 8.17692 42.2128C8.1562 47.0372 7.89154 53.4683 7.81692 58.2928C7.75178 62.5044 7.76171 68.1213 7.69692 72.3328C7.64707 75.5732 7.37747 79.8965 7.45692 83.1328C7.50647 85.1511 7.64567 87.8583 7.93692 89.8528C7.96084 90.0166 7.97293 90.3621 8.05694 90.3928C8.29749 90.4808 9.02002 89.7885 9.31694 89.4328C9.96075 88.6616 10.3827 87.2765 10.8769 86.3728C11.6973 84.873 12.6966 82.7709 13.7569 81.4528C13.7816 81.4221 13.8222 81.367 13.8544 81.3628C13.9131 81.3551 14.0379 81.4223 14.0682 81.4753C14.1246 81.5743 14.0667 81.7926 14.0457 81.9253C13.9773 82.3579 13.7915 82.9217 13.6632 83.3428C13.3702 84.304 12.9435 85.5775 12.5832 86.5153C12.3471 87.1297 12.0075 87.9427 11.7169 88.5328C11.4076 89.1609 10.8182 89.9234 10.5769 90.5728C10.2987 91.3217 10.1515 92.414 10.0369 93.2128C9.8219 94.712 9.96953 96.7957 9.61692 98.2528C9.40872 99.1132 8.96465 100.282 8.47692 101.013C7.86712 101.926 6.74651 103.034 5.83692 103.653C5.47031 103.902 4.87044 104.254 4.45692 104.253C3.8442 104.251 2.90437 103.769 2.41692 103.353C1.66741 102.713 1.05046 101.283 0.736922 100.338C0.164969 98.6138 0.184545 96.1068 0.136922 94.2328C0.109048 93.136 0.187922 91.6709 0.196922 90.5728C0.206068 89.4569 0.212561 87.9686 0.196922 86.8528C0.169922 84.9264 0.0714358 82.3588 0.0169219 80.4328C-0.0722376 77.2828 0.224206 73.0829 0.136922 69.9328C0.0626095 67.2509 0.301026 63.5828 0.346922 60.9028C0.447799 55.0124 0.496936 47.2643 0.676938 41.3728C0.803309 37.2367 0.639308 31.7125 0.676938 27.5728C0.703938 24.6026 0.678699 20.6353 0.856938 17.6728C0.994823 15.381 1.36574 12.3344 1.63692 10.0528C1.8427 8.32147 2.07803 6 2.41692 4.29282C2.62311 3.25415 3.02592 1.89283 3.31692 0.87282C3.38408 0.637437 3.57243 -0.0493982 3.79694 0.00282223Z" sodipodi:nodetypes="cssssssssssssssssssssssssssssssssssssscc"/><path id="shape5" transform="matrix(0.589424909559736 0 0 0.589424909559736 197.131876397679 232.432625665904)" fill="#00426b" fill-rule="evenodd" stroke-opacity="0" stroke="#000000" stroke-width="0" stroke-linecap="square" stroke-linejoin="bevel" d="M0.00445314 18.4476C-0.0854263 18.2352 1.20516 17.2385 2.07445 16.6701C3.79248 15.5466 8.11395 13.4313 9.93445 12.4851C11.5029 11.6699 14.4054 10.2132 16.032 9.51506C18.237 8.56867 20.1853 7.7894 22.422 6.92007C24.4973 6.11344 27.5671 5.15212 29.682 4.46007C32.7392 3.45961 36.3557 2.41813 39.507 1.83507C43.6994 1.05937 49.9477 0.250447 54.222 0.0800664C58.354 -0.0846424 63.9138 -0.000266374 68.022 0.380066C71.2873 0.682374 75.6123 1.40749 78.822 2.12007C81.7476 2.76958 85.7219 3.7647 88.482 4.88007C91.5514 6.12044 95.4064 7.96797 97.752 10.1901C99.3217 11.6771 101.37 14.5365 102.162 16.5801C103.135 19.0914 103.753 22.8752 103.782 25.5801C103.826 29.6766 102.895 35.3601 101.622 39.2601C100.246 43.4766 96.6313 49.6465 93.912 53.1201C90.8768 56.9971 86.8016 60.7984 82.842 63.8601C78.7611 67.0155 72.4853 70.7386 67.872 72.9201C64.2562 74.6298 58.9708 76.4641 55.002 77.0601C51.2974 77.6163 45.9383 78.1418 42.402 77.2401C40.1401 76.6633 37.132 74.7846 35.472 73.1451C34.143 71.8325 32.8751 69.4728 32.142 67.7001C31.0208 64.9891 30.0887 61.0364 29.877 58.1151C29.6382 54.8217 29.7829 50.3426 29.982 47.0001C30.2043 43.268 30.6355 38.2943 31.062 34.5801C31.3232 32.3049 31.873 29.2946 32.142 27.0201C32.3457 25.297 32.601 22.9919 32.682 21.2601C32.745 19.913 32.7551 18.1095 32.727 16.7601C32.7 15.4635 32.7227 13.734 32.637 12.4401C32.5975 11.8451 32.6383 10.6847 32.322 10.4601C32.3023 10.4461 32.1629 10.3037 32.1288 10.2988C32.0142 10.2825 31.8271 10.2678 31.707 10.2857C31.4434 10.3249 31.1876 10.437 30.912 10.5201C29.6457 10.9014 27.7261 10.9003 26.442 11.1801C25.3541 11.4171 24.3201 11.6294 23.142 11.8401C22.2927 11.9919 20.6021 12.2172 19.782 12.4401C18.4265 12.8083 16.7413 12.976 15.462 13.3401C13.4405 13.9154 11.3242 14.6467 9.34196 15.3201C7.96138 15.789 5.02034 17.2117 3.64196 17.6901C3.10213 17.8774 2.02722 18.1727 1.46697 18.2976C1.02774 18.3955 0.0524016 18.5609 0.00445314 18.4476Z" sodipodi:nodetypes="csssssssssssssssssssssssssssssssssssssscc"/><path id="shape6" transform="matrix(0.589424909559736 0 0 0.589424909559736 219.244891199826 238.253574081385)" fill="#ffffff" fill-rule="evenodd" stroke-opacity="0" stroke="#000000" stroke-width="0" stroke-linecap="square" stroke-linejoin="bevel" d="M1.7807 0.471924C3.97305 0.295471 7.04204 0.183279 9.2357 0.074424C11.5776 -0.0417864 14.5526 -0.00197801 16.9007 0.059424C18.2242 0.0940333 23.168 0.253299 24.4907 0.314424C28.6767 0.507875 31.1576 0.970708 35.3057 1.48442C37.3761 1.74083 40.1651 2.20486 42.1457 2.83442C44.2744 3.51107 47.0214 4.81656 48.9857 5.89442C50.314 6.62332 52.1294 7.65468 53.2157 8.68442C54.3193 9.7306 55.7251 11.4367 56.2757 12.8244C56.9251 14.4615 57.1758 17.0857 56.9957 18.8544C56.7425 21.3411 55.3578 24.6401 54.2957 26.9544C53.161 29.427 51.2569 32.6148 49.6157 34.7844C47.6341 37.4041 44.5238 40.6184 42.0557 42.7944C39.1836 45.3266 35.3454 48.1807 32.1857 50.3544C30.0203 51.8441 26.8076 53.7754 24.0279 55.3204C21.5282 56.7099 18.8704 57.6925 16.5857 58.3644C15.3885 58.7165 13.3852 58.8983 12.1157 58.9044C10.6852 58.9113 8.93346 58.7577 7.5857 58.3644C6.40583 58.0201 4.70329 57.2559 3.8957 56.3844C2.90881 55.3195 2.24615 53.1661 1.8257 51.7044C1.25785 49.7303 1.0507 46.925 0.835696 44.8644C0.442906 41.1001 0.130287 36.0482 0.0256962 32.2644C-0.0578074 29.2435 0.0822215 25.2071 0.160696 22.1844C0.225916 19.6723 0.421696 16.3266 0.475696 13.8144C0.537768 10.9268 0.410345 6.24078 0.430696 3.35192C0.434073 2.87265 0.423365 2.23223 0.453206 1.75443C0.464623 1.57162 0.444109 1.3012 0.520706 1.14693C0.598487 0.990266 0.822785 0.830463 0.970706 0.719426C1.0452 0.663507 1.15472 0.596922 1.24071 0.561926C1.36831 0.509993 1.55625 0.489988 1.7807 0.471924Z" sodipodi:nodetypes="cssssssssssssscssssssssssssscc"/><path id="shape8" transform="matrix(0.589424909559736 0 0 0.589424909559736 286.655094548251 215.999280045911)" fill="#00426b" fill-rule="evenodd" stroke-opacity="0" stroke="#000000" stroke-width="0" stroke-linecap="square" stroke-linejoin="bevel" d="M0.0796312 1.38037C0.288023 1.03366 0.857393 0.670113 1.24963 0.510371C2.27575 0.0924748 3.89667 -0.0069752 5.02963 0.000370772C6.24575 0.00825592 7.89451 0.301786 9.07963 0.600371C9.74439 0.767854 10.4007 0.822979 11.0596 1.02037C11.5023 1.15296 17.908 1.81907 18.7396 1.98037C19.4744 2.12289 20.4563 2.3317 21.1996 2.40037C22.3792 2.50935 25.9623 2.93546 26.4796 3.06037C27.1465 3.22139 31.6727 3.49185 32.3596 3.54037C34.1162 3.66444 36.42 3.67914 38.1796 3.60037C39.8036 3.52768 41.9556 3.62577 43.5796 3.54037C45.2405 3.45303 48.3047 3.76711 49.9697 3.75037C52.1222 3.72873 53.5085 4.02368 55.8213 3.96553C57.454 3.92447 61.1101 3.94686 62.6297 3.93037C64.8215 3.90659 66.9015 3.82715 69.6192 3.76043C71.6887 3.70963 75.8105 4.38621 77.4797 4.38037C78.8392 4.37562 79.2057 3.92876 80.7208 3.90166C82.4251 3.87117 85.5803 3.60037 87.1097 3.60037C89.8727 3.60037 90.323 3.7079 93.0797 3.84037C95.0462 3.93487 97.6916 3.98323 99.6197 4.35037C101.434 4.69578 103.574 5.02684 105.26 5.76037C106.405 6.25859 107.624 7.62393 108.53 8.46037C109.198 9.07737 110.269 9.45687 110.72 10.2904C110.976 10.7639 112.616 11.0606 112.572 11.5879C112.524 12.1689 110.274 13.3184 109.88 13.7029C109.247 14.3197 107.304 15.0778 106.37 15.3454C104.698 15.8243 103.59 16.056 101.87 16.2904C98.7996 16.7086 92.9484 16.1234 89.8397 16.1404C85.8118 16.1625 79.7101 15.9585 75.6797 16.3804C71.4663 16.8215 66.7971 17.2106 62.5697 17.4604C61.0616 17.5495 59.355 17.3774 57.6968 17.5285C55.6933 17.7111 53.733 18.2275 51.9197 18.4504C49.0246 18.8062 46.1454 20.1699 43.2797 20.7004C41.5103 21.0279 39.1232 21.467 37.4297 22.0504C36.1689 22.4846 34.434 22.9015 33.2297 23.4904C32.0583 24.0631 30.7287 24.8508 29.5997 25.5004C28.8216 25.948 27.2745 27.0717 27.0197 27.8404C26.7005 28.8031 26.446 30.0206 26.6297 31.0504C26.8627 32.3568 27.7148 34.0772 27.5297 35.3704C27.3414 36.6865 28.0318 38.4707 28.5197 39.6904C28.8884 40.6121 29.5775 41.8287 30.2297 42.5704C30.7415 43.1524 31.5974 43.9032 32.2997 44.1904C34.0178 44.8928 36.7666 44.8081 38.6897 44.9104C43.2114 45.1508 48.0739 45.997 52.6097 46.0204C55.9308 46.0375 61.8068 45.3653 65.1197 45.6004C68.0805 45.8105 70.529 46.0943 73.3097 45.3904C75.2209 44.9066 79.8288 45.593 81.7996 45.6004C84.1759 45.6092 84.118 45.7366 88.6396 46.2004C90.4493 46.386 93.9229 46.3733 95.7196 46.6804C97.7032 47.0193 99.9496 47.7304 101.84 48.3604C103.805 49.0156 105.247 49.9056 106.85 51.1804C107.672 51.8345 105.781 55.9989 105.26 56.4304C104.036 57.4436 99.497 60.1153 97.2196 59.7604C95.1281 59.4345 91.638 59.9397 88.2796 60.7204C85.2716 61.4196 81.1408 61.4964 78.0796 61.9204C75.1647 62.3241 72.3518 61.9777 69.4396 62.4004C67.7656 62.6434 64.7771 63.0495 62.8329 63.3476C60.1721 63.7557 57.4445 64.9064 55.1596 65.2804C52.2394 65.7584 48.3633 66.5054 45.4396 66.9604C43.1057 67.3235 39.7546 67.1697 37.6396 68.0404C36.995 68.3057 36.0502 68.9069 35.7196 69.4804C34.3215 71.906 34.5412 76.0034 34.1296 79.0204C33.7457 81.8349 34.0809 83.7709 33.2596 86.4904C32.8917 87.7086 32.6404 91.8026 32.2997 93.3304C31.7557 95.7699 30.5872 99.0514 29.8697 101.43C29.3139 103.273 28.0911 105.534 27.2597 107.28C26.3933 109.1 24.682 111.706 23.5997 113.4C22.6173 114.938 21.6703 116.305 20.4497 117.66C19.6345 118.566 19.0916 119.12 16.9697 120.93C16.2703 121.527 15.3226 120.111 14.8397 118.89C13.9211 116.568 12.123 113.948 10.9697 111.87C9.14776 108.587 9.49777 104.013 9.04966 100.26C8.69063 97.2531 7.77787 93.6147 7.53468 90.0924C7.37031 87.7118 6.90217 85.3841 6.73966 83.3404C6.55594 81.0299 7.25172 82.1176 7.0633 79.429C6.87898 76.7989 5.80978 70.3924 5.68966 68.1304C5.59166 66.2849 5.96285 64.0687 5.86675 61.9218C5.72302 58.7111 5.84775 54.6673 5.83966 51.9004C5.81771 44.3944 5.11966 35.2264 5.11966 27.7204C5.11966 23.5624 5.16799 18.0178 5.11966 13.8604C5.09266 11.5381 5.19732 4.96433 5.11966 4.50037C5.05955 4.14131 4.84974 3.53812 4.57964 3.36037C4.03972 3.00504 2.80688 3.36592 2.05964 3.27037C1.64984 3.21797 1.0395 3.17911 0.709644 2.97037C0.464886 2.81548 0.186927 2.43526 0.0796442 2.16037C0.00410873 1.96683 -0.0533763 1.60166 0.0796312 1.38037Z" sodipodi:nodetypes="cssssssssssscscscssssssssssssscssssssssssssssssssssssssscssssssssssssssscscscssssssscc"/><path id="shape9" transform="matrix(0.589424909559736 0 0 0.589424909559736 290.981255619014 218.419068265589)" fill="#ffffff" fill-rule="evenodd" stroke-opacity="0" stroke="#000000" stroke-width="0" stroke-linecap="square" stroke-linejoin="bevel" d="M1.5 0.515037C2.71647 -0.459778 6.8785 0.19592 9.09 0.485037C11.4146 0.78894 13.901 0.76321 16.23 1.02504C19.3796 1.37911 24.8263 1.75871 27.99 1.83504C31.6296 1.92285 40.544 1.90552 44.19 1.86504C47.834 1.82458 50.3248 2.78096 53.97 2.79504C56.5079 2.80484 60.0721 2.2797 62.61 2.25504C65.5261 2.2267 66.984 2.29248 69.9 2.25504C72.6 2.22037 76.9199 1.67304 79.62 1.65504C81.2399 1.64424 82.68 1.89504 84.3 1.89504C85.884 1.89504 87.9488 2.11336 89.52 2.25504C91.117 2.39904 93.234 2.96989 94.8 3.33504C95.8197 3.5728 97.1935 4.50437 98.16 4.89504C98.7242 5.1231 99.5121 5.46203 99.96 5.85504C100.187 6.0539 100.705 6.64845 100.65 6.83004C100.562 7.12405 100.324 7.98844 99.9 8.25504C99.0184 8.80966 96.5383 9.292 95.445 9.51504C94.2001 9.76901 92.4647 9.79915 91.2 9.93504C88.2232 10.2549 84.2319 10.127 81.24 10.235C78.6154 10.3298 75.1059 10.4015 72.48 10.475C68.625 10.583 63.4948 10.8195 59.64 10.955C57.1219 11.0436 53.7455 11.2854 51.24 11.495C48.8864 11.6919 45.7749 12.1247 43.44 12.515C40.8424 12.9493 37.3454 13.4246 34.8 14.075C31.9396 14.806 28.1408 16.0138 25.44 17.195C23.1907 18.1788 20.0096 19.5394 18.24 21.155C16.9929 22.2936 16.1856 24.6532 15.87 26.225C15.5032 28.0518 16.055 29.7133 16.59 31.655C17.0758 33.4178 17.6342 35.7362 18.36 37.415C18.8891 38.6389 19.9839 39.7475 20.88 40.655C21.7547 41.5408 23.3744 42.3307 24.6 42.695C27.2489 43.4824 29.7666 43.3754 32.58 43.475C36.4246 43.6112 41.9877 43.931 45.84 43.895C48.6478 43.8688 52.3362 43.5463 55.14 43.655C58.8536 43.799 68.4675 43.573 72.18 43.655C75.416 43.7265 77.7748 44.1437 81 44.315C83.0615 44.4245 83.7667 44.1685 85.8 44.555C87.7621 44.928 90.6985 44.6754 92.595 45.29C93.8505 45.6969 95.6541 47.5405 96.54 48.395C96.8311 48.6758 96.8529 49.8133 96.96 50.135C97.0705 50.4669 95.3028 51.266 94.98 51.395C92.77 52.2785 92.2104 52.5092 89.76 52.775C87.2086 53.0517 84.7425 53.2285 81.9792 53.495C79.2503 53.7582 73.6441 53.8709 71.13 54.185C68.8573 54.469 62.5921 55.8812 59.9883 56.2273C57.3789 56.5741 58.4308 55.8549 56.16 56.195C51.8047 56.8473 47.0011 57.679 42.66 58.415C39.6256 58.9295 38.9613 58.7252 35.94 59.315C34.859 59.5261 29.2684 60.4575 28.32 60.935C27.4422 61.377 25.8613 62.1338 25.38 62.975C24.8767 63.8546 24.5278 65.2833 24.36 66.335C24.1832 67.4429 24.0816 68.941 23.94 70.055C23.6238 72.5434 23.5552 74.8331 23.19 77.315C22.8521 79.6119 22.5152 82.7251 22.2 85.025C21.9563 86.8032 21.4832 90.1486 21.06 91.88C20.6794 93.4376 19.7688 96.478 19.23 98C18.4323 100.253 17.4538 102.433 16.425 104.57C15.6354 106.21 14.5571 108.194 13.455 109.655C12.7883 110.539 11.4244 112.88 10.53 113.375C10.0686 113.631 9.1153 113.786 8.91001 113.465C7.83972 111.791 6.14741 106.771 5.67001 104.255C4.57763 98.4971 3.84255 90.6636 3.33001 84.815C2.77318 78.4611 2.52899 69.946 2.16001 63.575C1.82532 57.7961 1.23863 50.0974 0.990014 44.315C0.798914 39.8704 1.23092 32.6497 1.128 27.4859C1.05787 23.967 0.450098 22.4157 0.360001 19.385C0.266075 16.2256 0.000153397 12.014 1.97053e-07 8.85504C-0.000115103 6.47904 0.0498566 1.6771 1.5 0.515037Z" sodipodi:nodetypes="cssssssssssssssssssssssssssssssssssssssssscscssssssssssssssssssscscc"/><path id="shape10" transform="matrix(0.589424909559736 0 0 0.589424909559736 365.955887137011 216.208104957198)" fill="#00426b" fill-rule="evenodd" stroke-opacity="0" stroke="#000000" stroke-width="0" stroke-linecap="square" stroke-linejoin="bevel" d="M0.000359347 5.16608C0.220278 4.65339 0.606094 4.31558 0.825359 4.10858C0.834871 4.0996 1.37723 3.78886 1.38036 3.78608C1.59061 3.60008 3.85123 3.16294 4.92036 2.94608C6.29718 2.66682 8.87577 2.76816 10.2604 2.52608C11.9541 2.22996 13.9277 2.18123 15.6304 1.95608C17.3297 1.73139 25.8275 1.20694 27.5404 1.11608C30.811 0.942601 31.5241 0.575488 34.8004 0.516085C37.3202 0.470396 36.871 0.158532 39.3904 0.0960849C42.4512 0.0202164 49.6794 0.438991 52.7404 0.396085C55.2236 0.361276 56.1974 -0.0548616 58.6804 0.00608489C60.6162 0.0536019 63.1965 0.533241 65.1304 0.636086C66.8054 0.725165 69.2188 0.858628 70.8904 0.996086C72.2424 1.10726 73.878 0.851247 75.2104 1.08609C76.7153 1.35132 77.9088 1.20933 79.3954 1.58109C80.9328 1.96555 83.6894 3.20606 85.1104 3.84609C86.2588 4.36333 87.9919 5.01017 88.8604 5.91609C89.2718 6.34527 88.9209 7.72008 89.0704 8.28609C89.2809 9.08352 89.9795 9.07782 89.8204 9.90609C89.4844 11.6556 87.6789 15.3214 86.8204 16.9261C85.2955 19.7762 82.8896 22.5014 80.8504 24.9961C79.4755 26.678 78.245 28.1474 76.5946 29.977C75.0022 31.7424 72.5141 33.5121 70.9504 34.9261C69.4047 36.3238 65.7611 39.6305 64.1748 40.7356C62.758 41.7226 60.9472 42.7964 59.4304 43.8661C57.2131 45.4298 55.5922 45.8541 53.5804 47.6161C53.2641 47.8931 52.8554 49.0493 52.6129 49.4011C52.4653 49.6151 52.1647 50.0039 52.1929 50.2036C52.2575 50.6614 53.1594 51.2386 53.6554 51.5536C55.2471 52.5647 57.6911 53.6872 59.4529 54.4411C60.8609 55.0436 63.2074 56.5882 64.5904 57.2461C67.1549 58.466 70.1967 59.6689 72.6904 61.0261C74.4221 61.9686 82.746 66.1587 84.5704 67.3261C86.7771 68.7381 89.4696 71.0487 91.7704 72.2761C94.0294 73.4812 94.9105 75.3313 96.0904 76.7761C97.2284 78.1696 98.5398 80.2057 99.5104 81.7261C100.369 83.0718 101.998 84.7347 102.21 86.3161C102.566 88.9648 104.36 92.7126 105.33 95.1061C106.061 96.9086 107.382 98.4111 107.97 100.266C108.632 102.351 108.932 105.166 109.47 107.286C109.892 108.949 110.991 111.172 111.21 112.866C111.307 113.613 111.365 114.638 111.3 115.386C111.256 115.905 111.256 116.84 110.94 117.096C110.533 117.426 109.311 117.28 108.69 117.096C104.279 115.787 99.2842 111.014 95.2804 108.366C89.9901 104.867 83.0103 100.091 77.7304 96.5761C75.6748 95.2078 73.5163 93.0551 71.1141 91.4698C69.0799 90.1273 66.7945 89.3444 65.0404 88.2061C62.3959 86.49 56.7346 82.2155 53.6395 80.2404C51.1682 78.6634 51.2463 79.3679 49.1104 78.0361C46.6874 76.5253 43.7494 74.7782 41.5204 73.0261C40.4076 72.1514 38.3858 70.975 37.3504 69.9961C36.5262 69.2169 35.5907 68.4533 34.6204 67.9261C33.9183 67.5446 32.7361 66.8495 31.9579 66.8911C31.115 66.9361 29.9807 67.0691 29.3779 67.6336C28.286 68.656 27.6492 70.9138 27.1204 72.4261C26.458 74.3201 26.0028 76.9983 25.5604 78.9661C24.7008 82.7889 23.7092 87.9207 22.8604 91.7461C22.1718 94.8491 21.1545 98.9643 20.4604 102.066C20.2734 102.902 20.0743 104.028 19.8604 104.856C19.2544 107.203 18.9447 110.87 17.5204 112.596C16.8396 113.421 15.1765 114.264 14.1004 114.396C12.9395 114.539 10.7904 114.166 10.0504 113.406C8.69362 112.013 8.68112 108.203 8.43038 105.936C7.99341 101.985 8.26457 95.5312 8.34038 92.6161C8.41618 89.701 8.15049 86.9498 8.09289 85.7086C8.01096 83.9431 8.07898 81.4997 7.91289 79.7011C7.80005 78.4791 7.77945 76.8986 7.53039 75.6961C7.09531 73.5954 7.04904 70.788 6.72039 68.6761C6.19083 65.2731 5.48082 60.6969 5.55039 57.2461C5.58474 55.5425 5.16134 48.5095 5.10039 46.8061C4.88599 40.8133 4.87538 37.7822 4.74038 31.8661C4.69111 29.7072 5.1235 27.5784 5.27288 25.4236C5.42138 23.2815 5.83067 20.6648 6.22538 18.3886C6.34079 17.723 6.72481 17.0165 6.771 16.3073C6.78885 16.0333 7.22739 14.4349 7.50788 14.4736C7.93821 14.5329 7.78928 14.7819 8.07038 15.1261C8.36007 15.4808 7.6188 16.1834 7.71038 16.6561C7.82731 17.2597 7.77109 18.1052 7.80038 18.7261C7.87552 20.3194 8.01761 22.4421 8.07038 24.0361C8.12844 25.7901 8.15556 28.131 8.16038 29.8861C8.16785 32.613 7.99019 36.2502 8.07038 38.9761C8.14741 41.595 8.09021 45.0872 8.07038 47.7061C8.05688 49.4882 8.39785 51.7752 8.43038 53.5561C8.459 55.123 8.53258 57.2999 8.61038 58.8661C8.6667 60 8.92438 61.522 9.06038 62.6461C9.21197 63.8991 9.31583 65.5537 9.60038 66.7861C9.8831 68.0106 10.0784 69.605 10.3204 70.8361C10.5246 71.8755 10.7447 73.2904 10.7704 74.3461C10.7953 75.3695 10.8357 76.7201 10.8604 77.7436C10.9013 79.4398 11.134 81.7571 11.2654 83.4511C11.4221 85.4724 11.4638 88.2619 11.5579 90.2836C11.6799 92.9042 11.9334 96.2614 11.8204 98.8861C11.7133 101.373 11.2711 104.514 11.3779 106.986C11.4169 107.891 12.2318 109.37 12.6004 110.166C12.7346 110.456 13.0464 110.88 13.3204 111.006C13.6175 111.143 14.3239 110.995 14.5654 110.826C14.8481 110.628 15.0779 110.11 15.2029 109.709C15.7547 107.935 16.7246 107.774 17.1604 105.966C17.7047 103.708 17.9036 100.084 18.3604 97.8061C18.8422 95.4041 19.9996 91.1033 20.4004 88.6861C20.7518 86.5666 21.054 83.8526 21.3604 81.7261C21.666 79.6046 22.7655 76.9691 23.2354 74.8861C23.6247 73.1601 23.8787 71.6422 24.6004 70.0861C24.9826 69.2619 25.7388 67.6624 26.4754 67.0711C27.6372 66.1384 28.5418 64.6859 29.8804 64.2061C30.6894 63.9161 32.0414 63.6372 32.8804 63.8461C34.278 64.1941 35.8067 65.4542 37.0804 66.2461C39.4621 67.7269 43.1553 68.696 44.8804 71.1061C46.7634 73.7369 50.9768 75.439 53.8804 76.8661C56.5737 78.1898 59.3324 80.4332 61.7404 81.9061C64.5413 83.6193 68.3607 86.0342 70.7404 88.2961C73.41 90.8336 77.3949 91.5115 79.9204 93.3661C82.3976 95.1852 85.1938 97.756 88.3204 99.4561C90.993 100.909 92.3432 103.713 94.8604 105.426C96.3961 106.471 99.9785 108.051 101.43 109.206C102.407 109.983 103.625 110.891 104.64 111.606C105.308 112.076 106.275 112.661 107.04 112.926C107.244 112.997 107.582 113.112 107.76 113.046C107.989 112.961 108.27 112.575 108.36 112.326C108.533 111.849 108.442 111.053 108.36 110.526C108.234 109.715 107.794 108.67 107.52 107.886C106.987 106.359 106.809 104.502 106.305 102.966C105.759 101.3 103.394 96.6837 102.78 95.0461C102.111 93.2587 101.967 91.3544 101.1 89.6461C99.8254 87.1332 97.7568 83.7086 96.2104 81.3661C95.1986 79.8335 92.9372 77.7833 91.6504 76.4761C90.1515 74.9534 86.887 72.2564 85.1404 71.0161C82.7105 69.2905 76.6656 67.2453 74.0704 65.7661C70.5594 63.765 72.2794 64.4529 68.8804 62.2861C66.7615 60.9354 62.7696 59.4822 60.5404 58.4161C58.4704 57.4261 55.1649 56.1449 53.3404 54.6961C52.5394 54.0601 49.4359 53.0838 48.2149 51.8078C47.1319 50.676 47.8626 49.206 48.0304 49.0561C49.5695 47.68 50.129 46.3902 51.9004 45.2461C55.8983 42.664 61.192 39.1563 64.8604 36.1261C67.7026 33.7783 71.2517 30.5108 73.8004 27.8461C75.9149 25.6352 78.586 22.5164 80.4304 20.0761C81.6023 18.5255 83.2437 16.4278 84.0304 14.6761C84.504 13.6214 84.9624 12.0422 85.0204 10.8961C85.0637 10.0411 84.5312 8.51415 84.0754 7.88109C83.188 6.64844 81.1311 5.904 79.5304 5.40609C76.2814 4.39543 71.5426 4.14533 68.1004 3.96609C65.5721 3.83443 61.4284 3.2217 58.8904 3.27609C55.1374 3.35651 51.4838 2.65163 47.7304 2.67609C44.5717 2.69667 40.2691 3.61736 37.1104 3.63609C34.4642 3.65178 31.4127 3.95628 28.7704 4.08609C26.6885 4.18836 22.9265 4.25302 20.8504 4.44609C18.8496 4.63215 12.889 3.99557 10.8904 4.20609C8.785 4.42786 -0.0649274 5.31829 0.000359347 5.16608Z" sodipodi:nodetypes="csssssssssssssssssssscscsssssssssssssssssssssscscssssssssssssssscssssssssssssssssssssssssssssssssssssssssssssssssssssssssssssssssssscssssssssssssssscc"/><path id="shape11" transform="matrix(0.589424909559736 0 0 0.589424909559736 440.346911535948 219.441922916124)" fill="#00426b" fill-rule="evenodd" stroke-opacity="0" stroke="#000000" stroke-width="0" stroke-linecap="square" stroke-linejoin="bevel" d="M1.20089 0.729691C1.36216 0.391153 2.15198 0.0981352 2.59589 0.00969056C3.05557 -0.081896 4.09958 0.503561 4.57589 0.594691C5.66453 0.802973 6.72192 1.57143 7.77089 1.94469C8.91043 2.35018 10.5993 3.03601 11.6859 3.56469C13.0097 4.20879 14.1169 4.76636 15.4209 5.45469C16.5896 6.07164 18.913 7.40177 19.4709 8.03469C20.1793 8.83835 23.247 11.1041 23.8809 11.9797C24.8208 13.278 26.3204 14.8364 27.2109 16.1647C27.5799 16.715 27.9791 17.5127 28.2909 18.0997C29.2838 19.969 30.4798 22.5293 31.4709 24.3997C31.9914 25.382 32.8727 26.6127 33.2709 27.6397C33.7742 28.9382 34.1321 30.8151 34.3509 32.1997C34.6629 34.174 34.9494 36.8682 34.8909 38.8597C34.8569 40.0155 34.449 41.5423 34.3509 42.6997C34.2992 43.3088 34.2644 44.1296 34.2909 44.7397C34.3379 45.8231 34.6479 47.256 34.7109 48.3397C34.7703 49.3622 34.7274 50.734 34.7109 51.7597C34.6839 53.4341 34.6964 55.6768 34.5308 57.3397C34.3964 58.6897 34.057 60.4793 33.7808 61.8097C33.5379 62.98 33.0667 64.5098 32.8208 65.6797C32.6688 66.4032 32.5384 67.3829 32.4008 68.1097C31.7946 71.3143 30.8698 75.5651 30.2109 78.7597C29.7801 80.8479 29.1701 83.6254 28.7709 85.7197C28.4767 87.2631 28.2458 89.3575 27.8709 90.8797C27.6318 91.8502 27.1426 93.1013 26.8509 94.0597C26.5291 95.1169 26.135 96.5372 25.8309 97.5997C25.2695 99.5607 24.6062 102.203 23.9709 104.14C23.4414 105.754 22.889 108.052 21.9909 109.45C21.5875 110.077 20.6359 111.319 20.1909 111.25C19.058 111.073 17.8363 107.311 17.2209 105.49C16.292 102.741 16.2548 98.6879 15.5109 95.8597C14.8722 93.4315 13.4854 90.3388 12.7209 87.9397C11.8261 85.1317 10.8921 81.3058 10.0209 78.4897C9.11268 75.554 7.54324 71.7395 6.78089 68.7697C6.14779 66.3034 5.78443 62.8947 5.25089 60.3997C4.63495 57.5193 3.57734 53.7299 2.91089 50.8597C2.45455 48.8943 1.77622 46.2801 1.47089 44.2897C0.732583 39.4767 0.191442 32.9586 0.0308698 28.0897C-0.0473441 25.718 0.0268188 22.5356 0.21087 20.1697C0.305795 18.9495 0.63388 17.339 0.75087 16.1197C0.926406 14.2902 0.9936 11.8351 1.11087 9.99969C1.1776 8.95535 1.00093 7.46028 1.35087 6.51969C1.47125 6.19612 1.78577 5.67149 2.07087 5.55969C2.38962 5.43469 3.01287 5.67369 3.39087 5.79969C3.76887 5.92569 4.42692 6.10908 4.59087 6.39969C4.95865 7.05158 4.43378 8.5007 4.35087 9.39969C4.12817 11.8144 3.75955 15.0273 3.51087 17.4397C3.29195 19.5634 2.86604 22.3907 2.79087 24.5197C2.70844 26.8542 2.836 29.99 3.03087 32.3197C3.25166 34.9593 3.78653 38.466 4.23087 41.0797C4.59395 43.2154 5.22584 46.0384 5.67087 48.1597C6.23048 50.8271 7.00222 54.3785 7.59087 57.0397C8.26048 60.0669 9.10855 64.1156 9.87087 67.1197C10.5238 69.6927 11.5033 73.0981 12.2709 75.6397C12.9488 77.8844 13.9669 80.8426 14.6709 83.0797C15.6655 86.2406 17.0729 90.4366 17.9109 93.6397C18.3394 95.2778 18.8437 97.4888 19.1109 99.1597C19.2764 100.194 18.9345 101.911 19.4709 102.64C19.611 102.83 20.1038 103.056 20.3109 103C20.8166 102.862 21.357 101.796 21.6309 101.2C22.2808 99.7849 22.4676 97.5869 22.8309 96.0397C23.6513 92.5459 24.8214 87.9045 25.5909 84.3997C26.3312 81.028 27.217 76.5095 27.8709 73.1197C28.5502 69.5977 29.5064 64.906 30.0309 61.3597C30.4547 58.4944 30.9489 54.6488 31.1109 51.7597C31.2397 49.4629 31.0926 46.3835 31.1109 44.0797C31.1289 41.8115 31.3628 38.7779 31.2309 36.5197C31.1042 34.3503 30.8906 31.3799 30.2709 29.3197C29.4971 26.7471 29.4998 25.1078 28.1109 22.7797C26.9787 20.882 24.6954 16.6513 23.2509 14.9797C22.2063 13.7709 19.9246 12.0966 18.6909 11.0797C17.239 9.88303 15.4024 8.11348 13.8009 7.11969C12.7209 6.44956 10.3204 5.64415 9.18087 5.07969C8.22855 4.60796 6.38966 4.29906 5.40087 3.90969C4.3743 3.50544 3.5323 3.64597 2.55087 3.15969C2.20481 2.98822 1.65224 2.74142 1.47087 2.43969C1.42874 2.3696 1.45234 2.22937 1.44087 2.13969C1.3844 1.69826 1.06671 1.01136 1.20089 0.729691Z" sodipodi:nodetypes="csssssssssssssssssssssssssssssssssssssssssssssssssssssssssssssssssssssssssssscc"/><path id="shape12" transform="matrix(0.589424909559736 0 0 0.589424909559736 469.003362331283 220.42996498086)" fill="#00426b" fill-rule="evenodd" stroke-opacity="0" stroke="#000000" stroke-width="0" stroke-linecap="square" stroke-linejoin="bevel" d="M5.98325 9.26841C7.23867 9.10082 7.70965 9.30868 9.01325 9.40341C10.6135 9.51969 11.7091 9.87621 13.9632 10.1834C15.4649 10.388 17.5658 11.2745 19.0032 11.7884C21.2196 12.5808 24.3206 13.9422 26.5632 14.6684C28.1062 15.1681 30.1059 15.2916 31.6482 15.7934C32.9436 16.2148 34.6905 16.7294 36.0132 17.0534C37.2697 17.3612 38.9629 17.7366 40.2432 17.9084C41.4342 18.0682 43.0456 18.1209 44.2482 18.1784C45.3587 18.2316 46.844 18.2149 47.9532 18.2834C48.7108 18.3302 49.7321 18.3764 50.4732 18.5234C51.1345 18.6545 52.0976 18.8199 52.6332 19.1834C53.0888 19.4926 53.5285 20.1986 53.8332 20.6834C54.361 21.5232 54.9813 22.7401 55.2732 23.6834C55.9655 25.9206 56.1763 29.1354 56.4732 31.4834C56.7704 33.8334 56.9761 36.9905 57.2532 39.3434C57.4402 40.9308 57.7208 43.0452 57.9732 44.6234C58.1148 45.5087 58.3243 46.6872 58.5132 47.5634C59.2576 51.0153 60.385 55.5964 61.3482 58.9934C61.9162 60.9968 62.8437 63.6192 63.4632 65.6084C64.1134 67.696 64.8981 70.5058 65.5782 72.5834C66.0589 74.052 66.7603 75.9908 67.2882 77.4434C67.5639 78.2022 67.9852 79.1959 68.2332 79.9634C68.7532 81.5728 69.2115 83.7941 69.7182 85.4084C70.2843 87.2119 71.0885 89.6137 71.8332 91.3484C72.2801 92.3893 73.1636 93.6631 73.5432 94.7234C73.793 95.421 73.859 96.4441 74.0832 97.1534C74.3685 98.0559 74.8677 99.2346 75.2982 100.078C75.743 100.95 76.4572 102.057 77.0082 102.868C77.3871 103.426 77.8262 104.325 78.3582 104.668C78.5544 104.795 78.9344 104.875 79.1682 104.848C79.4914 104.811 80.0058 104.594 80.2032 104.353C80.93 103.466 80.9132 101.483 81.2382 100.258C81.7809 98.2135 82.576 95.5059 83.1282 93.4634C83.4888 92.1295 83.9387 90.3426 84.2982 89.0084C84.5751 87.9806 85.0213 86.6276 85.2432 85.5884C85.5421 84.1886 85.808 82.2875 85.9632 80.8634C86.0964 79.6406 86.0826 77.9883 86.2332 76.7684C86.4548 74.9738 87.0987 72.6235 87.3132 70.8284C87.5615 68.7511 87.5828 65.945 87.7182 63.8534C87.8407 61.9626 88.0281 59.443 88.1682 57.5534C88.2984 55.7981 88.5859 53.4603 88.6182 51.7034C88.6431 50.3549 88.4301 48.553 88.4382 47.2034C88.4461 45.907 88.64 44.1802 88.6632 42.8834C88.7083 40.3739 88.7292 37.0115 88.5282 34.5134C88.4682 33.767 88.4702 32.7949 88.2582 32.0834C88.0227 31.293 88.2719 30.4462 88.202 29.6534C88.1421 28.974 87.9874 28.0484 87.9432 27.3584C87.9147 26.9139 87.7293 26.2333 87.8982 25.8734C88.1643 25.3065 89.122 24.7172 89.7432 24.4334C90.4858 24.0942 91.8394 23.8275 92.6232 23.5334C94.3576 22.8825 97.1079 22.3035 98.5482 21.8534C99.0309 21.7026 102.875 20.3557 103.378 20.2934C104.314 20.1777 105.545 19.7639 106.438 19.4384C107.508 19.0485 109.262 18.7002 110.323 18.2834C111.355 17.8783 112.703 17.4023 113.773 17.1134C114.983 16.7867 116.295 16.1551 117.508 15.8384C118.333 15.6229 119.424 15.1611 120.223 14.8634C121.242 14.4839 122.557 13.9808 123.553 13.5434C124.789 13.0011 126.429 12.2595 127.663 11.7134C128.706 11.252 130.108 10.6612 131.143 10.1834C132.25 9.67247 133.721 8.97457 134.803 8.41341C135.643 7.97782 136.77 7.39573 137.563 6.88341C138.043 6.57365 138.692 6.16209 138.778 5.74341C138.838 5.45435 138.715 4.84834 138.433 4.60341C137.643 3.91766 136.079 3.44036 135.013 3.22341C132.602 2.73271 129.175 2.79715 126.673 2.80341C124.324 2.80928 121.282 2.72972 118.933 2.80341C117.349 2.85312 115.145 3.04317 113.563 3.05841C112.401 3.0696 110.851 3.11822 109.693 3.19341C107.756 3.31919 105.724 3.57251 103.783 3.76341C102.572 3.88254 99.4993 4.23267 98.2932 4.39341C96.0276 4.69534 94.3765 4.59874 92.6532 4.84341C91.4301 5.01706 83.1096 5.51773 82.3332 5.74341C81.5616 5.96768 77.6018 6.18796 76.8132 6.28341C75.1166 6.48876 72.7813 6.10572 71.0532 6.10341C69.1633 6.10088 66.6433 6.23307 64.7532 6.28341C63.2953 6.32223 60.8987 6.20014 59.4582 6.05841C58.5654 5.97056 56.6509 5.71569 55.7682 5.54841C54.9594 5.39511 52.8368 5.26941 51.9282 5.11341C51.3398 5.01238 48.5236 4.78864 46.8132 4.82841C45.6075 4.85644 43.9991 4.84987 42.7932 4.84341C41.3891 4.83589 39.5173 4.75491 38.1132 4.72341C37.1773 4.70241 35.929 4.688 34.9932 4.66341C33.913 4.63502 32.4734 4.5506 31.3932 4.54341C30.4934 4.53741 29.2932 4.60229 28.3932 4.60341C26.2108 4.60611 23.3006 4.52186 21.1182 4.47591C20.2947 4.45857 19.1968 4.41054 18.3732 4.40841C17.678 4.40661 16.7511 4.44933 16.0557 4.45341C15.1783 4.45855 14 4.34932 13.1307 4.43091C12.6128 4.47952 10.8534 4.37678 9.03575 4.65591C7.40438 4.90643 6.06976 5.21447 5.59325 5.41341C5.31466 5.52972 2.25152 7.40647 2.05325 7.63341C1.81869 7.90188 1.68426 8.40924 1.48325 8.71341C1.38144 8.86745 1.23108 9.16949 1.09325 9.19341C0.835247 9.23818 0.245319 8.85693 0.103246 8.59341C-0.0957101 8.22438 0.0312713 7.42619 0.163246 6.97341C0.245344 6.69174 0.484964 6.33583 0.673246 6.10341C0.930954 5.78529 1.37555 5.43839 1.69325 5.17341C2.05783 4.86932 2.56538 4.48744 2.95325 4.21341C3.40963 3.89097 4.00998 3.42165 4.51325 3.19341C5.08517 2.93404 5.93229 2.75074 6.55325 2.62341C7.68887 2.39054 9.23691 2.16089 10.3932 2.11341C11.6485 2.06186 13.3325 2.29191 14.5932 2.32341C16.9048 2.38116 19.9903 2.33432 22.3032 2.32341C24.2113 2.31441 26.7552 2.26847 28.6632 2.26341C30.8412 2.25764 33.7458 2.32365 35.9232 2.29341C38.4619 2.25815 41.8451 2.10087 44.3832 2.02341C45.7737 1.98097 47.6287 1.86741 49.0182 1.88841C50.3826 1.90902 52.2218 1.9412 53.5632 2.15841C54.3319 2.28286 58.5193 2.87226 59.3982 2.89341C60.6247 2.92292 61.906 3.15625 63.1332 3.22341C64.4827 3.29726 69.6432 3.15801 70.4532 3.14841C72.3701 3.12568 74.7168 2.78563 76.6332 2.74341C78.0917 2.71127 80.1017 2.63155 81.5532 2.50341C82.9093 2.38368 84.6967 2.21632 86.0532 2.11341C88.2297 1.94828 91.2817 1.84728 93.4632 1.72341C95.3309 1.61735 97.6922 1.60057 99.5532 1.39341C100.445 1.29411 101.631 1.12573 102.523 1.03341C103.466 0.935842 104.846 0.923907 105.793 0.883407C107.275 0.819997 109.141 0.823644 110.623 0.763407C112.949 0.668907 116.039 0.286077 118.363 0.133407C121.06 -0.0437508 124.667 -0.0114684 127.363 0.0434075C129.445 0.0857833 132.269 -0.127532 134.293 0.313407C135.792 0.639874 137.865 1.2333 139.153 2.02341C139.838 2.44318 140.887 3.22249 141.133 3.91341C141.394 4.64601 141.15 6.06892 140.773 6.79341C140.095 8.09755 138.213 9.49035 136.903 10.3034C135.546 11.1461 133.37 11.6767 131.863 12.2834C129.696 13.1561 126.83 14.3792 124.663 15.2534C121.729 16.4371 117.83 18.0556 114.853 19.1234C112.05 20.1292 108.246 21.2913 105.403 22.1834C103.276 22.8508 100.453 23.8038 98.2932 24.3434C96.3999 24.8164 94.9055 25.1125 93.0732 25.7384C92.2806 26.0092 90.9931 26.3914 90.5532 26.9984C90.1696 27.5277 90.232 28.7221 90.1932 29.4284C90.1483 30.2443 90.4809 34.0043 90.5982 34.9184C90.8009 36.4985 90.8616 38.6518 90.8232 40.2734C90.79 41.676 90.8997 43.5493 90.9132 44.9534C90.9316 46.8702 90.9543 49.4273 90.9132 51.3434C90.8187 55.7464 90.7045 61.6347 90.2832 66.0134C89.97 69.27 89.1042 73.5673 88.6632 76.8134C88.2422 79.9126 87.9298 84.0838 87.4032 87.1634C86.961 89.7497 86.3077 93.2209 85.5132 95.7134C84.7716 98.0401 83.4979 100.831 82.6332 103.123C82.1916 104.294 81.6879 105.866 81.4332 107.083C81.3523 107.47 81.1077 108.356 80.8932 108.523C80.6378 108.723 79.7346 108.487 79.3332 108.283C77.9521 107.584 76.4686 105.729 75.4932 104.443C74.1084 102.618 72.6949 99.811 71.7132 97.7234C70.584 95.3218 69.4839 91.9287 68.5332 89.4434C68.0997 88.31 67.4914 86.8091 67.0932 85.6634C63.9659 76.6656 63.2373 71.9016 60.6132 62.7434C60.0194 60.6708 56.2725 50.4965 55.7532 48.4034C55.3033 46.5899 55.0442 44.2212 54.6882 42.3884C54.4594 41.2099 54.0846 39.573 54.0732 38.3834C54.0642 37.4307 53.4118 33.2776 53.4132 32.3234C53.4174 29.534 53.659 28.5947 52.9332 25.9034C52.5502 24.4833 52.008 22.2536 51.0132 21.3434C50.3798 20.764 48.9292 20.4497 48.0132 20.3834C47.1641 20.3219 45.2209 20.3554 44.3532 20.3834C42.5788 20.4406 40.6636 20.2225 38.8932 19.9634C36.5378 19.6187 33.5141 19.1233 31.2132 18.5234C27.9539 17.6737 23.9125 16.2992 20.7132 15.2234C19.5505 14.8324 17.99 14.3369 16.8432 13.9034C15.4626 13.3816 13.7099 12.4078 12.2982 12.0134C11.2669 11.7253 9.8104 11.6307 8.7432 11.4734C7.89326 11.3481 6.76251 11.1082 5.9082 11.0684C5.35716 11.0427 4.51931 10.8683 4.0932 10.6484C3.78509 10.4894 3.29869 10.3321 3.3432 10.0334C3.3964 9.67651 5.33075 9.36082 5.98325 9.26841Z" sodipodi:nodetypes="csssssssssssssssssssssssssssssssssssssssssssssssssssssssssssssssssssssssssssssssssssssssssssssssssssssssssssssssssssssssssssssssssssssssssssssssssssssssssssssssssssssssscc"/><path id="shape13" transform="matrix(0.589424909559736 0 0 0.589424909559736 565.25233601054 218.942968026017)" fill="#00426b" fill-rule="evenodd" stroke-opacity="0" stroke="#000000" stroke-width="0" stroke-linecap="square" stroke-linejoin="bevel" d="M0.00269724 11.0487C-0.0664503 10.9631 1.21101 9.51733 1.8702 9.0687C3.04402 8.26983 5.0133 7.79078 6.3702 7.2687C8.89537 6.29711 12.2323 4.86448 14.8302 4.1412C17.2451 3.46887 20.5812 2.95148 23.0652 2.5662C24.6966 2.31317 26.908 2.19815 28.5327 1.9137C30.4137 1.58439 32.8569 0.749848 34.7427 0.473702C36.33 0.241271 38.4897 0.194733 40.0977 0.136202C43.5302 0.0112667 48.1144 0.0284362 51.5502 0.023702C53.4605 0.0210698 56.0075 0.0736947 57.9177 0.068702C59.5648 0.064397 61.7609 -0.0102976 63.4077 0.00120196C67.0059 0.0263287 71.808 0.120628 75.4002 0.316201C77.7979 0.446739 80.9821 0.883874 83.3802 0.976201C84.9975 1.03847 87.162 0.89682 88.7802 0.946201C89.9965 0.983319 91.6139 1.1721 92.8302 1.2162C94.3495 1.27129 96.3792 1.23613 97.9002 1.2462C100.357 1.26247 103.727 0.826208 106.09 1.3062C106.835 1.45754 107.731 2.12707 108.475 2.2962C109.45 2.51756 110.837 2.45451 111.85 2.4762C114.427 2.53137 117.871 2.29954 120.445 2.3862C122.527 2.45628 125.3 2.7289 127.375 2.9262C128.7 3.05216 130.477 3.18941 131.785 3.4212C132.85 3.6099 134.294 3.88728 135.295 4.2762C135.831 4.48434 136.509 4.8867 136.99 5.2062C137.448 5.50972 138.238 5.90073 138.43 6.3462C138.613 6.76981 138.453 7.6107 138.28 8.0862C137.965 8.95408 137.03 9.93634 136.45 10.6962C135.424 12.0422 133.964 13.7709 132.85 15.0462C132.029 15.9861 130.929 17.2431 130.03 18.1062C127.548 20.4899 123.896 23.3119 121.27 25.5462C119.928 26.688 118.161 28.2369 116.8 29.3562C115.638 30.3125 113.96 31.4459 112.87 32.4762C111.841 33.4492 110.714 35.0021 109.72 36.0162C108.785 36.9703 107.457 38.1666 106.45 39.0462C105.257 40.0891 103.597 41.4019 102.37 42.4062C97.1609 46.6699 90.4504 52.6944 84.9627 56.5662C83.9454 57.2839 82.4519 58.044 81.4077 58.7262C80.2765 59.4654 78.8302 60.5454 77.7177 61.3137C76.7102 62.0094 75.3673 62.9386 74.3427 63.6087C73.2286 64.3374 71.73 65.2921 70.5852 65.9712C69.229 66.7758 67.3547 67.737 65.9952 68.5362C65.0652 69.0829 63.8502 69.8544 62.9352 70.4262C61.7568 71.1625 60.1366 72.0798 59.0202 72.9012C58.5431 73.2522 57.9762 73.813 57.5127 74.1837C55.784 75.566 53.3008 77.1913 51.6102 78.6162C50.7694 79.3249 49.7152 80.3544 48.9402 81.1362C48.4653 81.6154 47.7966 82.2399 47.4102 82.7862C47.1775 83.1153 46.6972 83.7071 46.7802 83.9862C46.8707 84.2904 47.656 84.5784 48.0702 84.7062C49.2948 85.084 51.1154 84.977 52.4202 85.0962C53.5814 85.2023 55.1347 85.3064 56.2902 85.4562C57.7008 85.6391 59.5757 85.955 60.9702 86.2362C61.8492 86.4135 62.9958 86.7978 63.8802 86.9262C65.3197 87.1352 67.2826 87.1087 68.7402 87.1962C69.8565 87.2632 71.3449 87.3552 72.4602 87.4362C75.3014 87.6427 79.1058 87.8221 81.9252 88.2012C83.1489 88.3658 84.7507 88.8129 85.9752 88.9662C87.4755 89.154 89.5022 89.2615 91.0152 89.2812C92.4992 89.3005 94.4799 89.1461 95.9652 89.1012C97.0855 89.0673 98.5796 89.0161 99.7002 89.0112C100.578 89.0074 101.779 88.8865 102.625 89.0562C103.186 89.1687 103.867 89.6328 104.425 89.7762C105.17 89.9674 106.218 90.028 106.99 90.0912C107.972 90.1716 109.289 90.2143 110.275 90.2262C111.071 90.2358 112.134 90.1964 112.93 90.1812C113.565 90.1691 114.411 90.1223 115.045 90.1362C115.667 90.1498 116.508 90.1577 117.115 90.2712C117.599 90.3616 118.213 90.6346 118.69 90.7662C119.252 90.9211 120.006 91.1343 120.58 91.2162C121.926 91.4081 123.786 91.2226 125.125 91.4412C126.446 91.6567 128.156 92.2692 129.445 92.6562C131.06 93.141 133.217 93.7891 134.8 94.3662C136.033 94.8158 137.963 95.1871 138.85 96.0312C139.535 96.6831 140.052 98.1254 140.29 99.0912C140.436 99.6829 140.325 100.543 140.38 101.161C140.425 101.663 140.539 102.327 140.605 102.826C140.66 103.245 140.794 103.804 140.785 104.221C140.774 104.776 140.791 105.727 140.47 106.066C139.742 106.836 137.586 106.918 136.33 107.011C135.115 107.101 133.465 106.75 132.235 106.696C130.901 106.638 129.117 106.658 127.78 106.651C126.025 106.642 123.685 106.63 121.93 106.651C119.662 106.678 116.638 106.775 114.37 106.831C112.264 106.883 109.457 106.984 107.35 107.011C105.663 107.033 103.413 107.024 101.725 107.011C100.011 106.998 97.7241 106.9 96.0102 106.921C92.1118 106.969 86.9184 107.327 83.0202 107.446C80.393 107.526 76.8882 107.573 74.2602 107.626C71.5782 107.681 68.0023 107.802 65.3202 107.806C62.0803 107.812 57.76 107.616 54.5202 107.626C51.352 107.636 47.1286 107.816 43.9602 107.866C41.9084 107.899 39.172 107.942 37.1202 107.926C34.1588 107.903 30.2115 107.743 27.2502 107.686C25.3334 107.649 22.7605 107.788 20.8602 107.596C19.2803 107.436 17.1656 107.044 15.6402 106.606C14.5029 106.279 13.0756 105.543 11.9502 105.166C11.1001 104.882 9.76156 104.844 9.07017 104.356C8.45845 103.925 7.76967 102.917 7.54017 102.196C7.3607 101.632 7.41572 100.721 7.54017 100.126C7.63467 99.6744 8.12792 99.1321 8.17017 98.6862C8.22475 98.1102 7.81103 97.3069 7.72017 96.7062C7.66766 96.3591 7.54825 95.8596 7.63017 95.5362C7.86197 94.6211 8.84314 93.5488 9.43017 92.7462C10.73 90.969 12.6391 88.7171 14.1102 87.0762C15.9694 85.0022 18.7071 82.4701 20.5902 80.4162C22.1807 78.6814 24.1333 76.2145 25.7202 74.4762C27.8693 72.122 30.8043 69.0361 33.1002 66.8262C35.5508 64.4674 38.7816 61.186 41.5602 59.2662C43.3742 58.0129 46.1583 56.8704 48.1302 55.8462C51.0988 54.3044 55.0055 52.1389 58.0302 50.7162C60.6557 49.4813 64.4135 48.3345 66.9402 46.9362C68.7457 45.937 70.9537 44.2233 72.6102 42.9762C74.2195 41.7646 76.3823 40.138 77.8302 38.7462C78.8885 37.729 80.3659 36.3132 81.0702 35.0562C81.4622 34.3567 81.8616 33.2345 81.8802 32.4462C81.8973 31.7221 81.586 30.6698 81.2502 30.0162C80.6177 28.7851 79.3654 27.0921 78.2202 26.3862C76.6235 25.402 73.7479 25.2026 71.8002 24.8862C69.308 24.4813 65.908 24.0125 63.4002 24.1062C62.0074 24.1582 60.167 24.8813 58.7802 24.8862C56.9992 24.8925 54.6261 24.1872 52.8402 23.9262C50.5053 23.5849 47.3712 23.2697 45.0402 22.9062C41.9503 22.4244 37.8311 21.7259 34.7802 21.0462C31.7654 20.3745 27.7949 19.2453 24.8202 18.4062C22.3431 17.7074 19.1151 16.4297 16.6002 15.9462C16.1058 15.8512 15.4155 15.8882 14.9202 15.7962C14.343 15.689 13.3305 15.6316 13.0302 15.2562C12.7892 14.9549 12.7171 13.9175 12.9402 13.6812C13.3667 13.2297 15.0671 13.5606 15.9552 13.6812C17.4956 13.8905 19.4762 14.685 20.9952 15.0762C22.7421 15.5261 25.0959 16.0301 26.8452 16.4712C29.3915 17.1133 32.7527 18.1067 35.3052 18.7212C37.1711 19.1704 39.6698 19.7474 41.5602 20.0712C43.6642 20.4316 46.5013 20.7418 48.6252 20.9712C50.902 21.2172 53.9443 21.5383 56.2302 21.6462C58.5612 21.7562 61.6813 21.6231 64.0152 21.6912C65.5553 21.7362 67.6236 21.7532 69.1452 21.9612C72.3953 22.4055 77.0663 22.8436 79.8552 24.3462C80.8582 24.8866 82.0843 26.1158 82.6902 27.0912C83.2561 28.0023 83.6795 29.5228 83.8152 30.6012C84.0094 32.1444 84.0429 34.4596 83.5002 35.8662C83.1379 36.8051 82.0078 37.8346 81.2952 38.6112C80.4513 39.5308 79.1904 40.6333 78.2802 41.4912C76.9386 42.7557 75.2686 44.6148 73.7802 45.6762C71.2934 47.4495 67.4741 49.129 64.7202 50.5062C62.7834 51.4747 60.1567 52.6806 58.1802 53.5662C56.1788 54.463 53.4302 55.4876 51.4602 56.4462C49.7093 57.2982 47.3772 58.4905 45.7602 59.5662C44.2515 60.5698 42.4388 62.208 41.0202 63.3462C39.5226 64.5478 37.4496 66.0684 36.0402 67.3662C32.8999 70.2577 29.1534 74.5913 26.2002 77.6862C24.293 79.6849 21.7335 82.3343 19.8402 84.3462C18.915 85.3294 17.7166 86.6739 16.7802 87.6462C15.9328 88.5262 14.7081 89.6126 13.9002 90.5262C13.2812 91.2262 12.4917 92.2059 11.9802 92.9862C11.4653 93.7716 10.7703 94.8655 10.4802 95.7462C10.2396 96.4765 10.1742 97.5485 10.1202 98.3262C10.0742 98.989 10.0453 99.8887 10.1202 100.546C10.1742 101.02 10.2374 101.724 10.4802 102.106C10.6423 102.361 11.039 102.627 11.3202 102.766C12.3965 103.298 14.0743 103.591 15.2802 103.786C16.8233 104.036 18.9404 103.98 20.5002 104.146C22.2532 104.333 24.5694 104.774 26.3202 104.986C27.9716 105.186 30.1803 105.436 31.8402 105.526C33.4385 105.613 35.5785 105.554 37.1802 105.586C38.4224 105.611 40.078 105.688 41.3202 105.706C42.274 105.72 43.5525 105.783 44.5002 105.706C45.6056 105.616 47.0562 105.158 48.1602 105.106C49.4671 105.045 51.2247 105.361 52.5402 105.406C54.9674 105.489 58.2115 105.35 60.6402 105.406C62.2071 105.442 64.2939 105.638 65.8602 105.646C67.9118 105.657 70.6476 105.442 72.7002 105.406C74.2837 105.378 76.3962 105.406 77.9802 105.406C79.4022 105.406 81.2982 105.412 82.7202 105.406C84.8713 105.397 87.7392 105.355 89.8902 105.346C92.2122 105.336 95.3085 105.37 97.6302 105.346C100.276 105.319 103.804 105.204 106.45 105.166C109.663 105.12 113.947 105.09 117.16 105.076C119.806 105.065 123.334 105.051 125.98 105.076C127.384 105.09 129.256 105.169 130.66 105.166C131.821 105.164 133.378 104.988 134.53 105.076C135.292 105.135 136.432 105.759 137.05 105.526C137.468 105.369 137.968 104.638 138.13 104.176C138.451 103.263 138.352 101.732 138.13 100.756C137.982 100.102 137.597 99.1506 137.14 98.6862C136.14 97.6679 134.035 97.0014 132.64 96.4362C130.573 95.5984 127.711 94.6192 125.53 94.1862C121.832 93.4519 116.699 93.5274 112.93 93.1062C109.789 92.7552 105.634 91.975 102.49 91.6662C101.576 91.5764 100.348 91.4904 99.4302 91.4862C95.6242 91.4688 90.4794 92.534 86.7402 92.1162C85.5578 91.9841 84.0488 91.273 82.8702 91.0362C81.5932 90.7797 79.8513 90.5772 78.5502 90.4962C77.2054 90.4125 75.3995 90.5283 74.0502 90.4962C72.3483 90.4557 70.0728 90.393 68.3802 90.2262C67.2948 90.1192 65.851 89.8953 64.7802 89.6862C63.9904 89.532 62.9598 89.212 62.1702 89.0562C59.6799 88.5646 56.3024 88.2036 53.8002 87.7662C52.1384 87.4757 49.933 87.0261 48.2802 86.6862C46.4406 86.3079 43.0062 86.5005 42.1602 85.3662C41.9488 85.0827 42.0963 84.2062 42.2802 83.8062C42.4997 83.329 43.184 82.8596 43.6002 82.4862C45.3511 80.9153 47.8666 79.0197 49.7202 77.5662C52.1451 75.6648 55.3368 73.058 57.8802 71.3262C60.0662 69.8377 63.1493 68.0947 65.4402 66.7662C67.9353 65.3192 71.3943 63.6092 73.8402 62.0862C76.736 60.2831 80.4096 57.5748 83.2002 55.6062C85.5187 53.9707 88.6499 51.8361 90.8802 50.0862C93.3188 48.1729 96.4078 45.4114 98.7402 43.3662C101.088 41.3076 104.195 38.5342 106.48 36.4062C108.036 34.9575 110.024 32.9343 111.58 31.4862C113.138 30.0362 115.241 28.1264 116.86 26.7462C118.516 25.3354 120.792 23.5335 122.5 22.1862C123.427 21.455 124.726 20.5545 125.62 19.7862C126.507 19.0241 127.633 17.933 128.44 17.0862C129.99 15.4604 131.802 13.0484 133.36 11.4312C134.181 10.5795 135.749 9.72542 136.24 8.7312C136.409 8.38951 136.528 7.69122 136.375 7.3812C136.107 6.83623 135.005 6.37631 134.35 6.1212C132.878 5.54816 130.669 5.403 129.085 5.1312C126.918 4.75922 124.027 4.1869 121.84 4.0062C119.371 3.80212 116.044 3.92095 113.56 3.9162C111.643 3.91253 109.082 4.05158 107.17 3.9612C105.708 3.89211 103.771 3.57121 102.31 3.4662C100.707 3.35099 98.5622 3.29205 96.9552 3.2412C95.6866 3.20106 93.994 3.18386 92.7252 3.1512C82.1445 2.87888 68.0417 2.30895 57.4602 2.0862C54.4368 2.02256 50.4041 1.95858 47.3802 1.9662C45.2561 1.97156 42.4131 1.91394 40.3002 2.0862C38.3279 2.247 35.7308 2.84083 33.7602 3.0462C31.4483 3.28714 28.2951 3.11885 26.0202 3.5262C24.3108 3.83231 22.1004 4.66021 20.4402 5.2062C18.6614 5.79121 16.3273 6.68484 14.5602 7.3062C13.6258 7.63477 12.3922 8.11938 11.4402 8.3862C10.0506 8.77566 8.14794 9.12389 6.73022 9.4062C5.39816 9.67146 3.60651 9.94736 2.27522 10.2162C1.66533 10.3394 0.0873346 11.1535 0.00269724 11.0487Z" sodipodi:nodetypes="csssssssssssssssssssssssssssssssssssssssssssssssssssssssssssssssssssssssssssssssssssssssssssssssssssssssssssssssssssssssssssssssssssssssssssssssssssssssssssssssssssssssssssssssssssssssssssssssssssssssssssssssssssssssssssssssssssssssssscc"/>
</svg>
