<?xml version="1.0" encoding="UTF-8" standalone="no"?>
<svg
   class="logo"
   width="1000mm"
   height="132mm"
   viewBox="0 0 1000 132"
   version="1.1"
   id="svg1"
   xml:space="preserve"
   inkscape:version="1.3.2 (091e20e, 2023-11-25, custom)"
   sodipodi:docname="logoHtm.svg"
   xmlns:inkscape="http://www.inkscape.org/namespaces/inkscape"
   xmlns:sodipodi="http://sodipodi.sourceforge.net/DTD/sodipodi-0.dtd"
   xmlns="http://www.w3.org/2000/svg"
   xmlns:svg="http://www.w3.org/2000/svg"><sodipodi:namedview
   id="namedview1"
   bordercolor="#000000"
   borderopacity="0.25"
   inkscape:showpageshadow="2"
   inkscape:pageopacity="0.0"
   inkscape:pagecheckerboard="0"
   inkscape:document-units="mm"
   showguides="true"
   inkscape:zoom="2.9113075"
   inkscape:cx="3528.8268"
   inkscape:cy="95.661485"
   inkscape:window-width="2880"
   inkscape:window-height="1514"
   inkscape:window-x="5749"
   inkscape:window-y="-11"
   inkscape:window-maximized="1"
   inkscape:current-layer="g2"
   pagecolor="#ffffff"
   inkscape:deskcolor="#d1d1d1" /><defs
   id="defs1"><clipPath
     clipPathUnits="userSpaceOnUse"
     id="clipPath3"><g
       id="g4"
       transform="matrix(0.61612799,0,0,0.61612799,32.439877,210.63208)"><rect
         style="fill:none;fill-opacity:1;stroke-width:0.433817"
         id="rect3"
         width="1001.2911"
         height="127.82159"
         x="-0.46015257"
         y="3.55235" /></g></clipPath><clipPath
     clipPathUnits="userSpaceOnUse"
     id="clipPath4"><g
       id="g5"><rect
         style="fill:none;fill-opacity:1;stroke-width:0.433817"
         id="rect4"
         width="1001.2911"
         height="127.82159"
         x="-0.46015257"
         y="3.55235" /></g></clipPath><clipPath
     clipPathUnits="userSpaceOnUse"
     id="clipPath5"><g
       id="g6"><rect
         style="fill:none;fill-opacity:1;stroke-width:0.433817"
         id="rect5"
         width="1001.2911"
         height="127.82159"
         x="-0.46015257"
         y="3.55235" /></g></clipPath><clipPath
     clipPathUnits="userSpaceOnUse"
     id="clipPath6"><g
       id="g7"><rect
         style="fill:none;fill-opacity:1;stroke-width:0.433817"
         id="rect6"
         width="1001.2911"
         height="127.82159"
         x="-0.46015257"
         y="3.55235" /></g></clipPath></defs><g
   inkscape:label="Layer 1"
   inkscape:groupmode="layer"
   id="layer1"><path
     id="shape0"
     d="m 68.380694,12.069362 c -2.569006,-0.01489 -4.975127,0.924611 -7.534186,1.187402 -2.140138,0.219787 -3.69191,0.288677 -5.622801,1.200174 -2.459869,1.161206 -8.242319,1.712022 -10.692794,2.735195 -2.341324,0.977608 -5.522163,2.667786 -7.834978,3.707385 -2.12684,0.956035 -4.904776,1.845633 -6.974121,2.922733 -2.502996,1.302869 -5.122416,2.827869 -7.44776,4.405109 -1.168844,0.792876 -2.711609,2.366226 -3.800763,3.275433 -1.609574,1.343814 -5.196267,3.361353 -6.611643,4.606539 -2.3504674,1.865768 -4.415398,3.482227 -6.0328275,5.262183 -0.9219688,1.01463 -1.4364424,2.794771 -1.9865239,4.029529 -0.45598,1.023527 -1.313285,1.698193 -1.4424966,2.830206 -0.1282731,1.123881 0.00802,3.326137 0.2762196,4.390705 0.2419213,0.960293 0.7362335,2.201821 1.3734722,2.985035 1.1608746,1.426951 3.7079102,2.924179 5.1991948,4.040885 1.4225204,1.065333 2.9181704,2.454025 4.5015354,3.248432 2.924979,1.46751 8.166105,2.557173 11.31743,3.473363 2.038923,0.592747 3.817391,1.403489 5.902234,1.836662 2.142625,0.445229 2.538965,-0.288315 4.688287,0.122185 2.035384,0.388691 7.611545,1.501135 9.632483,1.950763 1.747525,0.388786 3.661369,1.696032 5.395886,2.145755 0.206158,0.05348 0.659493,0.126529 0.937113,0.298249 0.202525,0.125227 -2.155365,1.398321 -3.089253,1.789497 -0.933888,0.391178 -2.337515,1.227391 -3.444272,1.758146 -1.805116,0.865775 -4.193218,2.769059 -5.942656,3.721698 -3.306591,1.800619 -4.128622,2.861062 -6.995818,5.307136 -1.843861,1.573129 -3.680778,2.864307 -5.321252,4.663686 -0.567297,0.622304 -4.986413,4.242201 -5.388398,4.96247 -0.465224,0.83363 -1.025977,2.213199 -1.263324,3.157037 -0.337029,1.340564 0.06198,2.097156 0.03969,3.461346 -0.01789,1.09901 -0.668335,3.5042 -0.269312,4.51682 0.4392,1.11441 1.429833,2.55532 2.296181,3.38666 1.086093,1.04084 1.999164,0.80952 3.414443,1.32803 1.937614,0.70889 5.799109,2.45207 7.893614,2.57548 2.792195,0.16358 8.036043,-1.07257 10.831015,-1.30217 2.836105,-0.23343 5.157452,-0.008 7.938361,-0.59154 2.851029,-0.59887 6.587874,-1.60263 9.356726,-2.5258 2.758616,-0.92031 5.006844,-2.65716 7.698876,-3.76038 2.924118,-1.19821 8.159271,-2.57458 11.012883,-3.93141 2.287269,-1.08753 5.333532,-2.572771 7.519781,-3.845891 1.351755,-0.787137 3.094328,-1.951986 4.361897,-2.869802 1.99329,-1.443214 4.707413,-3.371736 6.429314,-5.109215 0.763414,-0.770109 1.760239,-1.912189 2.238569,-2.869803 0.49172,-0.985452 0.20388,-2.151368 0.41052,-3.252481 -0.11183,-1.213759 0.43034,-2.774517 0.13378,-3.59447 -0.50608,-1.400258 -2.40607,-2.382394 -3.64112,-3.483603 -0.912626,-0.813636 -1.660515,-2.369407 -2.70126,-2.98645 -1.327075,-0.786757 -4.007286,-1.356516 -5.479676,-1.867373 -1.336833,-0.463786 -2.410757,-0.317219 -3.770837,-0.714232 -1.412311,-0.412222 -2.552981,-1.226547 -3.99447,-1.450693 -0.708789,-0.110204 -2.514832,-0.52375 -3.22821,-0.616833 -0.436524,-0.05692 -1.194152,-0.0725 -1.435326,-0.344003 -0.160528,-0.180714 -0.201345,-0.725541 -0.114385,-0.97609 0.258774,-0.745331 1.763701,-1.450426 2.468182,-1.95133 1.429726,-1.016448 3.355205,-1.998824 4.936366,-2.813034 3.636925,-1.872656 4.576471,-2.607147 8.121365,-4.649132 1.726957,-0.994732 7.731191,-4.391787 9.528731,-5.2236 0.14732,-0.06811 0.36187,-0.171045 0.51685,-0.172001 0.10715,-6.7e-4 0.2551,0.07055 0.35841,0.115232 0.20186,0.08763 0.52415,0.196445 0.64564,0.358408 0.16168,0.216014 0.16643,0.670671 0.21521,0.961684 0.0689,0.409642 0.10775,0.964913 0.15846,1.377709 0.39414,3.189113 2.40807,7.412954 3.0232,10.560739 0.41902,2.143869 -0.29145,4.99046 0.2194,7.118162 0.44868,1.868542 0.98358,4.37548 1.37772,6.256459 0.63331,3.024277 2.48472,8.108232 3.05202,11.145427 0.51373,2.749241 -0.0642,4.697019 0.13382,6.146257 0.1588,1.16186 1.16418,9.596739 1.54971,10.719189 0.31092,0.90633 0.52498,2.22449 1.06166,2.98503 0.35493,0.50225 1.05152,1.21029 1.60734,1.37771 0.72897,0.21907 2.10776,0.0511 2.75542,-0.344 0.71366,-0.43624 1.19079,-1.66768 1.50649,-2.5258 0.26212,-0.71271 0.34747,-1.72224 0.50245,-2.41142 0.11767,-0.52453 0.27895,-1.35708 0.344,-1.90812 0.0641,-0.5473 0.32019,-0.99765 0.40247,-1.53615 0.0861,-0.56414 0.38898,-1.28927 0.57362,-1.8361 0.2583,-0.7636 0.60182,-1.78544 0.91848,-2.525796 1.15944,-2.715471 1.93314,-5.513088 3.07061,-8.236598 0.77011,-1.845582 2.14042,-5.210549 2.80721,-7.100425 0.91266,-2.588904 0.61688,-2.510853 1.56972,-5.085503 1.2781,-3.45516 3.98099,-10.433455 5.2964,-13.87474 0.34249,-0.8961 1.61284,-3.274474 1.89315,-4.189612 0.33483,-1.095657 0.41936,-2.729078 0.64513,-3.854968 0.18176,-0.907294 1.02759,-1.763529 1.24858,-2.659917 0.19899,-0.806748 0.57534,-1.876744 0.77528,-2.683397 0.14637,-0.591978 0.31276,-1.365911 0.43043,-1.965734 0.0689,-0.350329 0.0795,-0.877793 0.25842,-1.162495 0.11576,-0.183296 0.43694,-0.489904 0.60244,-0.47364 0.17124,0.01684 0.43553,0.393864 0.51685,0.603277 0.14062,0.363626 0.0252,0.964623 0.0424,1.377709 0.0421,1.033572 0.16806,2.410043 0.17284,3.443424 0.005,1.239637 -0.12406,2.893203 -0.17284,4.133127 -0.12246,3.099279 0.14535,7.337576 0.13961,10.437334 -0.003,1.52386 -0.42754,3.451196 -0.35483,4.974193 0.10044,2.119378 0.19498,4.95456 0.43128,7.060546 0.17794,1.584701 0.75315,4.037869 1.17695,5.567661 0.50129,1.810665 1.09443,3.903331 2.00804,5.538738 1.10686,1.980472 2.97263,4.49795 4.56356,6.113265 1.38237,1.403991 3.52755,3.105255 5.25241,4.046701 0.99875,0.5453 2.49805,1.13468 3.61542,1.29128 1.55649,0.21822 4.05909,-0.51365 5.54957,-0.9762 1.45221,-0.45068 3.32066,-1.020962 4.56719,-1.951215 1.42829,-1.06562 3.16686,-2.797837 4.34833,-4.132279 1.48857,-1.682089 2.56272,-4.8563 3.55861,-6.850831 0.95474,-1.912358 2.19922,-4.127412 2.64024,-6.236554 0.52996,-2.531603 0.57595,-6.197579 0.66492,-8.787249 0.10619,-3.117363 -0.0223,-7.34434 -0.0864,-10.471075 -0.0536,-2.581828 -0.23118,-5.773733 -0.39668,-8.345992 -0.0909,-1.400642 0.33536,-3.241603 0.18422,-4.63966 -0.0966,-0.901936 -0.35192,-2.129539 -0.62361,-2.970632 -0.13584,-0.418825 -0.49979,-0.937798 -0.77528,-1.291284 -0.24586,-0.314358 -0.81813,-0.604701 -0.94728,-0.947281 -0.13393,-0.353007 -0.36632,-1.202634 -0.20081,-1.54971 0.18176,-0.383047 -0.31624,-1.35961 0.0607,-1.607385 0.41899,-0.275901 2.46128,-1.007799 2.94822,-1.10136 0.64288,-0.123505 1.52483,1.146837 2.18589,1.244608 0.60365,0.08926 1.59364,0.145767 1.98013,0.516852 0.61226,0.587676 0.77317,2.149461 0.94728,3.099421 0.27839,1.517643 0.47615,3.618019 0.60243,5.165984 0.15307,1.887772 0.23295,4.395583 0.34485,6.285267 0.13393,2.268136 1.34975,4.707297 1.3641,6.980506 0.0153,2.531026 -0.94534,6.518387 -0.76166,9.034299 0.24107,3.300563 0.47264,6.889257 0.68885,10.189343 0.13297,2.028495 0.54726,5.520211 0.68885,7.547173 0.13106,1.872276 0.32915,4.348764 0.68885,6.198842 0.49938,2.57054 1.05377,6.059292 1.89372,8.523832 0.82655,2.42436 1.80963,5.53963 3.07146,7.77822 0.60748,1.07812 1.44529,3.51758 2.41056,4.01788 1.01693,0.52712 3.55165,-0.10387 4.82114,-0.34399 2.06065,-0.39032 4.72308,-1.15953 6.7445,-1.80815 3.26795,-1.04943 7.6029,-2.65441 10.84882,-3.76031 2.70161,-0.92124 6.3683,-2.92998 8.92545,-4.1899 2.78962,-1.37443 6.46345,-3.70761 9.04069,-5.45322 3.16463,-2.14377 7.07326,-4.842744 10.01592,-7.290161 1.50865,-1.254653 3.56993,-2.913615 4.8796,-4.361896 1.40533,-1.554857 1.43436,-2.923003 2.34415,-4.788771 0.81125,-1.664391 2.33739,-5.076855 2.61577,-6.920906 0.24204,-1.6046 0.16425,-4.590996 -0.0338,-6.198274 -0.28508,-2.31425 -0.14335,-4.664093 -1.02348,-6.831496 -0.65818,-1.620098 -1.77814,-3.75806 -2.84099,-5.137175 -1.46656,-1.9026 -3.92376,-4.157787 -5.74046,-5.768414 -2.09987,-1.861176 -5.08254,-4.116638 -7.34693,-5.769262 -1.95828,-1.429435 -4.69367,-3.193639 -6.80211,-4.390705 -2.3266,-1.320857 -4.9485,-1.870329 -7.41094,-2.917199 -1.9669,-0.836118 -4.86203,-2.54854 -6.93893,-2.880023 -1.78032,-0.284128 -4.70893,-0.542271 -6.54285,-0.631237 -1.49335,-0.07242 -2.49326,-0.06773 -3.67473,-0.0949 -1.10399,-0.02535 -2.38978,0.01011 -3.78743,0.03728 -1.98985,0.03874 -5.04667,0.182124 -7.03174,0.315195 -0.54336,0.03645 -2.604,0.44752 -3.12822,0.574469 -0.80264,0.194585 -2.18719,0.632217 -2.98504,0.860856 -0.97866,0.280493 -2.34283,0.540438 -3.35785,0.60243 -1.38524,0.08466 -3.25337,-0.218834 -4.64913,-0.257579 -1.05807,-0.02937 -2.48996,-0.13929 -3.52985,0 -0.86769,0.116234 -1.32164,0.5792 -1.94538,1.090532 -0.57112,0.467998 -1.86311,1.332585 -2.10132,2.094466 -0.37597,1.204623 -0.48476,2.948057 -0.60243,4.219551 -0.22194,2.391163 -0.20231,5.607204 -0.34485,8.006979 -0.1215,2.042559 -0.32553,4.765016 -0.51686,6.802119 -0.23821,2.535621 0.42239,4.667492 0.28081,7.206746 -0.0718,1.28747 -0.87001,4.29 -0.92645,5.579001 -0.065,1.475164 -0.37536,3.44897 -0.73121,4.864345 -0.42572,1.695483 -0.77897,3.886201 -1.63614,5.424411 -0.87056,1.562794 -1.37196,3.337594 -2.497,4.735555 -0.54912,0.682003 -1.94053,1.989632 -2.58341,2.58257 -0.7682,0.708882 -2.10523,1.360094 -3.0418,1.721712 -0.6247,0.241075 -2.37225,0.334901 -3.07061,0.34485 -1.13556,0.01617 -3.90767,-0.09147 -4.80311,-0.582525 -1.34312,-0.736147 -2.58385,-2.103076 -3.48215,-3.549638 -0.88297,-1.4214 -1.69884,-3.894245 -2.36372,-5.425373 -0.71367,-1.641718 -0.47893,-4.103979 -0.80228,-5.853991 -0.42763,-2.316451 -0.48273,-5.545926 -0.60327,-7.921402 -0.15881,-3.126547 -0.42609,-7.290413 -0.51601,-10.418392 -0.12341,-4.258369 -0.36605,-10.262695 -0.47415,-14.521922 -0.0775,-3.062738 0.45951,-6.884514 -0.0427,-9.887078 -0.0995,-0.592648 -0.28371,-1.412199 -0.55922,-1.936927 -0.25065,-0.477561 -0.8081,-0.70953 -1.18885,-1.104819 -0.20281,-0.210178 -0.4522,-0.893534 -0.70571,-0.961744 -0.17125,-0.04592 -0.46771,0.05369 -0.64564,0.128791 -0.26883,0.113074 -0.63397,0.340417 -0.81765,0.560064 -0.33196,0.397205 -0.54552,1.13303 -0.73207,1.636135 -0.37788,1.02104 -0.78688,2.425895 -1.0337,3.486637 -0.20759,0.891795 -0.31033,2.121474 -0.51601,3.013844 -0.4458,1.936656 -1.12019,7.13692 -1.64061,9.057696 -0.99589,3.675667 -2.25113,5.969007 -3.31015,9.625254 -0.49555,1.709354 -0.35077,2.848944 -0.95729,4.522041 -0.46395,1.280008 -1.54866,4.294052 -2.05187,5.559803 -1.21878,3.064843 -1.90723,4.934029 -3.1662,7.982417 -0.80072,1.939239 -3.31767,6.523543 -4.17101,8.440109 -0.7175,1.611584 -0.7458,2.848791 -1.49962,4.44392 -0.47354,1.002672 -1.99425,3.286907 -2.5759,4.223953 -0.20568,0.331769 -0.48658,0.892997 -0.80324,1.032857 -0.18081,0.07998 -0.58862,0.05316 -0.74647,-0.05762 -0.44006,-0.308045 -0.66952,-1.303745 -0.86085,-1.893714 -0.37119,-1.145884 -0.58597,-2.768651 -0.80409,-3.961125 -0.25065,-1.372708 -0.52081,-3.214026 -0.74562,-4.591515 -0.46303,-2.841558 -1.34353,-4.474194 -1.89456,-7.298532 -0.44676,-2.286698 -1.08843,-7.279403 -1.72171,-9.519512 -0.5233,-1.852471 -1.21267,-4.458448 -1.72257,-6.314075 -0.54912,-1.999318 -1.06853,-3.940814 -1.77933,-5.869243 -0.309,-0.836979 -0.73411,-2.52561 -0.96084,-3.372251 -0.16454,-0.61475 -0.3299,-1.736097 -0.1864,-2.352951 0.16263,-0.696732 0.64404,-1.689211 1.14724,-2.181796 0.62853,-0.615512 2.04027,-1.373133 2.87065,-1.779328 2.1391,-1.046635 4.39391,-2.916037 6.7983,-4.109538 1.66242,-0.825202 2.06015,-1.536091 3.51529,-2.304092 1.71913,-0.907332 2.52802,-1.332591 3.91613,-2.018409 0.23024,-0.113754 0.90005,-0.145978 1.17403,-0.316325 0.84372,-0.524838 2.46474,-1.505086 4.39378,-2.479006 1.44369,-0.728879 2.77958,-0.977239 3.39136,-1.400779 1.11547,-0.772503 2.78947,-1.994539 3.93842,-2.711074 0.92605,-0.577536 2.20278,-0.834679 3.12213,-1.421205 0.43432,-0.276953 1.10565,-1.460055 1.3295,-1.872758 -0.25015,-0.245701 0.69057,-0.996767 0.68961,-1.635908 -9.5e-4,-0.565769 -0.3429,-1.044206 -0.41178,-1.313314 -0.0775,-0.299913 -0.33914,-0.716714 -0.57448,-0.918473 -0.19037,-0.162824 -0.55164,-0.285456 -0.80324,-0.344004 -0.62852,-0.146273 -1.42494,0.200219 -2.07643,0.228058 -1.24458,0.05319 -2.99781,0.06051 -4.23764,0.231178 -0.75767,0.104276 -1.66437,0.302536 -2.41057,0.459237 -0.73471,0.154118 -1.71996,0.440687 -2.43937,0.660046 -1.28096,0.3907 -2.94621,0.941599 -4.22718,1.334496 -1.30199,0.399597 -2.95419,0.965228 -4.25429,1.370084 -1.45603,0.453074 -3.55352,1.146454 -5.03634,1.456507 -2.58872,0.541563 -6.33225,1.469549 -8.98889,1.549143 -2.23473,0.06697 -5.82156,0.990807 -7.68567,0.142909 -1.53862,-0.699838 -3.566978,-1.483959 -5.252708,-1.462434 -0.792877,0.01014 -1.898967,-0.0021 -2.640184,0.229618 -0.258777,0.08093 -0.562162,0.321477 -0.80324,0.459236 -0.241076,0.137759 -0.683548,0.251546 -0.804087,0.459237 -0.179374,0.30919 -0.180618,1.070717 0,1.377709 0.154979,0.263366 0.728435,0.394425 1.033705,0.574469 0.279823,0.165023 0.660557,0.378271 0.918473,0.573621 0.406482,0.307851 0.906505,0.781499 1.262475,1.148091 0.441594,0.4547 1.044507,1.075041 1.377709,1.607327 0.453558,0.723997 0.849615,1.830948 1.148093,2.640184 0.285085,0.775753 0.659541,1.821261 0.975238,2.582568 0.222906,0.538409 0.505396,1.247796 0.746476,1.780177 0.24203,0.535153 0.64293,1.272053 0.68885,1.836097 0.0411,0.504925 -0.0675,1.326885 -0.344,1.72256 -0.3817,0.545676 -1.308344,1.275847 -1.952176,1.607326 -1.327467,0.683055 -1.622661,1.400991 -2.980921,2.028465 -1.816787,0.839274 -6.173166,3.211913 -7.947097,4.13987 -2.607942,1.36429 -5.348985,3.606493 -7.996474,4.893013 -2.821853,1.37125 -5.208763,1.878793 -7.766289,3.489324 -1.445893,0.910546 -4.474091,2.412695 -6.02684,3.012997 -1.357785,0.524919 -3.36938,0.403714 -4.828759,0.301638 -0.978756,-0.0684 -4.205243,-0.786959 -8.100182,-1.628509 -1.51257,-0.32681 -4.792979,0.216962 -8.754737,-0.572215 -3.28859,-0.655085 -7.162513,-2.622488 -9.829115,-3.180463 -2.644299,-0.55331 -4.083667,-0.371701 -6.670565,-1.166396 -2.005823,-0.616181 -5.508334,-2.06283 -7.449678,-2.851497 -1.827023,-0.742177 -4.221513,-0.658926 -5.86591,-1.724259 -0.930349,-0.602789 -2.538424,-2.60976 -2.915501,-3.52815 -0.297386,-0.724285 -0.05015,-1.733086 0.315196,-2.468184 0.924609,-1.860219 2.553486,-4.640567 3.815511,-5.643525 0.710317,-0.564503 5.083714,-3.518452 7.731626,-5.230906 2.445713,-1.581688 4.688522,-3.226462 6.546717,-4.719602 2.894732,-2.326044 6.183308,-2.613568 9.081979,-4.128723 1.801385,-0.941542 5.493911,-2.330637 7.342749,-3.173643 1.37414,-0.626516 3.791141,-1.133829 5.216367,-1.626985 1.454121,-0.503107 4.995545,-1.670257 6.473655,-2.107819 1.535701,-0.45461 1.358227,-0.229432 2.781734,-0.510957 1.277326,-0.252634 3.290918,-0.472249 4.57762,-0.682302 0.972251,-0.158719 2.39981,-0.377417 3.372252,-0.40162 0.759011,-0.01889 1.887382,0.02048 2.540204,0.344003 0.279153,0.138314 0.638668,0.495935 0.775279,0.775279 0.129818,0.265454 0.158828,0.729693 0.128789,1.032858 -0.03138,0.317133 -0.221647,0.731497 -0.344003,1.033706 -0.134124,0.331288 -0.375363,0.747361 -0.516853,1.07607 -0.185592,0.43145 -0.362802,1.037763 -0.560065,1.463286 -0.247297,0.533622 -0.653603,1.210938 -0.946433,1.722559 -0.313498,0.547781 -0.149301,1.303855 -0.444717,1.86082 -0.213527,0.402753 0.0017,0.903332 -0.171492,1.325025 -0.161197,0.392518 -0.701347,1.048179 -0.829253,1.453034 -0.07261,0.229981 -0.441578,0.920857 -0.491802,1.156387 -0.05434,0.254947 -0.348899,0.690194 -0.418548,0.939882 -0.08945,0.321052 -0.506048,0.137248 -0.61482,0.454187 -0.09538,0.278005 0.478373,0.420914 0.439628,0.710205 -0.0221,0.164928 -0.874198,0.927363 -0.755674,0.997103 0.783313,0.460821 4.80188,-3.28572 6.486077,-5.050751 1.518788,-1.59159 3.15129,-4.14597 4.27632,-6.055649 0.425713,-0.722466 0.940575,-1.737514 1.220111,-2.525799 0.392419,-1.10647 0.754066,-2.666461 0.904068,-3.831488 0.06735,-0.522516 0.17657,-1.275211 0.04321,-1.764924 -0.252466,-0.927776 -1.061679,-2.172435 -1.765778,-2.840995 -0.90031,-0.854983 -2.543214,-1.710564 -3.745063,-2.066563 -1.685438,-0.499297 -4.144484,-0.506445 -5.940416,-0.516852 z m 63.920256,15.992775 c 0.17841,0.006 0.3453,0.03348 0.43891,0.107607 0.0715,0.05659 0.1449,0.267064 0.11438,0.344851 -0.17622,0.448584 -0.53781,1.56662 -1.09047,1.864905 -0.78982,0.426249 -1.34303,1.401969 -2.1559,1.779046 -1.15861,0.537411 -1.80642,1.607535 -2.97039,2.134444 -1.45077,0.656716 -4.20022,1.930634 -5.63263,2.629635 -2.0837,1.016774 -4.24664,1.447474 -6.25993,2.583984 -0.76514,0.431834 -2.78692,1.105165 -3.52986,1.578518 -0.36477,0.232373 -1.81097,0.313539 -2.20975,0.459236 -0.45797,0.167224 -1.20065,-0.596453 -1.63614,-0.717662 -0.6213,-0.172869 -1.44531,-0.816225 -1.91989,-1.334639 -1.17541,-1.284025 -2.33674,-3.241853 -3.28334,-4.718666 -0.41402,-0.645926 -1.52197,-2.191202 -1.28284,-2.600163 0.3591,-0.614137 3.24555,-0.507996 4.58888,-0.53857 1.54958,-0.03526 4.10078,0.06451 5.65028,0.02533 1.52424,-0.03853 3.18729,-0.732528 4.70702,-0.842552 1.39864,-0.101262 3.0889,0.116248 4.46372,-0.144325 0.96976,-0.183813 2.19338,-0.0014 3.14774,-0.264811 1.8366,-0.506848 3.27057,-1.737297 5.10745,-2.243252 0.67043,-0.184691 2.56229,-0.02197 3.24439,-0.08089 0.13986,-0.01208 0.32997,-0.02805 0.50837,-0.02203 z m 70.12165,14.285467 c 2.51429,0.0027 5.90368,0.07939 8.38064,0.459235 1.78312,0.273444 4.11688,0.981641 5.85484,1.492095 2.40176,0.70541 5.70607,1.528353 7.9214,2.641032 1.59693,0.802099 3.94343,2.022502 5.45237,3.012996 2.02869,1.331668 4.57183,3.185502 6.5437,4.592363 1.80873,1.290435 3.90942,3.309027 5.5676,4.792325 1.43269,1.281536 3.36996,3.00512 4.59236,4.47713 0.94671,1.140046 2.19866,2.781945 2.75457,4.133125 0.53678,1.304499 1.02744,3.325048 0.91847,4.706749 -0.17487,2.218294 -1.41224,5.346591 -2.64018,7.232547 -2.05882,3.162036 -6.00854,6.53807 -8.95426,9.040683 -3.36878,2.861935 -8.10433,8.186575 -11.73849,10.713586 -2.65719,1.84769 -6.64947,2.37994 -9.49907,3.89386 -2.70189,1.43536 -6.40605,3.01261 -9.2415,4.19074 -1.61225,0.66985 -3.89595,1.54564 -5.56759,2.00895 -0.63427,0.17573 -1.66803,0.56595 -2.1818,0.344 -0.7112,-0.30737 -1.65302,-2.78524 -1.89372,-3.64508 -1.07867,-3.85342 -2.74141,-9.593095 -3.24786,-13.804205 -0.65293,-5.429219 0.006,-11.76605 -0.36841,-17.219664 -0.3274,-4.776492 -0.40498,-11.169981 -0.57362,-15.957188 -0.0704,-1.9975 -0.27505,-4.695783 -0.57447,-6.658078 -0.21404,-1.402757 -0.58189,-3.204533 -0.91847,-4.592363 -0.15754,-0.649562 -0.3203,-1.526852 -0.45924,-2.180949 -0.10245,-0.482345 -0.42132,-1.373191 0.68885,-2.181796 0.68145,-0.496341 1.81286,-0.952348 2.64019,-1.147242 1.88289,-0.443564 4.58074,-0.346969 6.54369,-0.344851 z M 65.34821,75.005909 c 3.715283,-0.07968 7.771844,-0.734303 11.071887,-0.322589 3.060352,0.381821 4.664057,1.583856 7.643666,2.392263 1.646889,0.446845 7.142569,1.819149 8.151462,2.926003 0.219361,0.240686 1.091491,0.636753 1.223893,1.087933 0.182913,0.623253 -0.425885,1.33888 -0.535039,1.78187 -0.311297,1.263019 -2.082614,3.826942 -3.213807,4.716968 -2.505231,1.971124 -4.946517,3.825248 -8.499745,5.353447 -3.129945,1.34615 -7.356402,2.406013 -9.97104,3.53851 -5.542456,2.400641 -13.059064,5.331716 -18.907598,6.807936 -4.008209,1.01157 -8.809166,1.29591 -12.932556,1.6824 -2.396221,0.22453 -6.22005,0.65106 -8.35183,-0.0864 -1.188773,-0.41137 -2.653524,-1.64694 -2.991814,-2.72577 -0.359372,-1.14617 -0.02346,-2.911786 0.717662,-4.054324 0.717539,-1.10628 2.019907,-2.598997 3.339207,-3.797595 1.317683,-1.197068 2.716183,-2.293992 4.100929,-3.341749 2.273634,-1.720327 3.900022,-4.161773 6.703791,-5.985224 2.186609,-1.422076 5.556361,-2.263948 7.459664,-3.428271 3.345161,-2.046364 7.905679,-5.233578 11.552079,-6.141226 1.033766,-0.257323 2.200761,-0.377601 3.439189,-0.404162 z"
     sodipodi:nodetypes="sssssssscssssssssssssssssssssssccccccssssscccsssssssssssssccccssccsccccsccscccccsccscscsccccscscccsssccsccccccccccsssccccssccccscccscscccsccccssssssscssssscccsscccccssccccscccscscscscscscssccsccccccccscccssscscsscsccssscscccssssssssssccccsccssssssssssssssssssssssssssssssssssssssssssscssssscsssssssssssssssssssssssssssssssssssssssssssssssssssscssssssssssssss"
     style="stroke-width:0.95666;fill:#ffa400;fill-opacity:1"
     clip-path="url(#clipPath6)" /><path
     id="shape4"
     fill-rule="evenodd"
     stroke-opacity="0"
     stroke-width="0"
     stroke-linecap="square"
     stroke-linejoin="bevel"
     d="m 264.12738,29.978074 c 0.77601,0.180501 1.19898,3.431738 1.57849,4.936363 0.744,2.949755 1.49646,6.968004 1.86549,9.987509 0.32055,2.623066 -0.106,6.903049 -0.0103,9.548405 0.1806,4.989746 0.77789,10.914932 0.75643,15.908314 -0.0198,4.61531 -0.64179,10.767685 -0.71318,15.38309 -0.0623,4.029069 0.31597,9.402532 0.25398,13.431505 -0.0477,3.09996 -0.3056,7.23589 -0.22959,10.33193 0.0474,1.93082 0.18057,4.52069 0.45919,6.42875 0.0229,0.1567 0.0345,0.48723 0.11482,0.5166 0.23013,0.0842 0.92134,-0.57811 1.20539,-0.9184 0.61591,-0.73777 1.01957,-2.06284 1.49235,-2.92738 0.78485,-1.43479 1.74084,-3.44579 2.75518,-4.70676 0.0236,-0.0294 0.0625,-0.0821 0.0933,-0.0861 0.0562,-0.007 0.17555,0.0569 0.20453,0.10762 0.054,0.0947 -0.001,0.30355 -0.0215,0.4305 -0.0654,0.41385 -0.24319,0.95322 -0.36593,1.35606 -0.2803,0.91955 -0.6885,2.13785 -1.03319,3.03501 -0.22587,0.58777 -0.55075,1.36553 -0.82875,1.93006 -0.2959,0.60088 -0.85975,1.33033 -1.09059,1.95159 -0.26615,0.71644 -0.40697,1.7614 -0.5166,2.52558 -0.20568,1.43422 -0.0645,3.42761 -0.40178,4.82156 -0.19918,0.82311 -0.9401,1.25637 -1.40669,1.95569 -0.58337,0.87343 -1.33931,2.61829 -2.20948,3.21047 -0.35072,0.23821 -0.9246,0.57495 -1.32019,0.57399 -0.58617,-0.002 -1.43258,-1.1479 -1.89891,-1.54587 -0.71702,-0.61227 -1.35992,-1.29541 -1.65987,-2.19945 -0.54716,-1.64947 -0.52843,-4.04782 -0.57399,-5.8406 -0.0267,-1.04926 0.47025,-2.24013 0.47886,-3.29064 0.009,-1.06754 -0.4065,-2.70207 -0.42146,-3.76951 -0.0258,-1.84291 0.3541,-4.29923 0.30195,-6.14176 -0.0853,-3.01347 -0.27585,-7.03135 -0.35935,-10.044924 -0.0711,-2.565666 0.15699,-6.07479 0.2009,-8.638638 0.0965,-5.63511 0.14351,-13.047406 0.31571,-18.683567 0.12089,-3.956841 0.70157,-9.030888 0.73757,-12.991172 0.0258,-2.841471 -0.73589,-6.847562 -0.56537,-9.681667 0.13191,-2.192473 0.48675,-5.107033 0.74618,-7.289748 0.19686,-1.656294 0.42199,-3.877151 0.74619,-5.510341 0.19725,-0.993654 0.58261,-2.295975 0.86099,-3.271777 0.0643,-0.225182 0.24444,-0.882249 0.45922,-0.832292 z"
     sodipodi:nodetypes="cssssssssssssssssssssssssssssssssssssscc"
     clip-path="url(#clipPath5)"
     style="fill:#ffa400;fill-opacity:1" /><path
     id="shape5"
     d="m 324.7218,36.01924 c -1.11593,0.0089 -4.66526,0.138842 -5.65349,0.178235 -4.08905,0.162996 -9.8556,1.305203 -13.8663,2.047283 -3.01472,0.55779 -6.29,1.738689 -9.2147,2.695788 -2.02324,0.662055 -5.14435,1.397735 -7.1297,2.169405 -2.13976,0.831653 -3.60871,1.998682 -5.71814,2.904055 -1.55611,0.667881 -5.49222,2.034784 -6.9927,2.814653 -1.74159,0.90519 -4.38822,2.651809 -6.75502,3.608364 -0.67017,0.270852 -2.17149,0.390984 -2.08551,0.594177 0.0459,0.10839 0.9787,-0.04954 1.3989,-0.143193 0.53596,-0.119486 1.56453,-0.402065 2.08096,-0.581247 1.31864,-0.457666 4.13163,-1.818796 5.45237,-2.267373 1.89633,-0.644214 3.92096,-1.344196 5.85484,-1.894561 1.22386,-0.34832 2.83638,-0.508615 4.13313,-0.860856 0.78456,-0.21324 2.40132,-0.428401 3.21381,-0.573622 1.12704,-0.201568 2.11628,-0.40451 3.15703,-0.631238 1.22845,-0.267673 3.06491,-0.267312 4.27632,-0.632085 0.26366,-0.0795 0.5087,-0.186186 0.76088,-0.223687 0.11489,-0.01712 0.29368,-0.0037 0.40331,0.01186 0.0326,0.0047 0.16587,0.141663 0.18471,0.155057 0.30259,0.214865 0.26385,1.324501 0.30164,1.893714 0.082,1.23782 0.0606,2.892722 0.0864,4.133125 0.0269,1.290916 0.017,3.016414 -0.0432,4.305128 -0.0775,1.656743 -0.32198,3.861569 -0.51685,5.509988 -0.25734,2.175921 -0.78298,5.055957 -1.03286,7.232547 -0.40801,3.553222 -0.82104,8.311332 -1.0337,11.881679 -0.19047,3.197632 -0.32843,7.482099 -0.1,10.632759 0.20252,2.794687 2.1476,6.471452 3.22021,9.064955 0.70133,1.69587 0.86078,4.05801 2.13218,5.31372 1.58805,1.56844 4.4654,3.36611 6.62927,3.91791 3.38303,0.86262 8.51049,0.36009 12.05452,-0.172 3.79679,-0.57017 9.48523,-3.27383 12.94431,-4.90943 4.41336,-2.08695 9.78483,-4.700083 13.68885,-7.718724 3.78799,-2.929003 6.21161,-6.565386 9.11526,-10.274352 2.60145,-3.32305 7.53452,-9.225634 8.85088,-13.259387 1.21783,-3.730969 1.26572,-8.114765 1.22363,-12.033718 -0.0277,-2.587666 0.22406,-7.261466 -0.70677,-9.663923 -0.75768,-1.955028 -2.71789,-4.689866 -4.21956,-6.112418 -2.24394,-2.125821 -4.5617,-2.418662 -7.49806,-3.605273 -2.64048,-1.067028 -6.54806,-2.651026 -9.34687,-3.272385 -3.07058,-0.681696 -8.47259,-2.217825 -11.59636,-2.50703 -2.94761,-0.272887 -4.30587,0.245381 -7.65365,0.272098 z m -9.03053,8.811798 c 1.27236,0.003 2.54564,0.0274 3.66881,0.05677 1.26614,0.03311 5.99598,0.185547 7.26136,0.244022 4.00457,0.185066 6.37805,0.627835 10.34637,1.119283 1.98066,0.245296 4.64808,0.689009 6.54284,1.291284 2.03644,0.647323 4.66453,1.896275 6.5437,2.927419 1.27073,0.697309 3.00748,1.683883 4.0467,2.668993 1.05577,1.000837 2.40068,2.632722 2.92742,3.960276 0.62125,1.566147 0.86114,4.07722 0.68885,5.769262 -0.24222,2.378924 -1.5665,5.534557 -2.58257,7.748553 -1.08552,2.365434 -2.90706,5.415406 -4.47713,7.490973 -1.89571,2.506159 -4.44995,6.529587 -6.81108,8.611276 -2.74762,2.422453 -5.68198,5.046843 -8.70473,7.126333 -2.07155,1.425135 -6.30429,2.429836 -8.96351,3.907873 -2.39136,1.329278 -4.93418,2.269385 -7.11986,2.912165 -1.14531,0.33684 -3.06184,0.51102 -4.27632,0.51686 -1.3685,0.007 -3.04374,-0.1406 -4.33309,-0.51686 -1.12873,-0.32938 -2.75811,-1.059982 -3.53069,-1.893711 -0.94412,-1.018746 -2.42085,-3.184147 -2.82308,-4.582496 -0.54323,-1.88854 -1.47831,-5.836804 -1.684,-7.808095 -0.37576,-3.601151 0.90528,-7.064953 0.80523,-10.684759 -0.0799,-2.889971 -0.36776,-7.383622 -0.29268,-10.275315 0.0624,-2.403222 0.67144,-4.971459 0.7231,-7.374778 0.0594,-2.762448 -0.0627,-7.245493 -0.0432,-10.009146 0.003,-0.458499 -0.007,-1.07059 0.022,-1.527681 0.0109,-0.174887 -0.009,-0.433664 0.0644,-0.581247 0.0744,-0.149874 0.28891,-0.303021 0.43042,-0.409246 0.0713,-0.0535 0.17617,-0.11734 0.25843,-0.150819 0.12207,-0.04968 0.30213,-0.0683 0.51685,-0.08557 2.09733,-0.168806 5.03314,-0.276301 7.13172,-0.380438 1.1202,-0.05559 2.39137,-0.07414 3.66372,-0.07117 z"
     sodipodi:nodetypes="sssssssasssssssssssscssssssssssssscsssssssssssssssssssssssssssssssssssssss"
     style="stroke-width:0.95666;fill:#ffa400;fill-opacity:1"
     clip-path="url(#clipPath4)" /><g
     id="g2"
     transform="matrix(1.6230394,0,0,1.6230394,-52.651199,-341.86417)"
     clip-path="url(#clipPath3)"><path
       id="shape8"
       d="M 5.0296265,3.5831343e-4 C 3.8966676,-0.00698765 2.2756416,0.09261713 1.2495226,0.51051291 0.85728601,0.67025475 0.28792424,1.033546 0.07953265,1.3802556 c -0.13300737,0.2212898 -0.07553539,0.5867488 0,0.7802886 0.10728269,0.2748897 0.38496432,0.6546263 0.62972208,0.8095161 0.32985567,0.2087398 0.94087017,0.2478473 1.35066967,0.3002473 0.7472393,0.09555 1.9798546,-0.2649898 2.519774,0.09034 0.2700998,0.1777499 0.480158,0.7808171 0.5402679,1.1398767 0.07766,0.4639595 -0.027,7.0376217 0,9.3599197 0.04833,4.157396 0,9.70209 0,13.860085 0,7.505993 0.698112,16.674096 0.720062,24.180088 0.00809,2.766897 -0.1171593,6.81083 0.026571,10.021527 0.0961,2.146898 -0.2751369,4.363154 -0.177137,6.208652 0.1201199,2.261998 1.1893777,8.667701 1.3736976,11.297799 0.1884198,2.688597 -0.5069949,1.601573 -0.3232751,3.912071 0.1625099,2.043698 0.6300897,4.370979 0.7944595,6.751577 0.2431898,3.522296 1.1563775,7.160767 1.5154072,10.167667 0.4481095,3.75299 0.098227,8.32745 1.9201655,11.61044 1.153299,2.078 2.950959,4.69794 3.869558,7.01994 0.4829,1.221 1.430672,2.63673 2.130072,2.03974 2.121898,-1.81 2.664658,-2.36395 3.479857,-3.26995 1.220599,-1.355 2.167983,-2.72215 3.150382,-4.26015 1.082299,-1.694 2.793252,-4.30008 3.659651,-6.12008 0.831399,-1.746 2.054314,-4.00695 2.610114,-5.84995 0.717499,-2.3786 1.88632,-5.660095 2.43032,-8.099593 0.340699,-1.527798 0.592182,-5.621947 0.960082,-6.840145 0.821299,-2.719498 0.485843,-4.655371 0.869743,-7.469868 0.411599,-3.016997 0.191706,-7.114116 1.589805,-9.539714 0.330599,-0.573499 1.275565,-1.174824 1.920164,-1.440124 2.114998,-0.870699 5.46633,-0.71655 7.800228,-1.07965 2.923697,-0.455 6.799311,-1.202145 9.719508,-1.680145 2.284898,-0.373999 5.012778,-1.52535 7.673575,-1.93345 1.944198,-0.2981 4.932327,-0.703798 6.606325,-0.946797 2.912198,-0.4227 5.724962,-0.07634 8.639859,-0.480042 3.061196,-0.423999 7.192437,-0.500904 10.200435,-1.200103 3.358395,-0.780699 6.848607,-1.285982 8.940105,-0.960083 2.277398,0.3549 6.81625,-2.316976 8.04025,-3.330175 0.521,-0.4315 2.4118,-4.595356 1.5898,-5.249456 -1.603,-1.274798 -3.04443,-2.164822 -5.00943,-2.820021 -1.890399,-0.629999 -4.137373,-1.341245 -6.120971,-1.680145 -1.796698,-0.307099 -5.270468,-0.294441 -7.080166,-0.480041 -4.521596,-0.463799 -4.462963,-0.590809 -6.83926,-0.599609 -1.970798,-0.0074 -6.578979,-0.693706 -8.490177,-0.209907 -2.780697,0.703899 -5.229134,0.420007 -8.18993,0.209907 -3.312897,-0.235099 -9.189206,0.436915 -12.510301,0.419815 -4.535796,-0.0234 -9.397731,-0.869364 -13.919427,-1.109763 -1.923099,-0.1023 -4.672119,-0.01766 -6.390217,-0.720062 -0.7023,-0.2872 -1.558047,-1.037919 -2.069846,-1.619918 -0.6522,-0.741699 -1.341559,-1.958549 -1.710258,-2.880248 -0.4879,-1.219699 -1.178496,-3.004273 -0.990196,-4.320372 0.1851,-1.293198 -0.666856,-3.013087 -0.899856,-4.319486 -0.1837,-1.029799 0.0705,-2.247909 0.389701,-3.210608 0.2548,-0.768699 1.801902,-1.892381 2.580001,-2.33998 1.128999,-0.649599 2.459024,-1.43692 3.630423,-2.009619 1.204299,-0.5889 2.93912,-1.005925 4.199918,-1.440124 1.693499,-0.5834 4.080552,-1.022285 5.84995,-1.349784 2.865697,-0.5305 5.744761,-1.894727 8.639858,-2.250526 1.813298,-0.2229 3.773826,-0.739398 5.777324,-0.921998 1.658198,-0.1511 3.36494,0.02179 4.873039,-0.06731 4.227396,-0.2498 8.896513,-0.639437 13.10991,-1.080536 4.030395,-0.4219 10.131551,-0.217921 14.159447,-0.240021 3.108697,-0.017 8.960749,0.568766 12.031144,0.150567 1.72,-0.2344 2.82728,-0.466127 4.49928,-0.945026 0.934,-0.2676 2.87697,-1.026147 3.50997,-1.642946 0.394,-0.3845 2.64448,-1.534017 2.69248,-2.115016 0.044,-0.527299 -1.59596,-0.824029 -1.85196,-1.297529 -0.451,-0.8335286 -1.5223,-1.2128254 -2.1903,-1.8298248 C 107.6239,7.6239851 106.40495,6.25819 105.25995,5.7599705 103.57395,5.026439 101.4342,4.6953673 99.619905,4.3499577 97.691807,3.982818 95.046505,3.9351886 93.080007,3.8406887 90.32331,3.7082189 89.872601,3.6006681 87.109604,3.6006681 c -1.529399,0 -4.684148,0.2706429 -6.388446,0.3011329 -1.515099,0.0271 -1.882109,0.4735199 -3.241608,0.4782699 -1.669198,0.00584 -5.790957,-0.6707794 -7.860455,-0.6199795 -2.717697,0.06672 -4.798028,0.1462716 -6.989826,0.1700515 -1.519599,0.01649 -5.175563,-0.00563 -6.808261,0.035427 -2.312798,0.05815 -3.699224,-0.2368614 -5.851722,-0.2152214 -1.664998,0.01674 -4.728433,-0.2972473 -6.389332,-0.2099074 -1.623998,0.0854 -3.776023,-0.012463 -5.400021,0.060227 -1.759599,0.07877 -4.064124,0.063843 -5.820723,-0.060227 C 31.672311,3.4919216 27.146932,3.22142 26.480033,3.0604002 25.962733,2.9354903 22.379177,2.5095447 21.199579,2.4005648 20.456279,2.3318949 19.47483,2.12327 18.740031,1.9807501 17.908432,1.8194503 11.50207,1.1532574 11.05937,1.0206675 10.400471,0.8232767 9.7446236,0.76744993 9.0798642,0.5999671 7.8947454,0.3013824 6.2457452,0.00824345 5.0296265,3.5831343e-4 Z M 11.287222,4.4863884 c 1.710703,-0.020482 3.759871,0.4928831 5.142057,0.673581 2.324598,0.3039027 4.811395,0.1834397 7.140393,0.4452694 3.149597,0.3540696 8.50143,0.8765697 11.665127,0.9528996 3.639596,0.08781 12.696567,0.1180923 16.342564,0.077612 3.643996,-0.04046 6.134538,0.7733915 9.779734,0.7874715 2.537897,0.0098 5.911963,-0.4206094 8.449861,-0.4452694 2.916097,-0.02834 4.374076,-0.152557 7.290074,-0.189997 2.699997,-0.03467 7.115295,-0.677493 9.815392,-0.695493 1.619898,-0.0108 2.964963,0.2875199 4.584961,0.2875199 1.583998,0 3.790642,-0.1612001 5.36184,-0.01952 1.596998,0.1439999 3.524455,1.1419939 5.090455,1.5071435 1.0197,0.2377598 1.7777,1.0111105 2.7442,1.4017801 0.5642,0.2280598 2.1579,0.2983766 2.6058,0.6913862 0.227,0.1988598 0.74495,0.7926638 0.68995,0.9742538 -0.088,0.29401 -0.32618,1.158468 -0.75018,1.425067 -0.8816,0.55462 -3.49604,0.09685 -4.58934,0.319893 -1.2449,0.25397 -2.846042,1.224362 -4.11074,1.360252 -2.976797,0.31986 -7.10198,-0.882539 -10.093877,-0.774539 -2.624597,0.0948 -6.000066,0.30087 -8.625963,0.37437 -3.854996,0.108 -8.581935,0.881933 -12.436731,1.017433 -2.518098,0.0886 -6.297385,0.732828 -8.802882,0.942427 -2.353598,0.1969 -6.002724,-0.310427 -8.337622,0.07987 -2.597597,0.4343 -5.557067,1.84973 -8.102464,2.500129 -2.860398,0.730999 -7.062168,0.595588 -9.762965,1.776786 -2.249298,0.983799 -6.237111,3.150389 -8.006709,4.765987 -1.247098,1.138599 -0.844474,4.036142 -1.160073,5.60794 -0.3668,1.826798 -0.487564,3.488437 0.04744,5.430135 0.4858,1.762799 0.775989,4.080812 1.501788,5.75961 0.5291,1.223899 2.564112,2.332337 3.460211,3.239836 0.8747,0.885799 2.225583,2.347174 3.451182,2.711474 2.648897,0.787399 5.435321,0.0089 8.248718,0.108548 3.844596,0.136199 9.273833,1.261903 13.126129,1.225903 2.807797,-0.0262 6.630244,-1.154809 9.434041,-1.046109 3.713596,0.143999 13.058503,0.724089 16.770999,0.806089 3.235997,0.0715 5.864037,-0.316668 9.089233,-0.145368 2.061498,0.1095 2.76623,-0.146479 4.799528,0.24002 1.962098,0.373 4.361084,0.791375 6.257583,1.405974 1.255494,0.4069 3.597214,1.578972 4.483114,2.433471 0.29111,0.2808 -0.49337,0.881278 -0.38626,1.202978 0.1105,0.3319 -0.85152,1.667837 -1.17431,1.796837 -2.21,0.883499 -2.90418,0.442357 -5.354577,0.708157 -2.551398,0.276699 -4.883098,1.125303 -7.646396,1.391803 -2.728897,0.263199 -8.065962,-0.161544 -10.58006,0.152555 -2.272698,0.284 -8.806817,1.427594 -11.410614,1.773694 -2.609397,0.3468 -1.557133,0.434105 -3.827931,0.774209 -4.355295,0.6523 -9.025054,0.677439 -13.366149,1.413438 -3.034397,0.5145 -3.832744,1.117031 -6.854041,1.706831 -1.080999,0.2111 -6.672035,1.142418 -7.620434,1.619918 -0.877799,0.441999 -2.458289,1.198533 -2.939589,2.039733 -0.503299,0.879599 -1.431951,1.96153 -1.826398,3.091593 -0.442354,1.267312 -0.412563,2.874574 -0.554163,3.988573 -0.316199,2.488397 -0.370484,4.518681 -0.615827,6.991264 -0.245343,2.472583 -0.405414,5.275642 -0.720614,7.57554 -0.2437,1.778198 -1.254956,5.258153 -1.678156,6.989551 -0.380599,1.557599 -1.022328,4.060691 -1.561128,5.58268 -0.797699,2.253 -0.970076,5.23911 -1.998875,7.37611 -0.7896,1.64 -2.808041,2.68328 -3.910139,4.14427 -0.6667,0.884 -1.090582,4.16532 -1.984981,4.66032 -0.4614,0.256 -1.414628,0.41134 -1.619918,0.0903 -1.070289,-1.674 -1.822,-6.69424 -2.299399,-9.21024 C 12.857707,102.60249 11.853949,94.769076 11.34141,88.920481 10.78458,82.566588 10.343651,74.050976 9.9746716,67.679982 9.6399819,61.901088 9.4318933,54.298154 9.1832775,48.51576 8.9921777,44.071164 9.7107581,37.039764 9.6078382,31.875969 9.5377082,28.357073 9.0250446,26.568693 8.9349477,23.537997 8.8410218,20.3786 8.1471337,16.214544 8.1469805,13.055587 8.1468652,10.679589 7.8646942,6.2096468 9.3148362,5.047585 9.771012,4.6820297 10.2608,4.4986777 11.287222,4.4863884 Z"
       transform="matrix(0.58942491,0,0,0.58942491,286.65509,215.99928)"
       style="stroke-width:1.00036;stroke-dasharray:none;fill:#ffa400;fill-opacity:1"
       sodipodi:nodetypes="ssssssssssssssssssccccccssssccssssssccccsssssssssssscccsssssscsccccsssssssssssssssssssssssssssssssscccssssssscsssssssssssssssscsssssssssaczsccsccccssssssss" /><path
       id="shape10"
       transform="matrix(0.58942491,0,0,0.58942491,365.9559,216.2081)"
       fill-rule="evenodd"
       stroke-opacity="0"
       stroke-width="0"
       stroke-linecap="square"
       stroke-linejoin="bevel"
       d="M 3.59347e-4,5.16608 C 0.220278,4.65339 0.606094,4.31558 0.825359,4.10858 0.834871,4.0996 1.37723,3.78886 1.38036,3.78608 c 0.21025,-0.186 2.47087,-0.62314 3.54,-0.84 1.37682,-0.27926 3.95541,-0.17792 5.34004,-0.42 1.6937,-0.29612 3.6673,-0.34485 5.37,-0.57 1.6993,-0.22469 10.1971,-0.74914 11.91,-0.84 3.2706,-0.173479 3.9837,-0.540592 7.26,-0.599995 2.5198,-0.045689 2.0706,-0.357553 4.59,-0.4200001 3.0608,-0.0758685 10.289,0.3429061 13.35,0.3000001 2.4832,-0.034809 3.457,-0.4509466 5.94,-0.39000011 1.9358,0.04751701 4.5161,0.52715611 6.45,0.63000111 1.675,0.089079 4.0884,0.222542 5.76,0.36 1.352,0.111174 2.9876,-0.144839 4.32,0.090004 1.5049,0.26523 2.6984,0.12324 4.185,0.495 1.5374,0.38446 4.294,1.62497 5.715,2.265 1.1484,0.51724 2.8815,1.16408 3.75,2.07 0.4114,0.42918 0.0605,1.80399 0.21,2.37 0.2105,0.79743 0.9091,0.79173 0.75,1.62 -0.336,1.74951 -2.1415,5.41531 -3,7.02001 -1.5249,2.8501 -3.9308,5.5753 -5.97,8.07 -1.3749,1.6819 -2.6054,3.1513 -4.2558,4.9809 -1.5924,1.7654 -4.0805,3.5351 -5.6442,4.9491 -1.5457,1.3977 -5.1893,4.7044 -6.7756,5.8095 -1.4168,0.987 -3.2276,2.0608 -4.7444,3.1305 -2.2173,1.5637 -3.8382,1.988 -5.85,3.75 -0.3163,0.277 -0.725,1.4332 -0.9675,1.785 -0.1476,0.214 -0.4482,0.6028 -0.42,0.8025 0.0646,0.4578 0.9665,1.035 1.4625,1.35 1.5917,1.0111 4.0357,2.1336 5.7975,2.8875 1.408,0.6025 3.7545,2.1471 5.1375,2.805 2.5645,1.2199 5.6063,2.4228 8.1,3.78 1.7317,0.9425 10.0556,5.1326 11.88,6.3 2.2067,1.412 4.8992,3.7226 7.2,4.95 2.259,1.2051 3.1401,3.0552 4.32,4.5 1.138,1.3935 2.4494,3.4296 3.42,4.95 0.8586,1.3457 2.4876,3.0086 2.6996,4.59 0.356,2.6487 2.15,6.3965 3.12,8.79 0.731,1.8025 2.052,3.305 2.64,5.1599 0.662,2.085 0.962,4.9 1.5,7.02 0.422,1.663 1.521,3.886 1.74,5.58 0.097,0.747 0.155,1.772 0.09,2.52 -0.044,0.519 -0.044,1.454 -0.36,1.71 -0.407,0.33 -1.629,0.184 -2.25,0 -4.411,-1.309 -9.4058,-6.082 -13.4096,-8.73 -5.2903,-3.499 -12.2701,-8.275 -17.55,-11.7899 -2.0556,-1.3683 -4.2141,-3.521 -6.6163,-5.1063 -2.0342,-1.3425 -4.3196,-2.1254 -6.0737,-3.2637 -2.6445,-1.7161 -8.3058,-5.9906 -11.4009,-7.9657 -2.4713,-1.577 -2.3932,-0.8725 -4.5291,-2.2043 -2.423,-1.5108 -5.361,-3.2579 -7.59,-5.01 -1.1128,-0.8747 -3.1346,-2.0511 -4.17,-3.03 -0.8242,-0.7792 -1.7597,-1.5428 -2.73,-2.07 -0.7021,-0.3815 -1.8843,-1.0766 -2.6625,-1.035 -0.8429,0.045 -1.9772,0.178 -2.58,0.7425 -1.0919,1.0224 -1.7287,3.2802 -2.2575,4.7925 -0.6624,1.894 -1.1176,4.5722 -1.56,6.54 -0.8596,3.8228 -1.8512,8.9546 -2.7,12.78 -0.6886,3.103 -1.7059,7.2182 -2.4,10.3199 -0.187,0.836 -0.3861,1.962 -0.6,2.79 -0.606,2.347 -0.9157,6.014 -2.34,7.74 -0.6808,0.825 -2.3439,1.668 -3.42,1.8 -1.1609,0.143 -3.31,-0.23 -4.05,-0.99 -1.35678,-1.393 -1.36928,-5.203 -1.62002,-7.47 -0.43697,-3.951 -0.16581,-10.4048 -0.09,-13.3199 0.0758,-2.9151 -0.18989,-5.6663 -0.24749,-6.9075 -0.08193,-1.7655 -0.01391,-4.2089 -0.18,-6.0075 -0.11284,-1.222 -0.13344,-2.8025 -0.3825,-4.005 -0.43508,-2.1007 -0.48135,-4.9081 -0.81,-7.02 -0.52956,-3.403 -1.23957,-7.9792 -1.17,-11.43 0.03435,-1.7036 -0.38905,-8.7366 -0.45,-10.44 -0.2144,-5.9928 -0.22501,-9.0239 -0.36001,-14.94 -0.04927,-2.1589 0.38312,-4.2877 0.5325,-6.4425 0.1485,-2.1421 0.55779,-4.7588 0.9525,-7.035 0.11541,-0.6656 0.49943,-1.3721 0.54562,-2.0813 0.01785,-0.274 0.45639,-1.8724 0.73688,-1.8337 0.43033,0.0593 0.2814,0.3083 0.5625,0.6525 0.28969,0.3547 -0.45158,1.0573 -0.36,1.53 0.11693,0.6036 0.06071,1.4491 0.09,2.07 0.07514,1.5933 0.6922226,3.810999 0.7449926,5.404999 0.05806,1.754 -0.00982,3.999901 -0.005,5.755001 0.00747,2.7269 -0.1226907,6.3641 -0.042501,9.09 0.07703,2.6189 0.209827,6.206099 0.189997,8.824999 -0.0135,1.7821 0.089974,3.974101 0.1225037,5.755001 0.02862,1.5669 0.3396963,3.791299 0.4174963,5.357499 0.05632,1.1339 0.2665007,2.6559 0.4025007,3.78 0.15159,1.253 0.3979477,2.860101 0.6824977,4.092501 0.28272,1.2245 0.240524,2.8189 0.482524,4.05 0.2042,1.0394 0.3768,2.501799 0.4025,3.557499 0.0249,1.0234 0.397795,2.4215 0.422495,3.445 0.0409,1.6962 0.131102,3.966 0.262502,5.66 0.1567,2.0213 -0.08659,4.763301 0.0075,6.785001 0.122,2.6206 0.422999,6.025299 0.309999,8.649999 -0.1071,2.486901 -0.5493,5.580401 -0.4425,8.052401 0.039,0.905 0.473906,2.384 0.842506,3.18 0.1342,0.29 0.46975,0.54775 0.74375,0.67375 0.2971,0.137 0.872877,0.0246 1.114377,-0.14437 0.2827,-0.198 0.548124,-0.6685 0.673124,-1.0695 0.5518,-1.774 1.307954,-1.9825 1.743754,-3.7905 0.5443,-2.258 0.648201,-5.846379 1.105001,-8.124279 0.4818,-2.402 1.591701,-6.750299 1.992501,-9.167499 0.3514,-2.1195 0.606101,-4.8335 0.912501,-6.96 0.3056,-2.1215 1.310101,-4.709501 1.780001,-6.792501 0.3893,-1.726 0.690799,-3.338898 1.412499,-4.894998 0.3822,-0.8242 1.233399,-2.566198 1.969999,-3.157498 1.1618,-0.9327 2.208898,-2.575197 3.547498,-3.054997 0.809,-0.29 2.540994,-0.331404 3.379994,-0.122504 1.3976,0.348 3.163796,1.275606 4.437496,2.067506 2.3817,1.4808 6.027401,2.497399 7.752501,4.907499 1.883,2.6308 6.001401,4.570396 8.905001,5.997496 2.6933,1.3237 5.452,3.377103 7.86,4.850003 2.8009,1.7132 6.430303,4.650592 8.810003,6.912492 2.6696,2.5375 6.796998,2.977904 9.322498,4.832504 2.4772,1.8191 5.415898,4.152403 8.542498,5.852503 2.6726,1.452903 3.975301,4.114403 6.492501,5.827403 1.5357,1.045 5.2131,2.5775 6.6646,3.7325 0.977,0.777 2.0525,1.59 3.0675,2.305 0.668,0.47 1.445,1.81499 2.21,2.07999 0.204,0.071 0.542,0.186 0.72,0.12 0.229,-0.085 0.51,-0.471 0.6,-0.72 0.173,-0.477 -0.44049,-1.273 -0.52249,-1.8 -0.126,-0.811 -0.6135,-1.761 -0.8875,-2.545 -0.533,-1.527 -0.616,-3.4315 -1.12,-4.9675 -0.546,-1.666 -2.8635,-6.282301 -3.4775,-7.919901 -0.669,-1.7874 -0.9555,-3.596701 -1.8225,-5.305001 -1.274598,-2.5129 -3.105702,-5.605005 -4.652102,-7.947505 -1.0118,-1.5326 -3.178201,-3.725298 -4.465001,-5.032498 -1.4989,-1.5227 -4.715901,-4.077202 -6.462501,-5.317502 -2.4299,-1.7256 -8.4748,-3.913298 -11.07,-5.392498 -3.511,-2.0011 -1.838499,-1.3132 -5.237499,-3.48 -2.1189,-1.3507 -6.063301,-2.756401 -8.292501,-3.822501 -2.07,-0.99 -5.470498,-2.2712 -7.294998,-3.72 -0.801,-0.636 -3.857001,-1.754798 -5.078001,-3.030798 -1.083,-1.1318 -0.265946,-2.956851 -0.09815,-3.106751 1.5391,-1.3761 2.065013,-2.783454 3.836413,-3.927554 3.9979,-2.5821 9.006111,-6.257736 12.674511,-9.287936 2.8422,-2.3478 6.122603,-5.816822 8.671303,-8.481522 2.1145,-2.2109 5.188645,-4.859481 7.033045,-7.299781 1.1719,-1.5506 2.611777,-3.715474 3.398477,-5.467174 0.4736,-1.0547 0.663304,-2.432378 0.721304,-3.578478 0.0433,-0.855 -0.08616,-1.9117313 -0.541955,-2.5447913 -0.8874,-1.23265 -2.675604,-1.9099159 -4.276304,-2.4078259 -3.249,-1.01066 -7.920626,-1.3279341 -11.362826,-1.5071741 -2.5283,-0.13166 -6.537652,-0.8115641 -9.075652,-0.7571741 -3.753,0.08042 -7.473774,-0.3557636 -11.227174,-0.3313036 -3.1587,0.02058 -7.4613,0.6053995 -10.62,0.6241295 -2.6462,0.01569 -5.6977,0.3873641 -8.34,0.5171741 -2.0819,0.10227 -5.911074,0.4356264 -7.987174,0.6286964 -2.0008,0.18606 -7.894226,-0.8871517 -9.892826,-0.6766317 C 8.785,4.6629693 -0.0649274,5.31829 3.59347e-4,5.16608 Z"
       sodipodi:nodetypes="csssssssssssssssssssscscsssssssssssssssssssssscscssssssssssssssscssssssssssssssssssssssssssssssssssssssssssssssssssssssssssssssssssscssssssssssssssscc"
       style="fill:#ffa400;fill-opacity:1;stroke-width:0;stroke-dasharray:none" /><path
       id="shape11"
       transform="matrix(0.58942491,0,0,0.58942491,440.3469,219.44192)"
       fill-rule="evenodd"
       stroke-opacity="0"
       stroke-width="0"
       stroke-linecap="square"
       stroke-linejoin="bevel"
       d="M 1.20089,0.729691 C 1.36216,0.391153 2.15198,0.0981352 2.59589,0.00969056 3.05557,-0.081896 4.09958,0.503561 4.57589,0.594691 c 1.08864,0.208282 2.14603,0.976739 3.195,1.349999 1.13954,0.40549 2.82841,1.09132 3.91501,1.62 1.3238,0.6441 2.431,1.20167 3.735,1.89 1.1687,0.61695 3.4921,1.94708 4.05,2.58 0.7084,0.80366 3.7761,3.06941 4.41,3.94501 0.9399,1.2983 2.4395,2.8567 3.33,4.185 0.369,0.5503 0.7682,1.348 1.08,1.935 0.9929,1.8693 2.1889,4.4296 3.18,6.3 0.5205,0.9823 1.4018,2.213 1.8,3.24 0.5033,1.2985 0.8612,3.1754 1.08,4.56 0.312,1.9743 0.5985,4.6685 0.54,6.66 -0.034,1.1558 -0.4419,2.6826 -0.54,3.84 -0.0517,0.6091 -0.0865,1.4299 -0.06,2.04 0.047,1.0834 0.357,2.5163 0.42,3.6 0.0594,1.0225 0.0165,2.3943 0,3.42 -0.027,1.6744 -0.0145,3.9171 -0.1801,5.58 -0.1344,1.35 -0.4738,3.1396 -0.75,4.47 -0.2429,1.1703 -0.7141,2.7001 -0.96,3.87 -0.152,0.7235 -0.2824,1.7032 -0.42,2.43 -0.6062,3.2046 -1.531,7.4554 -2.1899,10.65 -0.4308,2.0882 -1.0408,4.8657 -1.44,6.96 -0.2942,1.5434 -0.5251,3.6378 -0.9,5.16 -0.2391,0.9705 -0.7283,2.2216 -1.02,3.18 -0.3218,1.0572 -0.7159,2.4775 -1.02,3.54 -0.5614,1.961 -1.2247,4.6033 -1.86,6.5403 -0.5295,1.614 -1.0819,3.912 -1.98,5.31 -0.4034,0.627 -1.355,1.869 -1.8,1.8 -1.1329,-0.177 -2.3546,-3.939 -2.97,-5.76 -0.9289,-2.749 -0.9661,-6.8021 -1.71,-9.6303 -0.6387,-2.4282 -2.0255,-5.5209 -2.79,-7.92 -0.8948,-2.808 -1.8288,-6.6339 -2.7,-9.45 -0.90822,-2.9357 -2.47766,-6.7502 -3.24001,-9.72 -0.6331,-2.4663 -0.99646,-5.875 -1.53,-8.37 -0.61594,-2.8804 -1.67355,-6.6698 -2.34,-9.54 -0.45634,-1.9654 -1.13467,-4.5796 -1.44,-6.57 -0.738307,-4.813 -1.279448,-11.3311 -1.4400202,-16.2 -0.0782139,-2.3717 -0.004051,-5.5541 0.1800002,-7.92 0.094925,-1.2202 0.42301,-2.8307 0.54,-4.05 0.175536,-1.8295 0.24273,-4.2846 0.36,-6.12001 0.06673,-1.04434 -0.10994,-2.53941 0.24,-3.48 0.12038,-0.32357 0.4349,-0.8482 0.72,-0.96 0.31875,-0.125 0.942,0.114 1.32,0.24 0.378,0.126 1.03605,0.30939 1.2,0.6 0.36778,0.65189 -0.15709,2.10101 -0.24,3 -0.2227,2.41471 -0.59132,5.62761 -0.84,8.04001 -0.21892,2.1237 -0.64483,4.951 -0.72,7.08 -0.08243,2.3345 0.04513,5.4703 0.24,7.8 0.22079,2.6396 0.75566,6.1463 1.2,8.76 0.36308,2.1357 0.99497,4.9587 1.44,7.08 0.55961,2.6674 1.33135,6.2188 1.92,8.88 0.66961,3.0272 1.51768,7.0759 2.28,10.08 0.65293,2.573 1.63243,5.9784 2.40003,8.52 0.6779,2.2447 1.696,5.2029 2.4,7.44 0.9946,3.1609 2.402,7.3569 3.24,10.56 0.4285,1.6381 0.9328,3.8491 1.2,5.52 0.1655,1.0343 -0.1764,2.7513 0.36,3.4803 0.1401,0.19 0.6329,0.416 0.84,0.36 0.5057,-0.138 1.0461,-1.204 1.32,-1.8 0.6499,-1.4151 0.8367,-3.6131 1.2,-5.1603 0.8204,-3.4938 1.9905,-8.1352 2.76,-11.64 0.7403,-3.3717 1.6261,-7.8902 2.28,-11.28 0.6793,-3.522 1.6355,-8.2137 2.16,-11.76 0.4238,-2.8653 0.918,-6.7109 1.08,-9.6 0.1288,-2.2968 -0.0183,-5.3762 0,-7.68 0.018,-2.2682 0.2519,-5.3018 0.12,-7.56 -0.1267,-2.1694 -0.3403,-5.1398 -0.96,-7.2 -0.7738,-2.5726 -0.7711,-4.2119 -2.16,-6.54 -1.1322,-1.8977 -3.4155,-6.1284 -4.86,-7.8 -1.0446,-1.2088 -3.3263,-2.8831 -4.56,-3.9 C 17.239,9.88303 15.4024,8.11348 13.8009,7.11969 12.7209,6.44956 10.3204,5.64415 9.18087,5.07969 8.22855,4.60796 6.38966,4.29906 5.40087,3.90969 4.3743,3.50544 3.5323,3.64597 2.55087,3.15969 2.20481,2.98822 1.65224,2.74142 1.47087,2.43969 1.42874,2.3696 1.45234,2.22937 1.44087,2.13969 1.3844,1.69826 1.06671,1.01136 1.20089,0.729691 Z"
       sodipodi:nodetypes="csssssssssssssssssssssssssssssssssssssssssssssssssssssssssssssssssssssssssssscc"
       style="fill:#ffa400;fill-opacity:1" /><path
       id="shape12"
       transform="matrix(0.58942491,0,0,0.58942491,469.00335,220.42996)"
       fill-rule="evenodd"
       stroke-opacity="0"
       stroke-width="0"
       stroke-linecap="square"
       stroke-linejoin="bevel"
       d="m 5.98325,8.9325395 c 1.25542,-0.16759 1.8607482,-0.094078 3.1643482,6.518e-4 1.6002498,0.11628 2.6286758,0.2712777 4.8827758,0.5784677 1.5017,0.2046 3.6026,1.225448 5.04,1.739348 2.2164,0.7924 5.250226,2.086626 7.492826,2.812826 1.543,0.4997 3.677048,1.227767 5.219348,1.729567 1.2954,0.4214 2.907952,0.734478 4.230652,1.058478 1.2565,0.3078 2.9497,0.750374 4.23,0.922174 1.191,0.1598 2.785606,0.06136 3.988206,0.118858 1.1105,0.0532 2.612594,0.154055 3.721794,0.222555 0.7576,0.0468 1.795694,0.126587 2.536794,0.273587 0.6613,0.1311 1.741954,0.195739 2.277554,0.559239 0.4556,0.3092 1.113616,1.199928 1.418316,1.684728 0.5278,0.8398 0.980165,2.090287 1.272065,3.033587 0.6923,2.2372 0.932118,5.468794 1.229018,7.816794 0.2972,2.35 0.597898,5.53085 0.874998,7.88375 0.187,1.5874 0.49135,3.725549 0.74375,5.303749 0.1416,0.8853 0.3511,1.992551 0.54,2.868751 0.7444,3.4519 2.180545,7.914252 3.143745,11.311252 0.568,2.0034 1.210504,4.64955 1.830004,6.63875 0.6502,2.0876 1.4349,4.921149 2.115,6.998749 0.4807,1.4686 1.300849,3.383651 1.828749,4.836251 0.2757,0.7588 0.483253,1.871248 0.731253,2.638748 0.52,1.6094 1.334544,3.735701 1.841244,5.350001 0.5661,1.8035 1.037806,4.2053 1.782506,5.94 0.4469,1.0409 1.045404,2.409699 1.425004,3.469999 0.2498,0.6976 0.600796,1.69695 0.824996,2.40625 0.2853,0.9025 0.7845,1.914953 1.215,2.758353 0.4448,0.871997 1.1115,1.907747 1.6625,2.718747 0.3789,0.558 0.675503,1.31451 1.207503,1.65751 0.1962,0.127 0.433702,0.32574 0.667502,0.29874 0.3232,-0.037 0.623853,-0.2065 0.821253,-0.4475 0.7268,-0.887 0.662501,-2.7275 0.987501,-3.9525 0.5427,-2.044499 1.3378,-4.775848 1.89,-6.818348 0.3606,-1.3339 1.047996,-3.097051 1.407496,-4.431251 0.2769,-1.0278 0.556853,-2.3333 0.778753,-3.3725 0.2989,-1.3998 0.636049,-3.277151 0.791249,-4.701251 0.1332,-1.2228 0.1194,-2.85135 0.27,-4.07125 0.2216,-1.7946 0.794251,-4.1449 1.008751,-5.94 0.2483,-2.0773 0.317099,-4.85965 0.452499,-6.95125 0.1225,-1.8908 0.09615,-4.43415 0.236253,-6.32375 0.1302,-1.7553 0.583948,-4.140599 0.616248,-5.897499 0.0249,-1.3485 -0.2356,-3.1504 -0.2275,-4.5 0.0079,-1.2964 0.22555,-2.975701 0.24875,-4.272501 0.0451,-2.5095 0.04225,-5.89565 -0.15875,-8.39375 -0.06,-0.7464 0.037,-1.742249 -0.175001,-2.453749 -0.2355,-0.7904 -0.01005,-1.66095 -0.07995,-2.45375 -0.0599,-0.6794 -0.262099,-1.557501 -0.306299,-2.247501 -0.0285,-0.4445 -0.285149,-1.315097 -0.116249,-1.674997 0.2661,-0.5669 1.271299,-1.251198 1.892499,-1.534998 0.7426,-0.3392 2.238698,-0.748398 3.022498,-1.042498 1.7344,-0.6509 4.627198,-1.134901 6.067498,-1.585001 0.4827,-0.1508 4.16055,-1.4977 4.66355,-1.56 0.936,-0.1157 2.19075,-0.600749 3.08375,-0.926249 1.07,-0.3899 2.80025,-0.619452 3.86125,-1.036252 1.032,-0.4051 2.26125,-0.857351 3.33125,-1.146251 1.21,-0.3267 2.5695,-1.148297 3.7825,-1.464997 0.825,-0.2155 1.98725,-0.463553 2.78625,-0.761253 1.019,-0.3795 2.3815,-0.85885 3.3775,-1.29625 1.236,-0.5423 2.75725,-1.3314 3.99125,-1.8775 1.043,-0.4614 2.4925,-1.147198 3.5275,-1.6249981 1.107,-0.51093 2.60175,-1.0188329 3.68375,-1.5799929 0.84,-0.43559 1.89575,-0.9464312 2.68875,-1.4587512 0.48,-0.30976 1.129,-0.6500711 1.215,-1.0687511 0.06,-0.28906 -0.13425,-0.7288225 -0.41625,-0.9737525 -0.79,-0.68575 -2.14025,-0.8305552 -3.20625,-1.0475052 -2.411,-0.4907 -5.76675,-0.7112556 -8.26875,-0.7049956 -2.349,0.00587 -5.36725,0.1163071 -7.71625,0.1899971 -1.584,0.04971 -3.81175,0.23976 -5.39375,0.255 -1.162,0.01119 -2.68825,-0.1064375 -3.84625,-0.031248 -1.937,0.12578 -3.99275,0.4028497 -5.93375,0.5937497 -1.211,0.11913 -4.2362,0.4930096 -5.4423,0.6537496 -2.2656,0.30193 -3.94045,0.039083 -5.66375,0.2837526 -1.2231,0.17365 -9.51985,0.7693185 -10.29625,0.9949985 -0.7716,0.22427 -4.822324,0.6813472 -5.610924,0.7767972 -1.6966,0.20535 -3.964726,-0.043342 -5.692826,-0.045652 -1.8899,-0.00253 -4.4099,0.062486 -6.3,0.1128259 -1.4579,0.03882 -3.8545,-0.08327 -5.295,-0.225 -0.8928,-0.08785 -2.874474,-0.34272 -3.757174,-0.51 -0.8088,-0.1533 -2.729878,-0.279 -3.638478,-0.435 -0.5884,-0.10103 -3.538948,-0.3919441 -5.249348,-0.3521741 -1.2057,0.02803 -2.8141,0.088634 -4.02,0.082174 -1.4041,-0.00752 -3.2759,-0.0885 -4.68,-0.12 -0.9359,-0.021 -2.251374,-0.1697582 -3.187174,-0.1943482 -1.0802,-0.02839 -2.452626,-0.045636 -3.532826,-0.052826 -0.8998,-0.006 -2.1,0.05888 -3,0.06 -2.1824,0.0027 -5.0926,-0.2945976 -7.275,-0.3405476 -0.8235,-0.01734 -1.89765,-0.04162 -2.72125,-0.04375 -0.6952,-0.0018 -1.64585,0.06467 -2.34125,0.06875 -0.8774,0.00514 -2.07945,-0.10409 -2.94875,-0.0225 -0.5179,0.04861 -2.206051,-0.1253789 -4.0237007,0.1537511 -1.63137,0.25052 -2.775993,0.5823096 -3.252503,0.7812496 C 5.5521563,5.719717 2.25152,7.40647 2.05325,7.63341 c -0.23456,0.26847 -0.36899,0.77583 -0.57,1.08 -0.10181,0.15404 -0.25217,0.45608 -0.39,0.48 -0.258003,0.04477 -0.847931,-0.33648 -0.990004,-0.6 -0.1989561,-0.36903 -0.0719747,-1.16722 0.06,-1.62 0.082098,-0.28167 0.321718,-0.63758 0.51,-0.87 0.257708,-0.31812 0.702304,-0.66502 1.020004,-0.93 0.36458,-0.30409 0.87213,-0.68597 1.26,-0.96 0.45638,-0.32244 1.05673,-0.79176 1.56,-1.02 0.57192,-0.25937 1.41904,-0.44267 2.04,-0.57 1.13562,-0.23287 2.68366,-0.46252 3.83995,-0.51 1.2553,-0.05155 2.9393,0.1785 4.2,0.21 2.3116,0.05775 5.3971,0.01091 7.71,0 1.9081,-0.009 4.452,-0.05494 6.36,-0.06 2.178,-0.00577 5.0826,0.06024 7.26,0.03 2.5387,-0.03526 5.9219,-0.19254 8.46,-0.27 1.3905,-0.04244 3.2455,-0.156 4.635,-0.135 1.3644,0.02061 3.2036,0.05279 4.545,0.27 0.7687,0.12445 4.9561,0.71385 5.835,0.735 1.2265,0.02951 2.5078,0.26284 3.735,0.33 1.3495,0.07385 6.51,-0.0654 7.32,-0.075 1.9169,-0.02273 4.2636,-0.36278 6.18,-0.405 1.4585,-0.03214 3.4685,-0.11186 4.92,-0.24 1.3561,-0.11973 3.1435,-0.28709 4.5,-0.39 2.1765,-0.16513 5.2285,-0.26613 7.41,-0.39 1.8677,-0.10606 4.229,-0.12284 6.09,-0.33 0.8918,-0.0993 2.0778,-0.26768 2.9698,-0.36 0.943,-0.097568 2.323,-0.109503 3.27,-0.150003 1.482,-0.06341 3.348,-0.059763 4.83,-0.12 2.326,-0.0945 5.416,-0.47733 7.74,-0.63 2.697,-0.1771578 6.304,-0.1448754 9,-0.0899995 2.082,0.0423758 4.906,-0.1709395 6.93,0.2699995 1.499,0.326467 3.572,0.919893 4.86,1.710003 0.685,0.41977 1.734,1.19908 1.98,1.89 0.261,0.7326 0.017,2.15551 -0.36,2.88 -0.678,1.30414 -2.56,2.69694 -3.87,3.50999 -1.357,0.8427 -3.533,1.3733 -5.04,1.98 -2.167,0.8727 -5.033,2.0958 -7.2,2.97 -2.934,1.1837 -6.833,2.8022 -9.81,3.87 -2.803,1.0058 -6.607,2.1679 -9.45,3.06 -2.127,0.6674 -4.95,1.6204 -7.1098,2.16 -1.8933,0.473 -3.3877,0.7691 -5.22,1.395 -0.7926,0.2708 -2.0801,0.653 -2.52,1.26 -0.3836,0.5293 -0.3212,1.7237 -0.36,2.43 -0.0449,0.8159 0.2877,4.5759 0.405,5.49 0.2027,1.5801 0.2634,3.7334 0.225,5.355 -0.0332,1.4026 0.0765,3.2759 0.09,4.68 0.0184,1.9168 0.0411,4.4739 0,6.39 -0.0945,4.403 -0.2087,10.2913 -0.63,14.67 -0.3132,3.2566 -1.179,7.5539 -1.62,10.8 -0.421,3.0992 -0.7334,7.2704 -1.26,10.35 -0.4422,2.5863 -1.0955,6.0575 -1.89,8.55 -0.7416,2.3267 -2.0153,5.1176 -2.88,7.4096 -0.4416,1.171 -0.9453,2.743 -1.2,3.96 -0.0809,0.387 -0.3255,1.273 -0.54,1.44 -0.2554,0.2 -1.1586,-0.036 -1.56,-0.24 -1.3811,-0.699 -2.8646,-2.554 -3.84,-3.84 -1.3848,-1.825 -2.7983,-4.632 -3.78,-6.7196 -1.1292,-2.4016 -2.2293,-5.7947 -3.18,-8.28 -0.4335,-1.1334 -1.0418,-2.6343 -1.44,-3.78 -3.1273,-8.9978 -3.8559,-13.7618 -6.48,-22.92 -0.5938,-2.0726 -4.3407,-12.2469 -4.86,-14.34 -0.4499,-1.8135 -0.709,-4.1822 -1.065,-6.015 -0.2288,-1.1785 -0.6036,-2.8154 -0.615,-4.005 -0.009,-0.9527 -0.6614,-5.1058 -0.66,-6.06 0.0042,-2.7894 0.2458,-3.7287 -0.48,-6.42 -0.383,-1.4201 -0.9252,-3.6498 -1.92,-4.56 -0.6334,-0.5794 -2.084,-0.8937 -3,-0.96 -0.8491,-0.0615 -2.7923,-0.028 -3.66,0 -1.7744,0.0572 -3.6896,-0.1609 -5.46,-0.42 -2.3554,-0.3447 -5.3791,-0.8401 -7.68,-1.44 -3.2593,-0.8497 -7.3007,-2.2242 -10.5,-3.3 -1.1627,-0.391 -2.7232,-0.8865 -3.87,-1.32 -1.3806,-0.5218 -3.1333,-1.4956 -4.545,-1.89 -1.0313,-0.2881 -2.4878,-0.3827 -3.555,-0.54 C 7.89326,11.3481 6.76251,11.1082 5.9082,11.0684 5.35716,11.0427 4.51931,10.8683 4.0932,10.6484 3.78509,10.4894 3.29869,10.3321 3.3432,10.0334 3.3964,9.67651 5.33075,9.0249495 5.98325,8.9325395 Z"
       sodipodi:nodetypes="csssssssssssssssssssssssssssssssssssssssssssssssssssssssssssssssssssssssssssssssssssssssssssssssssssssssssssssssssssssssssssssssssssssssssssssssssssssssssssssssssssssssscc"
       style="fill:#ffa400;fill-opacity:1" /><path
       id="shape13"
       transform="matrix(0.58942491,0,0,0.58942491,565.25234,218.94297)"
       fill-rule="evenodd"
       stroke-opacity="0"
       stroke-width="0"
       stroke-linecap="square"
       stroke-linejoin="bevel"
       d="M 0.00269724,11.0487 C -0.0664503,10.9631 1.21101,9.51733 1.8702,9.0687 c 1.17382,-0.79887 3.1431,-1.27792 4.5,-1.8 2.52517,-0.97159 5.8621,-2.40422 8.46,-3.1275 2.4149,-0.67233 5.751,-1.18972 8.235,-1.575 1.6314,-0.25303 3.8428,-0.36805 5.4675,-0.6525 1.881,-0.32931 4.3242,-1.163852 6.21,-1.439998 1.5873,-0.232431 3.747,-0.278969 5.355,-0.3375 3.4325,-0.1249353 8.0167,-0.1077658 11.4525,-0.1125 1.9103,-0.0026322 4.4573,0.0499927 6.3675,0.045 1.6471,-0.004305 3.8432,-0.0789996 5.49,-0.06750004 3.5982,0.02512674 8.4003,0.11942604 11.9925,0.31499904 2.3977,0.130538 5.5819,0.567673 7.98,0.66 1.6173,0.062269 3.7818,-0.079381 5.4,-0.03 1.2163,0.037118 2.8337,0.225899 4.05,0.269999 1.5193,0.05509 3.549,0.01993 5.07,0.03 2.4568,0.01627 5.8268,-0.419992 8.1898,0.06 0.745,0.15134 1.641,0.82087 2.385,0.99 0.975,0.22136 2.362,0.15831 3.375,0.18 2.577,0.05517 6.021,-0.17666 8.595,-0.09 2.082,0.07008 4.855,0.3427 6.93,0.54 1.325,0.12596 3.102,0.26321 4.41,0.495 1.065,0.1887 2.509,0.46608 3.51,0.855 0.536,0.20814 1.214,0.6105 1.695,0.93 0.458,0.30352 1.248,0.69453 1.44,1.14 0.183,0.42361 0.023,1.2645 -0.15,1.74 -0.315,0.86788 -1.25,1.85014 -1.83,2.61 -1.026,1.346 -2.486,3.0747 -3.6,4.35 -0.821,0.9399 -1.921,2.1969 -2.82,3.06 -2.482,2.3837 -6.134,5.2057 -8.76,7.44 -1.342,1.1418 -3.109,2.6907 -4.47,3.81 -1.162,0.9563 -2.84,2.0897 -3.93,3.12 -1.029,0.973 -2.156,2.5259 -3.15,3.54 -0.935,0.9541 -2.263,2.1504 -3.27,3.03 -1.193,1.0429 -2.853,2.3557 -4.08,3.36 -5.2091,4.2637 -11.9196,10.2882 -17.4073,14.16 -1.0173,0.7177 -2.5108,1.4778 -3.555,2.16 -1.1312,0.7392 -2.5775,1.8192 -3.69,2.5875 -1.0075,0.6957 -2.3504,1.6249 -3.375,2.295 -1.1141,0.7287 -2.6127,1.6834 -3.7575,2.3625 -1.3562,0.8046 -3.2305,1.7658 -4.59,2.565 -0.93,0.5467 -2.145,1.3182 -3.06,1.89 -1.1784,0.7363 -2.7986,1.6536 -3.915,2.475 -0.4771,0.351 -1.044,0.9118 -1.5075,1.2825 -1.7287,1.3823 -4.2119,3.0076 -5.9025,4.4325 -0.8408,0.7087 -1.895,1.7382 -2.67,2.52 -0.4749,0.4792 -1.1436,1.1037 -1.53,1.65 -0.2327,0.3291 -0.713,0.9209 -0.63,1.2 0.0905,0.3042 0.8758,0.5922 1.29,0.72 1.2246,0.3778 3.0452,0.2708 4.35,0.39 1.1612,0.1061 2.7145,0.2102 3.87,0.36 1.4106,0.1829 3.2855,0.4988 4.68,0.78 0.879,0.1773 2.0256,0.5616 2.91,0.69 1.4395,0.209 3.4024,0.1825 4.86,0.27 1.1163,0.067 2.6047,0.159 3.72,0.24 2.8412,0.2065 6.6456,0.3859 9.465,0.765 1.2237,0.1646 2.8255,0.6117 4.05,0.765 1.5003,0.1878 3.527,0.2953 5.04,0.315 1.484,0.0193 3.4647,-0.1351 4.95,-0.18 1.1203,-0.0339 2.6144,-0.0851 3.735,-0.09 0.8778,-0.0038 2.0788,-0.1247 2.9248,0.045 0.561,0.1125 1.242,0.5766 1.8,0.72 0.745,0.1912 1.793,0.2518 2.565,0.315 0.982,0.0804 2.299,0.1231 3.285,0.135 0.796,0.0096 1.859,-0.0298 2.655,-0.045 0.635,-0.0121 1.481,-0.0589 2.115,-0.045 0.622,0.0136 1.463,0.0215 2.07,0.135 0.484,0.0904 1.098,0.3634 1.575,0.495 0.562,0.1549 1.316,0.3681 1.89,0.45 1.346,0.1919 3.206,0.0064 4.545,0.225 1.321,0.2155 3.031,0.828 4.32,1.215 1.615,0.4848 3.772,1.1329 5.355,1.71 1.233,0.4496 3.163,0.8209 4.05,1.665 0.685,0.6519 1.202,2.0942 1.44,3.06 0.146,0.5917 0.035,1.4518 0.09,2.0698 0.045,0.502 0.159,1.166 0.225,1.665 0.055,0.419 0.189,0.978 0.18,1.395 -0.011,0.555 0.006,1.506 -0.315,1.845 -0.728,0.77 -2.884,0.852 -4.14,0.945 -1.215,0.09 -2.865,-0.261 -4.095,-0.315 -1.334,-0.058 -3.118,-0.038 -4.455,-0.045 -1.755,-0.009 -4.095,-0.021 -5.85,0 -2.268,0.027 -5.292,0.124 -7.56,0.18 -2.106,0.052 -4.913,0.153 -7.02,0.18 -1.687,0.022 -3.937,0.013 -5.625,0 -1.714,-0.013 -4.0009,-0.111 -5.7148,-0.09 -3.8984,0.048 -9.0918,0.406 -12.99,0.525 -2.6272,0.08 -6.132,0.127 -8.76,0.18 -2.682,0.055 -6.2579,0.176 -8.94,0.18 -3.2399,0.006 -7.5602,-0.19 -10.8,-0.18 -3.1682,0.01 -7.3916,0.19 -10.56,0.24 -2.0518,0.033 -4.7882,0.076 -6.84,0.06 -2.9614,-0.023 -6.9087,-0.183 -9.87,-0.24 -1.9168,-0.037 -4.4897,0.102 -6.39,-0.09 -1.5799,-0.16 -3.6946,-0.552 -5.22,-0.99 -1.1373,-0.327 -2.5646,-1.063 -3.69,-1.44 -0.8501,-0.284 -2.18864,-0.322 -2.88003,-0.81 -0.61172,-0.431 -1.3005,-1.439 -1.53,-2.16 -0.17947,-0.564 -0.12445,-1.475 0,-2.07 0.0945,-0.4516 0.58775,-0.9939 0.63,-1.4398 0.05458,-0.576 -0.35914,-1.3793 -0.45,-1.98 -0.05251,-0.3471 -0.17192,-0.8466 -0.09,-1.17 0.2318,-0.9151 1.21297,-1.9874 1.8,-2.79 1.29983,-1.7772 3.20893,-4.0291 4.68003,-5.67 1.8592,-2.074 4.5969,-4.6061 6.48,-6.66 1.5905,-1.7348 3.5431,-4.2017 5.13,-5.94 2.1491,-2.3542 5.0841,-5.4401 7.38,-7.65 2.4506,-2.3588 5.6814,-5.6402 8.46,-7.56 1.814,-1.2533 4.5981,-2.3958 6.57,-3.42 2.9686,-1.5418 6.8753,-3.7073 9.9,-5.13 2.6255,-1.2349 6.3833,-2.3817 8.91,-3.78 1.8055,-0.9992 4.0135,-2.7129 5.67,-3.96 1.6093,-1.2116 3.7721,-2.8382 5.22,-4.23 1.0583,-1.0172 2.5357,-2.433 3.24,-3.69 0.392,-0.6995 0.7914,-1.8217 0.81,-2.61 0.0171,-0.7241 -0.2942,-1.7764 -0.63,-2.43 -0.6325,-1.2311 -1.8848,-2.9241 -3.03,-3.63 -1.5967,-0.9842 -4.4723,-1.1836 -6.42,-1.5 -2.4922,-0.4049 -5.8922,-0.8737 -8.4,-0.78 -1.3928,0.052 -3.2332,0.7751 -4.62,0.78 -1.781,0.0063 -4.1541,-0.699 -5.94,-0.96 -2.3349,-0.3413 -5.469,-0.6565 -7.8,-1.02 -3.0899,-0.4818 -7.2091,-1.1803 -10.26,-1.86 -3.0148,-0.6717 -6.9853,-1.8009 -9.96,-2.64 -2.4771,-0.6988 -5.7051,-1.9765 -8.22,-2.46 -0.4944,-0.095 -1.1847,-0.058 -1.68,-0.15 -0.5772,-0.1072 -1.5897,-0.1646 -1.89,-0.54 -0.241,-0.3013 -0.3131,-1.3387 -0.09,-1.575 0.4265,-0.4515 2.174399,-0.358096 3.062499,-0.237496 1.5404,0.2093 3.473501,0.861302 4.992501,1.252502 1.7469,0.4499 4.243198,1.001399 5.992498,1.442499 2.5463,0.6421 5.812501,1.540502 8.365001,2.155002 1.8659,0.4492 4.3646,0.9787 6.255,1.3025 2.104,0.3604 4.893601,0.860597 7.017501,1.089997 2.2768,0.246 5.366599,0.519601 7.652499,0.627501 2.331,0.11 5.593598,-0.260596 7.927498,-0.192496 1.5401,0.045 3.750898,0.441994 5.272498,0.649994 3.2501,0.4443 7.683604,0.739902 10.472504,2.242502 1.003,0.5404 2.371597,2.007096 2.977497,2.982496 0.5659,0.9111 1.131798,2.526599 1.267498,3.604999 0.1942,1.5432 0.275199,4.048397 -0.267501,5.454997 -0.3623,0.9389 -1.634897,2.063399 -2.347497,2.839999 -0.8439,0.9196 -2.1048,2.069599 -3.015,2.927499 -1.3416,1.2645 -3.0591,3.076101 -4.5475,4.137501 -2.4868,1.7733 -6.211101,3.4528 -8.965001,4.83 -1.9368,0.9685 -4.800996,2.221899 -6.777496,3.107499 -2.0014,0.8968 -4.7975,1.873901 -6.7675,2.832501 -1.7509,0.852 -3.845503,2.139298 -5.462503,3.214998 -1.5087,1.0036 -3.416399,2.499302 -4.834999,3.637502 -1.4976,1.2016 -3.523101,2.7697 -4.932501,4.0675 -3.1403,2.8915 -6.8868,7.082602 -9.84,10.177502 -1.9072,1.9987 -4.276703,4.6481 -6.170003,6.66 -0.9252,0.9832 -2.313597,2.470198 -3.249997,3.442498 -0.8474,0.88 -1.929602,1.9189 -2.737502,2.8325 -0.619,0.7 -0.981007,1.917197 -1.492507,2.697497 -0.5149,0.7854 -1.589894,1.641803 -1.879994,2.522503 -0.2406,0.7303 -0.306,1.612303 -0.36,2.390003 -0.046,0.6628 -0.169898,1.515001 -0.095,2.172301 0.054,0.474 -0.01377,1.14441 0.229027,1.52641 0.1621,0.255 0.424452,0.45383 0.705652,0.59283 1.0763,0.532 2.795837,0.53712 4.001737,0.73212 1.5431,0.25 3.598788,0.34514 5.158588,0.51114 1.753,0.187 4.0692,0.53301 5.82,0.74501 1.6514,0.2 3.812601,0.54499 5.472501,0.63499 1.5983,0.087 3.7383,0.123 5.34,0.155 1.2422,0.025 2.8978,0.0782 4.14,0.0962 0.9538,0.014 2.2323,-0.0417 3.18,-0.11875 1.1054,-0.09 2.53225,-0.47675 3.63625,-0.52875 1.3069,-0.061 3.08825,0.27875 4.40375,0.32375 2.4272,0.083 5.6713,-0.19849 8.1,-0.14249 1.5669,0.036 3.748699,0.27949 5.314999,0.28749 2.0516,0.011 4.692401,-0.204 6.745001,-0.24 1.5835,-0.028 3.601001,0.0475 5.185001,0.0475 1.422,0 3.318,-0.18399 4.74,-0.18999 2.1511,-0.009 5.0665,0.0915 7.2175,0.0825 2.322,-0.01 5.4183,-0.071 7.74,-0.095 2.645801,-0.027 6.173801,-0.1895 8.819801,-0.2275 3.213,-0.046 7.4495,-0.1235 10.6625,-0.1375 2.646,-0.011 6.269,0.1175 8.915,0.1425 1.404,0.014 3.276,0.0455 4.68,0.0425 1.161,-0.002 2.61724,-0.0331 3.76924,0.0549 0.762,0.059 1.93559,0.71659 2.55359,0.48359 0.418,-0.157 0.78365,-0.82083 0.94565,-1.28283 0.321,-0.913 0.15482,-2.30965 -0.0672,-3.28565 -0.148,-0.654 -0.56658,-1.403878 -1.02358,-1.868278 -1,-1.0183 -2.90348,-1.483277 -4.29848,-2.048477 -2.067,-0.8378 -4.96259,-2.05211 -7.14359,-2.48511 -3.698,-0.7343 -8.69665,-0.591626 -12.46565,-1.012826 -3.141,-0.351 -7.4385,-1.081313 -10.5825,-1.390113 -0.914,-0.0898 -2.047,-0.128301 -2.964801,-0.132501 -3.806,-0.0174 -8.9508,1.0478 -12.69,0.63 -1.1824,-0.1321 -2.7389,-0.890699 -3.9175,-1.127499 -1.277,-0.2565 -2.923901,-0.221504 -4.225001,-0.302504 -1.3448,-0.0837 -3.388196,-0.0154 -4.737496,-0.0475 -1.7019,-0.0405 -3.929901,-0.1507 -5.622501,-0.3175 -1.0854,-0.107 -2.339203,-0.3309 -3.410003,-0.54 -0.7898,-0.1542 -2.057896,-0.141705 -2.847496,-0.297505 -2.4903,-0.4916 -5.820301,-0.900099 -8.322501,-1.337499 -1.6618,-0.2905 -3.962199,-0.882598 -5.614999,-1.222498 -1.8396,-0.3783 -5.274,-0.708192 -6.12,-1.842492 -0.2114,-0.2835 -0.253897,-1.444995 -0.07,-1.844995 0.2195,-0.4772 0.9513,-1.089098 1.3675,-1.462498 1.7509,-1.5709 4.456397,-3.419001 6.309997,-4.872501 2.4249,-1.9014 5.426603,-4.603198 7.970003,-6.334998 2.186,-1.4885 5.2216,-3.2315 7.5125,-4.56 2.4951,-1.447 6.096598,-3.2045 8.542498,-4.7275 2.8958,-1.8031 6.284405,-4.606398 9.075005,-6.574998 2.3185,-1.6355 5.639697,-3.7701 7.869997,-5.52 2.4386,-1.9133 5.5276,-4.389805 7.86,-6.435005 2.347798,-2.0586 5.407298,-4.832 7.692308,-6.96 1.556,-1.4487 3.40149,-3.566898 4.9575,-5.014998 1.558,-1.45 3.8035,-3.454799 5.4225,-4.834999 1.656,-1.4108 4.12199,-3.2127 5.82999,-4.56 0.927,-0.7312 2.22599,-1.5842 3.11999,-2.3525 0.887,-0.7621 1.87052,-1.8532 2.67751,-2.7 1.55001,-1.6258 3.3145,-3.800304 4.87251,-5.417504 0.821,-0.8517 2.34149,-1.5632823 2.8325,-2.5575023 0.169,-0.34169 0.478,-0.9449814 0.32499,-1.2550014 -0.268,-0.54497 -1.1325,-0.6248959 -1.7875,-0.8800059 -1.472,-0.57304 -3.681,-0.7656993 -5.265,-1.0374993 -2.167,-0.37198 -5.05801,-0.754303 -7.245,-0.935003 -2.469,-0.20408 -5.701,-0.275247 -8.185,-0.279997 -1.91701,-0.00367 -4.478,0.13538 -6.39,0.045 -1.462,-0.06909 -3.3515,-0.3424907 -4.8125,-0.4475007 -1.603,-0.11521 -3.842804,-0.1266508 -5.449804,-0.1775008 C 95.639101,3.6760526 93.994,3.6113534 92.7252,3.5786934 82.1445,3.3063734 68.0417,2.7839426 57.4602,2.5611926 c -3.0234,-0.06364 -7.103599,-0.12762 -10.127499,-0.12 -2.1241,0.00536 -4.254611,0.6127301 -6.367511,0.7849896 -1.9723,0.1608 -5.091892,0.1846389 -7.062492,0.3900089 -2.3119,0.24094 -3.755127,0.6426411 -6.030027,1.0499911 -1.7094,0.30611 -5.297278,0.9915123 -6.957478,1.5375023 -1.7788,0.58501 -4.397896,0.8611496 -6.164996,1.4825096 -0.9344,0.32857 -2.262998,0.8606793 -3.214998,1.1274993 -1.3896,0.38946 -3.3397597,0.8801877 -4.7574797,1.1624977 -1.33206,0.2652599 -2.933713,0.3986619 -4.265003,0.6675019 -0.60989,0.1232 -2.4253817,0.509807 -2.51001906,0.405007 z"
       sodipodi:nodetypes="csssssssssssssssssssssssssssssssssssssssssssssssssssssssssssssssssssssssssssssssssssssssssssssssssssssssssssssssssssssssssssssssssssssssssssssssssssssssssssssssssssssssssssssssssssssssssssssssssssssssssssssssssssssssssssssssssssssssssscc"
       style="fill:#ffa400;fill-opacity:1;stroke-width:0;stroke-dasharray:none" /></g></g>
  </svg>
